<svg width="237" height="231" viewBox="0 0 237 231" fill="none" xmlns="http://www.w3.org/2000/svg">
<g clip-path="url(#clip0)">
<path d="M74.282 18.1272C74.282 18.1272 33.9484 38.5267 13.8348 69.9714C-6.27885 101.416 -4.68253 141.845 19.7411 171.863C44.1648 201.881 90.8837 197.917 129.993 216.943C169.103 235.968 212.257 232.057 230.721 191.734C249.185 151.464 221.356 136.402 216.514 89.7896C211.778 43.1773 169.476 -25.1027 74.282 18.1272Z" fill="#13A34C"/>
<path opacity="0.7" d="M74.282 18.1272C74.282 18.1272 33.9484 38.5267 13.8348 69.9714C-6.27885 101.416 -4.68253 141.845 19.7411 171.863C44.1648 201.881 90.8837 197.917 129.993 216.943C169.103 235.968 212.257 232.057 230.721 191.734C249.185 151.464 221.356 136.402 216.514 89.7896C211.778 43.1773 169.476 -25.1027 74.282 18.1272Z" fill="white"/>
<path d="M192.995 200.877C192.995 200.877 170.327 161.346 175.595 151.305C180.81 141.264 194.165 159.338 194.165 159.338C194.165 159.338 182.512 122.555 188.898 106.49C195.283 90.4237 206.297 106.49 206.883 117.852C207.468 129.214 204.541 148.663 204.541 148.663C204.541 148.663 209.171 108.498 220.239 120.547C231.253 132.597 206.297 172.814 206.297 172.814C206.297 172.814 223.165 163.46 222.58 175.509C221.995 187.559 202.253 198.287 202.253 198.287" fill="#13A34C"/>
<path d="M193.154 193.53C193.154 193.53 172.189 174.082 182.406 165.415C192.622 156.695 197.997 174.769 197.997 174.769C197.997 174.769 186.716 119.172 204.967 117.164C223.218 115.156 209.809 165.362 209.809 165.362C209.809 165.362 225.4 143.905 224.336 161.345C223.272 178.785 200.125 193.477 200.125 193.477" stroke="#263238" stroke-miterlimit="10"/>
<path d="M203.477 189.99L189.323 174.77" stroke="#263238" stroke-miterlimit="10"/>
<path d="M200.497 191.153L204.382 146.602" stroke="#263238" stroke-miterlimit="10"/>
<path d="M199.912 187.929L212.63 171.229" stroke="#263238" stroke-miterlimit="10"/>
<path d="M218.27 184.863H179.107L183.044 230.736H214.385L218.27 184.863Z" fill="#263238"/>
<path d="M68.6948 131.593C68.6948 131.593 60.7133 127.629 52.9445 125.251C45.1758 122.873 35.9703 125.04 35.8107 127.629C35.5979 130.219 36.9813 129.003 38.7905 131.804C40.5997 134.552 39.8015 141.106 42.3556 147.078C44.9629 152.997 52.7317 156.009 52.7317 156.009L68.6948 131.593Z" fill="#13A34C" stroke="#263238" stroke-miterlimit="10" stroke-linecap="round" stroke-linejoin="round"/>
<path opacity="0.3" d="M63.4802 137.353C63.4802 137.353 51.5079 129.849 44.5373 127.259C37.5667 124.669 37.141 128.422 37.141 128.422C37.141 128.422 40.9189 129.584 40.9189 134.024C40.9189 138.463 43.1538 147.711 48.5813 149.614C54.0088 151.516 63.4802 137.353 63.4802 137.353Z" fill="black"/>
<path d="M148.9 145.763C152.032 144.581 153.538 140.925 152.265 137.596C150.992 134.267 147.421 132.527 144.289 133.708C141.158 134.89 139.651 138.546 140.924 141.875C142.197 145.203 145.768 146.944 148.9 145.763Z" fill="#13A34C" stroke="#263238" stroke-miterlimit="10" stroke-linecap="round" stroke-linejoin="round"/>
<path d="M63.161 208.857L69.8655 228.887C70.238 229.997 71.3022 230.737 72.4729 230.737H82.9554C84.0728 230.737 85.0306 230.102 85.4563 229.098L90.1388 218.317" fill="#13A34C"/>
<path opacity="0.3" d="M66.5133 208.857L72.1004 228.887C72.4197 229.997 73.2711 230.737 74.2821 230.737H82.9554C83.86 230.737 84.6581 230.102 85.0306 229.098L88.915 218.317" fill="black"/>
<path d="M63.161 208.857L69.8655 228.887C70.238 229.997 71.3022 230.737 72.4729 230.737H82.9554C84.0728 230.737 85.0306 230.102 85.4563 229.098L90.1388 218.317" stroke="#263238" stroke-miterlimit="10" stroke-linecap="round" stroke-linejoin="round"/>
<path d="M113.658 208.857L106.953 228.887C106.581 229.997 105.517 230.737 104.346 230.737H93.8635C92.7461 230.737 91.7883 230.102 91.3626 229.098L86.6801 218.317" fill="#263238"/>
<path d="M113.658 208.857L106.953 228.887C106.581 229.997 105.517 230.737 104.346 230.737H93.8635C92.7461 230.737 91.7883 230.102 91.3626 229.098L86.6801 218.317" stroke="#263238" stroke-miterlimit="10" stroke-linecap="round" stroke-linejoin="round"/>
<path d="M135.9 208.857L129.195 228.887C128.823 229.997 127.759 230.737 126.588 230.737H116.106C114.988 230.737 114.03 230.102 113.605 229.098L108.922 218.317" fill="#13A34C"/>
<path opacity="0.3" d="M131.111 208.857L126.535 228.887C126.269 229.997 125.577 230.737 124.779 230.737H117.595C116.85 230.737 116.159 230.102 115.893 229.098L111.423 218.529" fill="black"/>
<path d="M135.9 208.857L129.195 228.887C128.823 229.997 127.759 230.737 126.588 230.737H116.106C114.988 230.737 114.03 230.102 113.605 229.098L108.922 218.317" stroke="#263238" stroke-miterlimit="10" stroke-linecap="round" stroke-linejoin="round"/>
<path d="M99.9827 222.017C131.78 222.017 157.557 198.805 157.557 170.172C157.557 141.54 131.78 118.328 99.9827 118.328C68.1855 118.328 42.4088 141.54 42.4088 170.172C42.4088 198.805 68.1855 222.017 99.9827 222.017Z" fill="#13A34C"/>
<path opacity="0.3" d="M139.625 134.764C142.924 141.317 144.786 148.557 144.786 156.22C144.786 184.864 119.032 208.064 87.2122 208.064C74.7609 208.064 63.2142 204.523 53.8491 198.446C63.9059 211.817 80.8801 220.642 100.142 220.642C131.004 220.642 156.013 198.129 156.013 170.331C155.96 156.431 149.735 143.854 139.625 134.764Z" fill="black"/>
<path d="M99.9827 222.017C131.78 222.017 157.557 198.805 157.557 170.172C157.557 141.54 131.78 118.328 99.9827 118.328C68.1855 118.328 42.4088 141.54 42.4088 170.172C42.4088 198.805 68.1855 222.017 99.9827 222.017Z" stroke="#263238" stroke-miterlimit="10" stroke-linecap="round" stroke-linejoin="round"/>
<path d="M152.714 174.824C151.437 185.288 146.595 194.748 139.305 202.253" stroke="#13A34C" stroke-width="2" stroke-miterlimit="10" stroke-linecap="round" stroke-linejoin="round"/>
<path d="M151.757 158.758C152.608 162.193 153.034 165.787 153.034 169.433" stroke="#13A34C" stroke-width="2" stroke-miterlimit="10" stroke-linecap="round" stroke-linejoin="round"/>
<path d="M85.7223 121.605C90.3516 120.548 95.1938 119.967 100.196 119.967C103.388 119.967 106.474 120.178 109.507 120.654" stroke="#263238" stroke-width="4" stroke-miterlimit="10" stroke-linecap="round" stroke-linejoin="round"/>
<path d="M111.317 157.752C111.317 157.752 116.904 154 117.117 147.077C117.329 140.154 108.124 130.06 100.781 125.885C93.3846 121.709 88.0103 122.502 87.7975 125.515C87.5846 128.474 85.0305 131.856 84.0195 137.617C83.0085 143.377 82.636 151.886 90.4048 154.634" fill="#13A34C"/>
<path d="M111.317 157.752C111.317 157.752 116.904 154 117.117 147.077C117.329 140.154 108.124 130.06 100.781 125.885C93.3846 121.709 88.0103 122.502 87.7975 125.515C87.5846 128.474 85.0305 131.856 84.0195 137.617C83.0085 143.377 82.636 151.886 90.4048 154.634" stroke="#263238" stroke-miterlimit="10" stroke-linecap="round" stroke-linejoin="round"/>
<path opacity="0.3" d="M99.2909 155.533C99.6634 155.586 100.036 155.639 100.462 155.691C105.357 156.378 107.113 153.207 106.953 148.451C106.74 141.739 97.801 127.47 93.9699 125.462C90.1919 123.507 88.9681 126.255 88.9681 126.255C88.9681 126.255 89.5002 126.625 87.6378 132.755C86.7864 135.609 83.5938 145.492 86.7332 149.931C89.5002 153.842 94.768 154.899 99.2909 155.533Z" fill="black"/>
<path opacity="0.3" d="M115.148 148.715H115.095C114.828 148.663 114.616 148.398 114.616 148.134C114.669 147.711 114.722 147.341 114.722 146.919C114.828 143.219 111.795 137.934 106.794 133.02C106.581 132.808 106.581 132.491 106.794 132.28C107.007 132.068 107.326 132.068 107.539 132.28C112.806 137.459 115.893 142.955 115.786 146.971C115.786 147.394 115.733 147.87 115.68 148.293C115.627 148.504 115.414 148.715 115.148 148.715Z" fill="black"/>
<path opacity="0.3" d="M112.274 155.11C112.168 155.11 112.061 155.057 111.955 155.004C111.742 154.845 111.689 154.475 111.902 154.264C112.806 153.154 113.498 151.992 113.977 150.723C114.083 150.459 114.403 150.3 114.669 150.406C114.935 150.512 115.094 150.829 114.988 151.093C114.456 152.467 113.711 153.736 112.753 154.951C112.594 155.004 112.434 155.11 112.274 155.11Z" fill="black"/>
<path opacity="0.3" d="M73.5103 180.218C75.082 173.96 69.6063 167.214 61.2801 165.151C52.9538 163.089 44.93 166.491 43.3583 172.749C41.7866 179.008 47.2622 185.754 55.5885 187.817C63.9147 189.879 71.9386 186.477 73.5103 180.218Z" fill="black"/>
<path d="M72.789 179.08C74.3607 172.821 68.885 166.075 60.5588 164.013C52.2325 161.95 44.2086 165.352 42.6369 171.611C41.0652 177.87 46.5409 184.615 54.8672 186.678C63.1934 188.74 71.2173 185.339 72.789 179.08Z" fill="#13A34C" stroke="#263238" stroke-miterlimit="10" stroke-linecap="round" stroke-linejoin="round"/>
<path d="M52.9978 173.449C53.1042 174.875 52.5721 176.038 51.7739 176.091C51.029 176.144 50.284 175.034 50.2308 173.607C50.1244 172.18 50.6565 171.018 51.4547 170.965C52.1996 170.912 52.8913 172.022 52.9978 173.449Z" stroke="#263238" stroke-miterlimit="10" stroke-linecap="round" stroke-linejoin="round"/>
<path d="M63.5334 176.091C63.6398 177.518 63.1077 178.681 62.3096 178.734C61.5646 178.786 60.8197 177.677 60.7665 176.25C60.66 174.823 61.1921 173.66 61.9903 173.607C62.7353 173.554 63.427 174.664 63.5334 176.091Z" stroke="#263238" stroke-miterlimit="10" stroke-linecap="round" stroke-linejoin="round"/>
<path d="M80.9334 179.738C80.8269 180.742 80.5609 181.747 80.2416 182.698C77.2086 190.889 66.1408 194.43 55.1794 190.889" stroke="#263238" stroke-width="3" stroke-miterlimit="10" stroke-linecap="round" stroke-linejoin="round"/>
<path d="M79.1775 178.998H82.583" stroke="#263238" stroke-width="3" stroke-miterlimit="10" stroke-linecap="round" stroke-linejoin="round"/>
<path d="M57.5739 157.013C57.2014 158.546 56.2436 159.655 55.4455 159.444C54.6473 159.233 54.2748 157.859 54.6473 156.326C55.0198 154.793 55.9776 153.684 56.7757 153.895C57.6271 154.106 57.9464 155.48 57.5739 157.013Z" fill="#263238" stroke="#263238" stroke-miterlimit="10" stroke-linecap="round" stroke-linejoin="round"/>
<path d="M67.3863 159.175C67.7581 157.642 67.4111 156.245 66.6111 156.054C65.8111 155.862 64.8612 156.949 64.4894 158.481C64.1176 160.014 64.4647 161.411 65.2646 161.603C66.0646 161.794 67.0145 160.707 67.3863 159.175Z" fill="#263238" stroke="#263238" stroke-miterlimit="10" stroke-linecap="round" stroke-linejoin="round"/>
<path d="M82.0508 215.304L87.9039 229.098C88.3296 230.102 89.3406 230.789 90.4048 230.789H101.047C102.164 230.789 103.122 230.155 103.548 229.151L109.933 214.512H109.667" fill="#13A34C"/>
<path opacity="0.3" d="M94.4488 213.56C91.0965 213.56 87.1589 213.983 83.9663 213.243L89.447 229.044C89.8195 230.049 90.6176 230.736 91.5222 230.736H100.302C101.207 230.736 102.005 230.101 102.377 229.097L107.645 212.979L105.517 213.296C98.7589 213.983 98.9185 213.56 94.4488 213.56Z" fill="black"/>
<path d="M82.0508 215.304L87.9039 229.098C88.3296 230.102 89.3406 230.789 90.4048 230.789H101.047C102.164 230.789 103.122 230.155 103.548 229.151L109.933 214.512H109.667" stroke="#263238" stroke-miterlimit="10" stroke-linecap="round" stroke-linejoin="round"/>
<mask id="mask0" mask-type="alpha" maskUnits="userSpaceOnUse" x="-1" y="4" width="238" height="224">
<path d="M74.2861 18.1358C74.2861 18.1358 33.9561 38.5334 13.8443 69.9753C-6.26754 101.417 -4.67137 141.843 19.7501 171.858C44.1716 201.873 90.8863 197.91 129.993 216.933C169.099 235.957 212.249 232.047 230.711 191.727C249.174 151.46 221.347 136.4 216.505 89.7917C211.77 43.1836 169.471 -25.0903 74.2861 18.1358Z" fill="white"/>
</mask>
<g mask="url(#mask0)">
<path d="M188.093 0.486765L158.67 42.6031C158.67 42.6031 156.17 48.5744 153.031 52.9604C149.945 57.3993 141.219 61.7853 141.219 61.7853C141.219 61.7853 140.421 70.0289 137.92 72.9353C135.42 75.8417 129.993 74.0979 129.993 74.0979C129.993 74.0979 127.651 76.5815 125.151 77.7441C122.65 78.9066 114.882 74.6791 114.882 74.6791C114.882 74.6791 121.852 82.1829 122.81 84.6666C123.767 87.1502 125.523 89.264 122.437 91.5891C119.351 93.9142 115.84 90.6379 115.84 90.6379C115.84 90.6379 117.383 95.6581 112.913 96.6092C108.444 97.5604 103.602 87.9429 101.687 84.6666C99.7716 81.3903 94.1318 69.0777 93.1741 68.4965C92.2164 67.9152 90.833 64.8502 92.8016 61.9438C94.717 59.0374 108.497 40.595 110.04 39.274C111.583 37.9529 141.219 31.0304 141.219 31.0304L152.445 0.275391" fill="white"/>
<path opacity="0.2" d="M155.585 43.0251C155.585 43.0251 152.392 52.5369 148.934 54.3864C145.475 56.236 125.789 61.2561 118.074 60.1992C110.36 59.1424 106.103 56.236 106.103 56.236C106.103 56.236 101.847 61.7845 99.9844 63.6341C98.1222 65.4836 95.4619 66.2762 95.4619 66.2762C95.4619 66.2762 104.72 89.3689 111.37 96.5028C111.903 96.6613 112.435 96.6613 112.913 96.5556C117.383 95.6044 115.84 90.5843 115.84 90.5843C115.84 90.5843 119.298 93.8606 122.437 91.5355C125.523 89.2104 123.767 87.0966 122.81 84.613C121.852 82.1293 114.882 74.6255 114.882 74.6255C114.882 74.6255 122.65 78.853 125.151 77.6905C127.651 76.5279 129.993 74.0443 129.993 74.0443C129.993 74.0443 135.42 75.7881 137.92 72.8817C140.421 69.9753 141.219 61.7317 141.219 61.7317C141.219 61.7317 149.945 57.2928 153.031 52.9068C156.117 48.468 158.67 42.5495 158.67 42.5495L170.801 25.2168L155.585 43.0251Z" fill="black"/>
<path d="M188.093 0.486765L158.67 42.6031C158.67 42.6031 156.17 48.5744 153.031 52.9604C149.945 57.3993 141.219 61.7853 141.219 61.7853C141.219 61.7853 140.421 70.0289 137.92 72.9353C135.42 75.8417 129.993 74.0979 129.993 74.0979C129.993 74.0979 127.651 76.5815 125.151 77.7441C122.65 78.9066 114.882 74.6791 114.882 74.6791C114.882 74.6791 121.852 82.1829 122.81 84.6666C123.767 87.1502 125.523 89.264 122.437 91.5891C119.351 93.9142 115.84 90.6379 115.84 90.6379C115.84 90.6379 117.383 95.658 112.913 96.6092C108.444 97.5604 103.602 87.9429 101.687 84.6666C99.7716 81.3903 94.1318 69.0777 93.1741 68.4965C92.2164 67.9152 90.833 64.8502 92.8016 61.9438C94.717 59.0374 108.497 40.595 110.04 39.274C111.583 37.9529 141.219 31.0304 141.219 31.0304L152.445 0.275391" stroke="#263238" stroke-miterlimit="10" stroke-linecap="round" stroke-linejoin="round"/>
<path d="M87.4285 112.78L88.1733 115.634L100.198 112.78L111.424 83.558L104.029 81.0215L87.4285 112.78Z" fill="white" stroke="#263238" stroke-miterlimit="10" stroke-linecap="round" stroke-linejoin="round"/>
<path d="M91.099 73.9395L107.752 80.0693L99.612 116.584L80.0322 110.666L91.099 73.9395Z" fill="white" stroke="#263238" stroke-miterlimit="10" stroke-linecap="round" stroke-linejoin="round"/>
<path d="M80.724 108.446L98.0691 113.519L105.624 81.0198L90.4075 76.1582L80.724 108.446Z" fill="#13A34C" stroke="#263238" stroke-miterlimit="10" stroke-linecap="round" stroke-linejoin="round"/>
<path d="M90.3542 84.2435C89.6093 84.0321 88.8112 84.0321 88.0131 84.1378L83.4906 99.1982C84.1291 99.8323 84.9272 100.308 85.8317 100.519C89.3964 101.47 93.2805 98.6169 94.5042 94.1252C95.7811 89.6335 93.8657 85.1947 90.3542 84.2435Z" fill="white" stroke="#263238" stroke-miterlimit="10" stroke-linecap="round" stroke-linejoin="round"/>
<path d="M89.6625 86.7271C89.6093 86.6743 89.6093 86.6214 89.6093 86.6214L89.8221 85.8287C89.8754 85.6702 89.7689 85.5645 89.6093 85.5117L88.758 85.3003C88.5984 85.2475 88.492 85.3003 88.4388 85.5117L88.2792 86.3043C88.2792 86.3572 88.226 86.41 88.1728 86.41C87.8535 86.3572 87.5875 86.41 87.3215 86.41L85.7785 91.5887C87.0022 92.857 88.8644 93.4382 88.5984 94.4951C88.4388 95.0764 87.9067 95.552 86.949 95.3406C85.9381 95.0764 85.6189 94.3366 85.7785 93.5968L85.8317 93.3854C85.8849 93.2797 85.7785 93.174 85.6189 93.1212L85.2996 93.0683L84.3951 96.1333C84.7144 96.4503 85.14 96.7145 85.6721 96.8731C85.7253 96.9259 85.7253 96.9788 85.7253 96.9788L85.5125 97.6657C85.4593 97.8243 85.5657 97.9299 85.7253 97.9828L86.5766 98.1942C86.7362 98.247 86.8426 98.1942 86.8958 97.9828L87.0554 97.2958C87.0554 97.243 87.1086 97.1901 87.1618 97.1901C89.0241 97.4015 90.301 96.4503 90.6734 94.865C90.9927 93.5439 90.567 92.4342 89.1837 91.4302C87.9067 90.479 86.6298 90.0034 86.8426 89.0522C87.0022 88.3652 87.5875 88.101 88.4388 88.2596C89.5029 88.5238 89.7689 89.3164 89.5561 90.1091L89.5029 90.2676C89.5029 90.3733 89.5561 90.4261 89.7157 90.479L91.2587 90.8489C91.4183 90.9017 91.5247 90.7961 91.5779 90.6375L91.6844 90.1619C92.1632 88.6295 91.4183 87.3084 89.6625 86.7271Z" fill="#263238"/>
<path d="M104.826 54.705C104.826 54.705 107.167 58.1398 107.54 61.2576C107.912 64.3225 106.954 67.0176 105.784 68.7614C104.613 70.5052 103.443 72.0377 102.485 74.7327C101.527 77.4277 101.315 81.2853 99.9844 83.1877C98.6542 85.0901 97.8561 87.0453 99.7716 88.7891C101.687 90.533 106.742 90.3216 109.455 85.3543C112.169 80.3341 113.924 74.9969 115.627 73.0417C117.383 71.1394 122.969 66.7005 122.969 66.7005C122.969 66.7005 138.239 64.5868 141.166 61.8917C144.092 59.1967 146.593 51.9043 146.593 51.9043" fill="white"/>
<path opacity="0.2" d="M145.475 54.3887C145.475 54.3887 137.228 59.673 130.844 61.2583C124.459 62.8436 120.469 62.8436 118.074 66.0143C115.68 69.1849 113.286 79.2251 110.093 81.0747C106.901 82.9242 106.369 76.3188 101.847 77.6398C101.793 77.6398 101.74 77.6927 101.687 77.6927C101.261 79.7536 100.836 81.8673 99.9844 83.1356C98.6542 85.0379 97.8562 86.9932 99.7716 88.737C101.687 90.4808 106.742 90.2695 109.455 85.3022C112.169 80.282 113.924 74.9448 115.627 72.9896C117.383 71.0872 122.969 66.6484 122.969 66.6484C122.969 66.6484 138.239 64.5346 141.166 61.8396C142.921 60.2015 144.518 56.9252 145.529 54.5472L145.475 54.3887Z" fill="black"/>
<path d="M104.826 54.705C104.826 54.705 107.167 58.1398 107.54 61.2576C107.912 64.3225 106.954 67.0176 105.784 68.7614C104.613 70.5052 103.443 72.0377 102.485 74.7327C101.527 77.4277 101.315 81.2853 99.9844 83.1877C98.6542 85.0901 97.8561 87.0453 99.7716 88.7891C101.687 90.533 106.742 90.3216 109.455 85.3543C112.169 80.3341 113.924 74.9969 115.627 73.0417C117.383 71.1394 122.969 66.7005 122.969 66.7005C122.969 66.7005 138.239 64.5868 141.166 61.8917C144.092 59.1967 146.593 51.9043 146.593 51.9043" stroke="#263238" stroke-miterlimit="10" stroke-linecap="round" stroke-linejoin="round"/>
<path d="M98.8138 64.3211C98.8138 64.3211 103.869 67.0164 107.54 63.9512" stroke="#263238" stroke-miterlimit="10" stroke-linecap="round" stroke-linejoin="round"/>
<path d="M115.84 90.6393L111.424 82.1836" stroke="#263238" stroke-miterlimit="10" stroke-linecap="round" stroke-linejoin="round"/>
<path d="M129.993 74.0981C129.993 74.0981 133.451 71.1914 133.292 64.8496" stroke="#263238" stroke-miterlimit="10" stroke-linecap="round" stroke-linejoin="round"/>
</g>
<path d="M24.1576 230.736H234.872" stroke="#263238" stroke-miterlimit="10" stroke-linecap="round" stroke-linejoin="round"/>
<path d="M5.53394 230.736H15.1118" stroke="#263238" stroke-miterlimit="10" stroke-linecap="round" stroke-linejoin="round"/>
</g>
<defs>
<clipPath id="clip0">
<rect width="237" height="231" fill="white"/>
</clipPath>
</defs>
</svg>
