<svg width="303" height="275" viewBox="0 0 303 275" fill="none" xmlns="http://www.w3.org/2000/svg">
<g clip-path="url(#clip0)">
<path d="M99.0729 21.5806C99.0729 21.5806 51.2511 45.8657 27.4033 83.2999C3.55556 120.734 5.44824 168.864 34.4063 204.599C63.3643 240.335 118.757 235.616 165.127 258.266C211.498 280.915 262.664 276.259 284.556 228.255C306.448 180.314 273.452 162.384 267.711 106.893C262.096 51.4022 211.94 -29.8836 99.0729 21.5806Z" fill="#13A34C"/>
<path opacity="0.7" d="M99.0729 21.5806C99.0729 21.5806 51.2511 45.8657 27.4033 83.2999C3.55556 120.734 5.44824 168.864 34.4063 204.599C63.3643 240.335 118.757 235.616 165.127 258.266C211.498 280.915 262.664 276.259 284.556 228.255C306.448 180.314 273.452 162.384 267.711 106.893C262.096 51.4022 211.94 -29.8836 99.0729 21.5806Z" fill="white"/>
</g>
<path d="M0 116.91L267.106 155.353L302.97 191.569L0 116.91Z" fill="#13A34C"/>
<path opacity="0.6" d="M0 116.91L267.106 155.353L302.97 191.569L0 116.91Z" fill="white"/>
<path d="M0 116.91L267.106 155.353L254.683 207.625L0 116.91Z" fill="#0D7235"/>
<path opacity="0.2" d="M0 116.91L267.106 155.353L254.683 207.625L0 116.91Z" fill="black"/>
<path d="M249.291 56.3161L264.762 128.982C265.583 132.967 263.121 136.835 259.136 137.655L120.719 167.19C116.734 168.011 112.867 165.55 112.046 161.565L96.5755 88.8986C96.1067 86.789 96.5755 84.7965 97.7476 83.1557C98.8024 81.7493 100.326 80.5772 102.201 80.2256L240.618 50.6904C242.494 50.3388 244.369 50.6904 245.892 51.628C247.533 52.5656 248.823 54.2065 249.291 56.3161Z" fill="#0D7235"/>
<path opacity="0.4" d="M249.291 56.3161L264.762 128.982C265.583 132.967 263.121 136.835 259.136 137.655L120.719 167.19C116.734 168.011 112.867 165.55 112.046 161.565L96.5755 88.8986C96.1067 86.789 96.5755 84.7965 97.7476 83.1557C98.8024 81.7493 100.326 80.5772 102.201 80.2256L240.618 50.6904C242.494 50.3388 244.369 50.6904 245.892 51.628C247.533 52.5656 248.823 54.2065 249.291 56.3161Z" fill="#13A34C"/>
<path d="M245.893 51.5108L199.597 108.237C190.807 119.02 175.571 122.302 163.147 115.973L97.7477 83.0385C98.8026 81.6321 100.326 80.46 102.201 80.1084L240.619 50.5732C242.494 50.2216 244.369 50.5732 245.893 51.5108Z" fill="#13A34C"/>
<path d="M0 116.91L220.342 169.183L254.683 207.625L0 116.91Z" fill="#13A34C"/>
<path opacity="0.6" d="M0 116.91L220.342 169.183L254.683 207.625L0 116.91Z" fill="white"/>
<path d="M80.3848 167.338L79.7924 168.35L104.264 182.687L104.857 181.676L80.3848 167.338Z" fill="#0D7235"/>
<path d="M115.689 188.106L115.096 189.117L123.895 194.272L124.487 193.261L115.689 188.106Z" fill="#0D7235"/>
<path d="M0 116.91L220.342 169.183L177.446 220.869L0 116.91Z" fill="#13A34C"/>
<path d="M294.766 239.621C294.532 239.621 294.18 239.621 293.946 239.504L257.964 225.205C256.792 224.737 256.206 223.33 256.675 222.158C257.144 220.986 258.55 220.4 259.722 220.869L295.587 235.05C296.759 235.519 297.345 236.926 296.876 238.098C296.524 239.035 295.704 239.621 294.766 239.621Z" fill="#0D7235"/>
<path opacity="0.3" d="M294.766 239.621C294.532 239.621 294.18 239.621 293.946 239.504L257.964 225.205C256.792 224.737 256.206 223.33 256.675 222.158C257.144 220.986 258.55 220.4 259.722 220.869L295.587 235.05C296.759 235.519 297.345 236.926 296.876 238.098C296.524 239.035 295.704 239.621 294.766 239.621Z" fill="#0D7235"/>
<path d="M292.657 218.994C292.422 218.994 292.07 218.994 291.836 218.876L272.498 211.258C271.325 210.789 270.739 209.383 271.208 208.211C271.677 207.039 273.084 206.453 274.256 206.922L293.594 214.54C294.766 215.009 295.352 216.415 294.883 217.587C294.415 218.408 293.594 218.994 292.657 218.994Z" fill="#0D7235"/>
<path opacity="0.5" d="M292.657 218.994C292.422 218.994 292.07 218.994 291.836 218.876L272.498 211.258C271.325 210.789 270.739 209.383 271.208 208.211C271.677 207.039 273.084 206.453 274.256 206.922L293.594 214.54C294.766 215.009 295.352 216.415 294.883 217.587C294.415 218.408 293.594 218.994 292.657 218.994Z" fill="#0D7235"/>
<path d="M252.339 239.27C252.104 239.27 251.753 239.27 251.518 239.153L216.474 225.205C215.302 224.737 214.716 223.33 215.185 222.158C215.654 220.986 217.06 220.4 218.232 220.869L253.276 234.699C254.448 235.168 255.034 236.574 254.565 237.746C254.097 238.684 253.276 239.27 252.339 239.27Z" fill="#0D7235"/>
<path opacity="0.3" d="M252.339 239.27C252.104 239.27 251.753 239.27 251.518 239.153L216.474 225.205C215.302 224.737 214.716 223.33 215.185 222.158C215.654 220.986 217.06 220.4 218.232 220.869L253.276 234.699C254.448 235.168 255.034 236.574 254.565 237.746C254.097 238.684 253.276 239.27 252.339 239.27Z" fill="black"/>
<defs>
<clipPath id="clip0">
<rect width="281" height="275" fill="white" transform="translate(11)"/>
</clipPath>
</defs>
</svg>
