<svg width="1312" height="1624" viewBox="0 0 1312 1624" fill="none" xmlns="http://www.w3.org/2000/svg">
<g clip-path="url(#clip0)">
<path d="M663.476 330.715L949.683 336.416L866.593 147.589L763.93 42.8474L628.856 9.86035C628.856 9.86035 500.626 76.4708 421.079 231.833C290.665 486.528 224.7 920.716 577.644 1253.77L748.67 1271.88L879.456 1144.31L944.623 972.106L660.307 967.439L663.476 330.715Z" fill="#36B02D"/>
<path d="M952.052 340.718H1227.77C1227.77 340.718 1004.7 -11.1878 680.093 17.53C355.485 46.2478 161.529 236.241 110.157 354.772C58.7856 473.303 -24.1175 717.762 123.766 978.556C271.649 1239.35 666.138 1274.83 666.138 1274.83C666.138 1274.83 1058.34 1271.89 1213.41 960.206H957.751L879.428 1144.31L694.581 1283.77L542.303 1221.05C542.303 1221.05 294.179 1005.82 334.153 575.95C356.843 331.755 509.254 21.2423 680.093 17.5035C850.933 13.7646 952.052 340.718 952.052 340.718Z" fill="white"/>
<path d="M1231.6 350.682C1231.6 350.682 1410.8 613.968 1234.1 943.414L660.279 943.573C660.279 943.573 703.555 638.072 666.75 355.057L1231.6 350.682Z" fill="#FFD500"/>
<path d="M684.833 941.878V666.368H905.127L905.074 648.018L905.127 629.668H684.833V359.461H929.574L933.01 359.753L921.425 322.762H647.975L648.028 336.02H647.975V359.408V359.461V629.668V629.748V666.288V666.368V941.878V941.931V978.498V978.551H923.289L929.175 959.114L935.273 941.878H684.833Z" fill="#282828"/>
<path d="M940.281 941.885C886.752 1127.77 784.062 1253.78 666.405 1253.78C493.675 1253.78 353.168 982.243 353.168 648.343C353.168 314.442 493.675 42.882 666.405 42.882C783.929 42.882 886.539 168.625 940.121 354.164L1231.6 350.69C1149.52 152.291 877.564 2.33763 676.418 3.42482C584.807 3.92864 432.689 24.5058 297.935 112.993C145.897 212.829 15.5102 394.682 10.6367 648.316C8.34641 767.244 43.8193 868.512 89.2788 953.393C161.609 1088.5 271.65 1181.73 389.413 1235.43C492.769 1282.57 602.517 1294.08 670.133 1294.08C727.604 1294.08 837.644 1277.51 935.194 1232.32C1017.19 1194.33 1090.16 1133.79 1148.88 1068.24C1184.86 1028.06 1221.37 988.687 1234.1 943.449L940.281 941.885Z" fill="#282828"/>
<path d="M659.694 15.9101C745.526 15.9101 828.776 32.6423 907.152 65.6559C982.838 97.5292 1050.83 143.191 1109.23 201.316C1167.61 259.441 1213.46 327.139 1245.48 402.527C1278.63 480.566 1295.44 563.458 1295.44 648.922C1295.44 734.386 1278.63 817.278 1245.48 895.317C1213.46 970.678 1167.61 1038.38 1109.23 1096.53C1050.85 1154.65 982.864 1200.31 907.152 1232.19C828.776 1265.2 745.526 1281.93 659.694 1281.93C573.861 1281.93 490.612 1265.2 412.236 1232.19C336.55 1200.31 268.56 1154.65 210.158 1096.53C151.782 1038.4 105.923 970.704 73.9124 895.317C40.7831 817.251 23.9788 734.359 23.9788 648.895C23.9788 563.431 40.7831 480.539 73.939 402.5C105.95 327.139 151.809 259.441 210.185 201.29C268.56 143.165 336.55 97.5027 412.263 65.6293C490.612 32.6423 573.861 15.9101 659.694 15.9101ZM659.694 0C299.772 0 8 290.519 8 648.895C8 1007.27 299.772 1297.79 659.694 1297.79C1019.62 1297.79 1311.39 1007.27 1311.39 648.895C1311.39 290.519 1019.62 0 659.694 0Z" fill="white"/>
<path d="M399.586 343.367H83.1538V359.277H399.586V343.367Z" fill="white"/>
<path d="M1233.07 343.367H935.275V359.277H1233.07V343.367Z" fill="white"/>
<path d="M1233.07 942.016H935.275V957.926H1233.07V942.016Z" fill="white"/>
<path d="M1237.8 947.186H933.489L935.274 941.883H1237.8V947.186Z" fill="white"/>
<path d="M396.923 936.582H83.1538V952.492H396.923V936.582Z" fill="white"/>
<path d="M356.362 640.357H10.6353V656.268H356.362V640.357Z" fill="white"/>
<path d="M666.75 1263.63C580.385 1263.63 499.613 1199.12 439.346 1081.97C379.932 966.51 347.229 813.163 347.229 650.19C347.229 487.217 379.958 333.87 439.346 218.415C499.613 101.264 580.385 36.748 666.75 36.748C753.116 36.748 833.862 101.264 894.155 218.415C953.569 333.87 986.272 487.217 986.272 650.19C986.272 813.163 953.543 966.51 894.155 1081.97C833.888 1199.12 753.116 1263.63 666.75 1263.63ZM666.75 52.6317C499.373 52.6317 363.207 320.691 363.207 650.19C363.207 979.689 499.373 1247.75 666.75 1247.75C834.128 1247.75 970.294 979.663 970.294 650.19C970.294 320.718 834.128 52.6317 666.75 52.6317Z" fill="white"/>
<path d="M899.481 360.05L1224.73 359.387V941.884H884.461L960.893 625.219L899.481 360.05Z" fill="#FFD500"/>
</g>
<path d="M97.0538 1582.78C71.6138 1582.78 50.5738 1574.38 33.9338 1557.58C17.4538 1540.78 9.21375 1520.14 9.21375 1495.66C9.21375 1471.18 17.4538 1450.54 33.9338 1433.74C50.5738 1416.94 71.6138 1408.54 97.0538 1408.54C112.414 1408.54 126.494 1412.22 139.294 1419.58C152.254 1426.94 162.334 1436.86 169.534 1449.34L150.094 1460.62C145.294 1451.34 138.094 1443.98 128.494 1438.54C119.054 1432.94 108.574 1430.14 97.0538 1430.14C77.6938 1430.14 61.8538 1436.38 49.5338 1448.86C37.3738 1461.34 31.2938 1476.94 31.2938 1495.66C31.2938 1514.22 37.3738 1529.74 49.5338 1542.22C61.8538 1554.7 77.6938 1560.94 97.0538 1560.94C108.574 1560.94 119.054 1558.22 128.494 1552.78C138.094 1547.18 145.294 1539.82 150.094 1530.7L169.534 1541.74C162.494 1554.22 152.494 1564.22 139.534 1571.74C126.574 1579.1 112.414 1582.78 97.0538 1582.78ZM293.464 1564.54C281.144 1576.7 266.184 1582.78 248.584 1582.78C230.984 1582.78 216.024 1576.7 203.704 1564.54C191.544 1552.38 185.464 1537.42 185.464 1519.66C185.464 1501.9 191.544 1486.94 203.704 1474.78C216.024 1462.62 230.984 1456.54 248.584 1456.54C266.184 1456.54 281.144 1462.62 293.464 1474.78C305.784 1486.94 311.944 1501.9 311.944 1519.66C311.944 1537.42 305.784 1552.38 293.464 1564.54ZM248.584 1562.38C260.584 1562.38 270.664 1558.3 278.824 1550.14C286.984 1541.98 291.064 1531.82 291.064 1519.66C291.064 1507.5 286.984 1497.34 278.824 1489.18C270.664 1481.02 260.584 1476.94 248.584 1476.94C236.744 1476.94 226.744 1481.02 218.584 1489.18C210.424 1497.34 206.344 1507.5 206.344 1519.66C206.344 1531.82 210.424 1541.98 218.584 1550.14C226.744 1558.3 236.744 1562.38 248.584 1562.38ZM396.319 1456.54C410.399 1456.54 421.679 1461.02 430.159 1469.98C438.639 1478.78 442.879 1490.78 442.879 1505.98V1579.66H421.999V1507.18C421.999 1497.42 419.359 1489.9 414.079 1484.62C408.799 1479.18 401.519 1476.46 392.239 1476.46C381.839 1476.46 373.439 1479.74 367.039 1486.3C360.639 1492.7 357.439 1502.62 357.439 1516.06V1579.66H336.559V1459.66H357.439V1476.94C365.919 1463.34 378.879 1456.54 396.319 1456.54ZM531.788 1456.54C545.868 1456.54 557.148 1461.02 565.628 1469.98C574.108 1478.78 578.348 1490.78 578.348 1505.98V1579.66H557.468V1507.18C557.468 1497.42 554.828 1489.9 549.548 1484.62C544.268 1479.18 536.988 1476.46 527.708 1476.46C517.308 1476.46 508.908 1479.74 502.508 1486.3C496.108 1492.7 492.908 1502.62 492.908 1516.06V1579.66H472.027V1459.66H492.908V1476.94C501.388 1463.34 514.348 1456.54 531.788 1456.54ZM631.976 1558.54H709.976V1579.66H609.656V1411.66H708.776V1432.78H631.976V1484.38H702.776V1505.26H631.976V1558.54ZM818.762 1459.66H841.322L793.322 1579.66H768.842L720.842 1459.66H743.402L781.082 1557.34L818.762 1459.66ZM868.933 1529.26C871.013 1539.98 875.893 1548.3 883.573 1554.22C891.413 1560.14 901.013 1563.1 912.373 1563.1C928.213 1563.1 939.733 1557.26 946.933 1545.58L964.693 1555.66C953.013 1573.74 935.413 1582.78 911.893 1582.78C892.853 1582.78 877.333 1576.86 865.333 1565.02C853.493 1553.02 847.573 1537.9 847.573 1519.66C847.573 1501.58 853.413 1486.54 865.093 1474.54C876.773 1462.54 891.893 1456.54 910.453 1456.54C928.053 1456.54 942.373 1462.78 953.413 1475.26C964.613 1487.58 970.213 1502.46 970.213 1519.9C970.213 1522.94 969.973 1526.06 969.493 1529.26H868.933ZM910.453 1476.22C899.253 1476.22 889.973 1479.42 882.613 1485.82C875.253 1492.06 870.693 1500.46 868.933 1511.02H949.093C947.333 1499.66 942.853 1491.02 935.653 1485.1C928.453 1479.18 920.053 1476.22 910.453 1476.22ZM1053.98 1456.54C1068.06 1456.54 1079.34 1461.02 1087.82 1469.98C1096.3 1478.78 1100.54 1490.78 1100.54 1505.98V1579.66H1079.66V1507.18C1079.66 1497.42 1077.02 1489.9 1071.74 1484.62C1066.46 1479.18 1059.18 1476.46 1049.9 1476.46C1039.5 1476.46 1031.1 1479.74 1024.7 1486.3C1018.3 1492.7 1015.1 1502.62 1015.1 1516.06V1579.66H994.215V1459.66H1015.1V1476.94C1023.58 1463.34 1036.54 1456.54 1053.98 1456.54ZM1194.96 1479.82H1163.04V1544.86C1163.04 1550.78 1164.16 1555.02 1166.4 1557.58C1168.8 1559.98 1172.4 1561.26 1177.2 1561.42C1182 1561.42 1187.92 1561.26 1194.96 1560.94V1579.66C1176.72 1582.06 1163.36 1580.62 1154.88 1575.34C1146.4 1569.9 1142.16 1559.74 1142.16 1544.86V1479.82H1118.4V1459.66H1142.16V1432.3L1163.04 1426.06V1459.66H1194.96V1479.82ZM1231.82 1492.06C1231.82 1496.7 1234.14 1500.46 1238.78 1503.34C1243.42 1506.06 1249.02 1508.3 1255.58 1510.06C1262.14 1511.66 1268.7 1513.58 1275.26 1515.82C1281.82 1517.9 1287.42 1521.58 1292.06 1526.86C1296.7 1531.98 1299.02 1538.62 1299.02 1546.78C1299.02 1557.66 1294.78 1566.38 1286.3 1572.94C1277.98 1579.5 1267.26 1582.78 1254.14 1582.78C1242.46 1582.78 1232.46 1580.22 1224.14 1575.1C1215.82 1569.98 1209.9 1563.18 1206.38 1554.7L1224.38 1544.38C1226.3 1550.14 1229.9 1554.7 1235.18 1558.06C1240.46 1561.42 1246.78 1563.1 1254.14 1563.1C1261.02 1563.1 1266.7 1561.82 1271.18 1559.26C1275.66 1556.54 1277.9 1552.38 1277.9 1546.78C1277.9 1542.14 1275.58 1538.46 1270.94 1535.74C1266.3 1532.86 1260.7 1530.62 1254.14 1529.02C1247.58 1527.26 1241.02 1525.26 1234.46 1523.02C1227.9 1520.78 1222.3 1517.1 1217.66 1511.98C1213.02 1506.86 1210.7 1500.3 1210.7 1492.3C1210.7 1481.9 1214.7 1473.34 1222.7 1466.62C1230.86 1459.9 1241.02 1456.54 1253.18 1456.54C1262.94 1456.54 1271.58 1458.78 1279.1 1463.26C1286.78 1467.58 1292.54 1473.66 1296.38 1481.5L1278.86 1491.34C1274.54 1481.1 1265.98 1475.98 1253.18 1475.98C1247.26 1475.98 1242.22 1477.42 1238.06 1480.3C1233.9 1483.02 1231.82 1486.94 1231.82 1492.06Z" fill="#DADADA"/>
<defs>
<clipPath id="clip0">
<rect width="1304" height="1297.79" fill="white" transform="translate(8)"/>
</clipPath>
</defs>
</svg>
