<svg xmlns="http://www.w3.org/2000/svg" width="61.061" height="75" viewBox="0 0 61.061 75">
  <path id="apple" d="M110.468,39.822c-.094-9.495,7.744-14.051,8.094-14.276a17.511,17.511,0,0,0-13.714-7.429c-5.841-.59-11.395,3.441-14.362,3.441s-7.532-3.352-12.375-3.263A18.357,18.357,0,0,0,62.6,27.7C55.983,39.17,60.9,56.176,67.35,65.48c3.149,4.556,6.9,9.674,11.835,9.492,4.747-.187,6.544-3.075,12.286-3.075s7.353,3.075,12.379,2.977c5.11-.094,8.347-4.645,11.475-9.216a41.343,41.343,0,0,0,5.193-10.663,16.56,16.56,0,0,1-10.063-15.168l.014,0Zm-9.439-27.87a16.523,16.523,0,0,0,3.9-11.976A16.814,16.814,0,0,0,93.885,5.657c-2.429,2.814-4.551,7.3-3.983,11.605,4.209.328,8.506-2.138,11.123-5.3l0-.006Z" transform="translate(-59.457 0.024)" fill="#fff" fill-rule="evenodd"/>
</svg>
