<svg width="325" height="295" viewBox="0 0 325 295" fill="none" xmlns="http://www.w3.org/2000/svg">
<g clip-path="url(#clip0_3693_1190)">
<path d="M281.305 249.958H42.8978V209.579H46.5756V179.525C46.5836 172.444 49.4067 165.655 54.4256 160.648C59.4446 155.641 66.2494 152.824 73.3472 152.816H251.288C258.386 152.824 265.191 155.641 270.209 160.648C275.228 165.655 278.052 172.444 278.06 179.525V209.579H281.305V249.958Z" fill="#E4E4E4"/>
<path d="M287.764 294.401H275.896V294.185C275.884 283.714 271.71 273.674 264.287 266.27C256.865 258.865 246.802 254.7 236.306 254.689H87.8966C77.4002 254.7 67.3371 258.865 59.9151 266.27C52.493 273.674 48.3181 283.714 48.3063 294.185V294.401H36.4382C33.7343 294.398 31.142 293.325 29.23 291.418C27.3181 289.51 26.2426 286.924 26.2396 284.227V218.221C22.7933 216.279 19.9902 205.729 21.8109 197.304C22.9535 192.016 26.252 185.631 35.4774 185.235C44.458 184.85 51.1238 193.261 51.7192 201.358C52.0419 205.619 50.7876 209.849 48.1937 213.25H48.3062V222.666C67.7806 216.44 87.2825 213.272 106.274 213.25C125.709 213.268 145.008 216.473 163.401 222.734C201.643 210.395 239.489 210.155 275.896 222.023V213.25H276.009C273.415 209.849 272.161 205.619 272.483 201.358C273.136 192.477 280.418 185.245 288.716 185.235H288.743C298.528 185.235 301.988 191.112 303.169 196.044C305.258 204.773 301.423 216.263 297.963 218.221V284.227C297.96 286.924 296.884 289.51 294.973 291.418C293.061 293.325 290.468 294.398 287.764 294.401Z" fill="#CACACA"/>
<path d="M221.458 276.739L227.187 280.821L245.698 260.72L237.243 254.695L221.458 276.739Z" fill="#FFB6B6"/>
<path d="M221.333 273.83L222.946 274.979L231.07 276.912L232.615 281.87L232.616 281.87C234.522 283.229 235.81 285.288 236.195 287.594C236.58 289.9 236.031 292.264 234.669 294.167L234.502 294.4L216.031 281.236L221.333 273.83Z" fill="#13A34C"/>
<path d="M260.278 222.922H218.215C214.292 222.92 210.531 221.364 207.758 218.596C204.985 215.828 203.428 212.075 203.428 208.162C203.428 204.249 204.985 200.496 207.758 197.728C210.531 194.96 214.292 193.404 218.215 193.402H260.278C264.202 193.402 267.965 194.957 270.74 197.725C273.514 200.493 275.073 204.248 275.073 208.162C275.073 212.077 273.514 215.831 270.74 218.599C267.965 221.367 264.202 222.922 260.278 222.922Z" fill="#2F2E41"/>
<path d="M239.641 119.857L246.426 125.012L254.608 127.52C254.608 127.52 257.991 174.99 261.039 178.031C264.087 181.071 261.338 181.153 261.95 185.103C262.563 189.054 264.051 197.151 264.051 197.151C243.477 208.016 225.74 208.307 211.493 195.593C211.311 194.807 211.403 193.982 211.755 193.255C212.108 192.528 212.698 191.944 213.429 191.597C216.081 190.194 210.985 183.642 213.152 182.547C215.319 181.452 212.271 171.949 212.271 171.949L214.27 152.123L212.691 148.954L216.546 129.562L223.235 127.125L225.907 120.702L239.641 119.857Z" fill="#F3960B"/>
<path d="M243.891 75.5375C243.861 76.3948 244.019 77.2483 244.355 78.0379C244.691 78.8275 245.196 79.534 245.836 80.1076C246.475 80.6813 247.233 81.1081 248.055 81.3581C248.878 81.608 249.745 81.675 250.597 81.5543L260.158 100.096L265.486 90.6532L255.589 74.4934C255.291 73.0801 254.483 71.825 253.32 70.9659C252.156 70.1068 250.717 69.7034 249.275 69.8321C247.833 69.9608 246.489 70.6126 245.496 71.6642C244.504 72.7157 243.933 74.0939 243.891 75.5375H243.891Z" fill="#FFB6B6"/>
<path d="M259.994 80.0742L280.503 111.786L280.435 111.931C280.358 112.099 275.714 122.105 271.214 131.271C270.521 132.682 269.831 134.074 269.162 135.406C268.874 135.981 268.589 136.544 268.309 137.095C266.419 140.813 264.768 143.885 263.782 145.345C261.602 148.644 258.356 151.101 254.583 152.307L254.488 152.331L254.397 152.293C252.552 151.516 251.027 150.135 250.074 148.378C249.121 146.62 248.797 144.591 249.154 142.625C250.933 133.142 254.897 124.201 260.733 116.508L264.058 112.136L252.504 87.0754L259.994 80.0742Z" fill="#FFD500"/>
<path d="M224.561 71.6527C224.591 72.51 224.433 73.3635 224.097 74.1531C223.761 74.9427 223.255 75.6492 222.616 76.2229C221.977 76.7965 221.219 77.2234 220.397 77.4733C219.574 77.7232 218.707 77.7902 217.855 77.6695L208.293 96.2112L202.966 86.7685L212.863 70.6086C213.161 69.1954 213.968 67.9403 215.132 67.0812C216.296 66.222 217.735 65.8186 219.177 65.9473C220.618 66.076 221.963 66.7279 222.955 67.7794C223.948 68.831 224.519 70.2091 224.561 71.6527H224.561Z" fill="#FFB6B6"/>
<path d="M208.458 76.1895L187.949 107.901L188.016 108.047C188.094 108.214 192.738 118.22 197.238 127.386C197.931 128.797 198.621 130.189 199.29 131.521C199.578 132.097 199.863 132.66 200.143 133.211C202.033 136.928 203.684 140 204.67 141.46C206.85 144.76 210.096 147.216 213.869 148.422L213.964 148.446L214.054 148.409C215.9 147.632 217.425 146.251 218.378 144.493C219.331 142.736 219.655 140.706 219.297 138.74C217.518 129.257 213.554 120.316 207.718 112.623L204.394 108.251L215.948 83.1906L208.458 76.1895Z" fill="#FFD500"/>
<path d="M232.695 116.988C240.107 116.988 246.116 110.994 246.116 103.6C246.116 96.2053 240.107 90.2109 232.695 90.2109C225.283 90.2109 219.275 96.2053 219.275 103.6C219.275 110.994 225.283 116.988 232.695 116.988Z" fill="#FFB6B6"/>
<path d="M221.764 92.0981C222.868 88.8949 228.362 86.6731 237.268 86.3641C246.175 86.0552 248.434 96.5267 248.434 96.5267C254.38 101.339 242.085 114.222 241.49 113.758L241.758 111.337C242.201 107.328 244.082 104.2 241.689 100.022L239.391 100.048L235.032 100.884C234.761 100.936 234.479 100.898 234.232 100.775C233.984 100.651 233.784 100.45 233.662 100.203C233.54 99.9548 233.504 99.6739 233.558 99.4032C233.612 99.1324 233.753 98.887 233.961 98.7046L234.001 98.6695L233.902 98.5166C232.366 99.2194 230.784 99.871 229.105 99.9695C227.217 100.08 225.152 99.3304 224.248 97.6727C224.006 97.2171 223.859 96.7178 223.814 96.2043C221.267 97.2194 220.102 100.352 220.102 100.352C220.102 100.352 220.66 95.3014 221.764 92.0981Z" fill="#2F2E41"/>
<path d="M258.01 271.042L252.637 275.58L232.533 257.066L240.462 250.367L258.01 271.042Z" fill="#FFB6B6"/>
<path d="M263.79 275.08L246.466 289.715L246.28 289.496C244.766 287.712 244.024 285.401 244.218 283.071C244.412 280.742 245.525 278.584 247.313 277.073L247.314 277.073L248.445 272.005L256.382 269.412L257.895 268.135L263.79 275.08Z" fill="#13A34C"/>
<path d="M224.805 219.848L229.246 210.24C229.196 201.477 221.843 194.359 213.076 194.909C208.194 195.215 203.622 197.939 201.733 206.036C196.876 226.857 244.535 270.186 244.535 270.186L253.292 264.787L253.695 259.083L248.791 256.067L248.787 251.203L244.11 248.99L224.805 219.848Z" fill="#2F2E41"/>
<path d="M253.98 217.202L248.491 209.15C247.819 200.412 254.56 192.716 263.343 192.544C268.234 192.448 273.015 194.788 275.565 202.703C282.122 223.055 238.195 270.147 238.195 270.147L229.023 265.484L228.15 259.833L232.79 256.425L232.393 251.577L236.871 248.988L253.98 217.202Z" fill="#2F2E41"/>
<path d="M143.482 287.568L136.917 287.567L133.794 262.305L143.483 262.305L143.482 287.568Z" fill="#A0616A"/>
<path d="M143.713 294.401L123.525 294.401V294.146C123.525 292.067 124.353 290.073 125.827 288.603C127.3 287.133 129.299 286.307 131.383 286.307H131.383L135.071 283.516L141.951 286.307L143.714 286.307L143.713 294.401Z" fill="#13A34C"/>
<path d="M189.935 287.568L196.499 287.567L199.622 262.305L189.933 262.305L189.935 287.568Z" fill="#A0616A"/>
<path d="M189.703 294.401L209.892 294.401V294.146C209.892 292.067 209.064 290.073 207.59 288.603C206.116 287.133 204.118 286.307 202.034 286.307H202.033L198.346 283.516L191.465 286.307L189.703 286.307L189.703 294.401Z" fill="#13A34C"/>
<path d="M133.505 243.741C133.602 242.3 134.373 234.328 134.373 234.328L136.219 217.421L139.474 172.605L139.686 169.672L156.735 166.407L168.386 160.834L182.235 165.251L193.019 169.285C193.019 169.285 193.038 171.012 193.121 173.098C193.231 175.829 193.425 179.177 193.887 180.048C194.658 181.586 194.464 189.844 194.464 189.844C194.464 189.844 195.23 206.644 196.195 208.487C197.16 210.329 197.354 214.165 197.063 214.934C196.772 215.703 198.028 235.88 198.028 235.88C198.028 235.88 201.251 271.584 199.229 276.968C197.207 282.352 189.566 278.825 189.566 278.825C189.566 278.825 189.935 277.389 187.72 276.712C185.504 276.034 178.755 225.407 178.755 225.407C178.755 225.407 177.499 215.026 176.345 212.051C175.191 209.076 174.129 200.717 174.129 200.717C174.129 200.717 167.001 186.882 166.909 183.806C166.909 183.806 165.977 180.928 165.095 184.096C164.213 187.265 161.614 194.854 161.614 194.854L159.08 204.176L156.097 218.103L154.168 229.828C154.168 229.828 151.278 245.39 150.816 246.062C150.355 246.735 150.816 260.952 150.816 260.952C150.816 260.952 148.582 273.059 145.424 275.173C142.267 277.287 133.901 275.207 133.901 275.207C133.901 275.207 133.408 245.183 133.505 243.741Z" fill="black"/>
<path d="M140.778 122.922L144.568 132.823L139.892 137.651L141.951 139.488L140.432 142.087L136.471 169.318L158.186 176.461L165.499 168.509L171.265 176.461L196.392 171.136L189.984 136.41V134.14L188.175 129.756V120.476L196.484 92.852L178.692 88.5199L171.874 83.8398L169.668 90.4218L160.273 88.9723L160.028 84.028L152.841 89.9171L143.257 91.4146L136.01 92.852L135.086 94.8536L136.933 94.453L140.164 120.496L140.778 122.922Z" fill="black"/>
<path d="M155.391 96.1907L160.028 84.0563L171.874 83.8398L175.805 96.1907L189.933 174.929C189.933 174.929 146.65 186.954 147.089 172.499C147.55 157.301 149.633 137.113 149.633 137.113L155.391 96.1907Z" fill="#3F3D56"/>
<path d="M165.686 80.6607C173.393 80.6607 179.641 74.428 179.641 66.7395C179.641 59.0511 173.393 52.8184 165.686 52.8184C157.98 52.8184 151.732 59.0511 151.732 66.7395C151.732 74.428 157.98 80.6607 165.686 80.6607Z" fill="#A0616A"/>
<path d="M150.909 56.6417C153.181 54.1749 156.023 49.6594 164.629 47.7632C175.264 45.4202 180.29 55.0048 177.608 55.1619C185.45 57.5311 180.412 73.7219 178.164 72.364C178.145 72.3506 178.126 72.3362 178.109 72.3208C176.899 71.4324 175.885 70.3075 175.126 69.0146C174.367 67.7218 173.881 66.2882 173.696 64.8015L173.269 60.9701C173.209 64.0874 170.015 64.4998 166.752 63.3517C166.945 62.6682 167.313 62.0468 167.82 61.5486C168.327 61.0504 168.956 60.6928 169.644 60.511C167.648 62.3477 165.05 63.6616 161.421 64.0803C161.867 62.3602 162.754 61.0941 164.143 60.3436L164.014 60.2174C162.685 61.2269 161.299 62.1971 159.701 62.6543C157.902 63.1686 155.747 62.8903 154.515 61.4858C154.183 61.0981 153.932 60.6481 153.777 60.1623C154.044 62.6311 152.384 65.4492 151.095 64.9653C150.022 64.7573 149.397 58.2839 150.909 56.6417Z" fill="#2F2E41"/>
<path d="M182.892 65.973L195.582 87.2734L204.962 82.8537C204.962 82.8537 188.799 62.7143 188.285 62.1349C188.505 61.156 188.422 60.1333 188.048 59.2023C187.673 58.2712 187.024 57.4756 186.186 56.9207C185.348 56.3657 184.361 56.0776 183.356 56.0944C182.35 56.1113 181.373 56.4323 180.555 57.0149C179.736 57.5976 179.114 58.4145 178.771 59.3576C178.427 60.3006 178.379 61.3254 178.633 62.2964C178.886 63.2674 179.429 64.1387 180.189 64.7952C180.95 65.4517 181.892 65.8624 182.892 65.973Z" fill="#A0616A"/>
<path d="M189.036 118.904L208.731 104.749C210.016 103.826 211.094 102.645 211.896 101.282C212.697 99.9195 213.205 98.405 213.386 96.8355C213.567 95.266 213.418 93.676 212.949 92.1672C212.479 90.6583 211.699 89.2639 210.658 88.073L196.484 71.8516L190.309 80.1993L195.068 90.1274L185.853 92.5518L189.036 118.904Z" fill="black"/>
<path d="M155.231 67.975L142.541 89.2753L133.161 84.8556C133.161 84.8556 149.323 64.7162 149.838 64.1368C149.618 63.1579 149.7 62.1353 150.075 61.2042C150.45 60.2732 151.099 59.4776 151.937 58.9226C152.775 58.3677 153.762 58.0796 154.767 58.0964C155.773 58.1132 156.749 58.4342 157.568 59.0169C158.387 59.5996 159.009 60.4165 159.352 61.3595C159.695 62.3026 159.744 63.3274 159.49 64.2984C159.237 65.2693 158.694 66.1407 157.934 66.7972C157.173 67.4537 156.231 67.8644 155.231 67.975Z" fill="#A0616A"/>
<path d="M149.087 120.908L129.391 106.753C128.107 105.829 127.029 104.649 126.227 103.286C125.426 101.923 124.918 100.409 124.737 98.8394C124.556 97.2698 124.705 95.6799 125.174 94.171C125.644 92.6622 126.424 91.2678 127.465 90.0768L141.639 73.8555L147.814 82.2032L143.055 92.1314L152.27 94.5557L149.087 120.908Z" fill="black"/>
<path d="M13.0153 75.993C13.3179 76.4394 13.7149 76.8141 14.1784 77.0908C14.6418 77.3675 15.1605 77.5394 15.6977 77.5945C16.235 77.6496 16.7779 77.5866 17.2881 77.4097C17.7983 77.2329 18.2634 76.9466 18.6507 76.571L30.3824 82.4512L29.5831 75.6916L18.5651 71.144C17.8895 70.5368 17.0141 70.1979 16.1048 70.1915C15.1955 70.1851 14.3154 70.5117 13.6314 71.1094C12.9473 71.7071 12.5068 72.5344 12.3932 73.4344C12.2797 74.3345 12.501 75.2449 13.0153 75.993Z" fill="#9E616A"/>
<path d="M61.5489 103.276L55.7076 99.2567C55.7076 99.2567 49.0185 98.8042 48.0125 96.6826C47.0064 94.5611 46.8369 95.2744 45.7644 95.0206C44.6919 94.7669 44.1385 91.5737 42.3407 91.9504C38.296 92.7979 19.2738 80.2583 21.3268 78.691L22.8529 72.2715C24.4654 72.872 26.1466 73.2698 27.8577 73.4556C30.4449 73.6911 36.5405 76.6401 37.4434 77.6071C38.3463 78.5742 39.9458 78.1992 42.0907 78.7067C44.2357 79.2142 44.9864 82.6562 48.5439 81.7403C53.5494 80.4516 79.4818 92.7224 82.2875 93.8678C85.3666 95.1249 87.5169 98.8721 87.5169 98.8721L86.6691 102.439L61.5489 103.276Z" fill="#0E7939"/>
<path d="M103.705 285.6H108.796L111.219 266.01H103.705L103.705 285.6Z" fill="#9E616A"/>
<path d="M102.044 282.121L110.177 281.637V285.113L117.91 290.441C118.292 290.704 118.579 291.082 118.731 291.52C118.882 291.958 118.889 292.432 118.751 292.874C118.613 293.316 118.337 293.703 117.963 293.977C117.589 294.252 117.137 294.4 116.673 294.4H106.99L105.321 290.961L104.669 294.4H101.018L102.044 282.121Z" fill="#13A34C"/>
<path d="M39.8979 281.285L44.628 283.163L54.1413 265.856L47.1605 263.084L39.8979 281.285Z" fill="#9E616A"/>
<path d="M39.6438 277.441L47.3801 279.992L46.0913 283.222L51.3006 291.026C51.5579 291.411 51.685 291.868 51.6633 292.331C51.6417 292.793 51.4724 293.237 51.1802 293.597C50.888 293.956 50.4881 294.214 50.039 294.331C49.5899 294.448 49.1151 294.418 48.6839 294.247L39.6873 290.674L39.4114 286.864L37.5311 289.818L34.139 288.471L39.6438 277.441Z" fill="#13A34C"/>
<path d="M93.4432 227.307L84.9538 187.784L71.6974 231.698L50.7065 273.34L50.5953 273.561L43.9461 269.989C43.0077 253.081 45.2364 237.236 53.3879 223.381L57.2478 185.353C57.3661 184.054 60.2453 153.548 69.3624 148.138L72.0325 142.065L98.5884 135.521L98.685 135.63C101.239 138.493 102.925 142.021 103.55 145.803L111.485 193.76L111.489 193.787L109.362 227.243L112.272 276.601H101.741C95.2265 264.372 92.4605 247.941 93.4432 227.307Z" fill="#2F2E41"/>
<path d="M116.304 61.548C116.709 61.9048 117.03 62.3458 117.245 62.8399C117.461 63.334 117.565 63.8692 117.551 64.4079C117.536 64.9465 117.404 65.4755 117.163 65.9575C116.921 66.4395 116.577 66.8629 116.154 67.1977L120.49 79.5607L113.873 77.9007L110.77 66.4151C110.253 65.6686 110.029 64.759 110.139 63.8585C110.25 62.9581 110.688 62.1294 111.37 61.5295C112.052 60.9296 112.931 60.6001 113.84 60.6035C114.75 60.607 115.626 60.943 116.304 61.548H116.304Z" fill="#9E616A"/>
<path d="M64.2049 154.933C63.4898 154.933 63.0835 154.793 62.9262 154.493C62.6954 154.053 63.096 153.477 63.5597 152.811C63.8831 152.347 64.8279 151.423 64.3633 151.367C57.3187 150.509 60.7003 107.178 63.7533 101.451C64.3736 100.287 63.7173 98.5016 64.4158 96.5268C66.3239 91.1333 68.9285 89.4757 74.1172 86.1739C74.5384 85.9058 74.977 85.6258 75.433 85.3339C76.0229 84.9558 75.99 83.7019 75.9553 82.3741C75.9167 80.8985 75.8767 79.3724 76.6014 78.4185L76.6485 78.3564L76.7245 78.3387C78.4773 77.9345 84.3723 77.184 87.8635 78.3442L87.9117 78.3606L87.9477 78.3963C88.777 79.2236 88.8526 80.8262 88.9257 82.3758C88.9855 83.6482 89.0421 84.8495 89.5113 85.3713C93.0983 89.3601 97.1665 89.2824 97.2078 89.2816L97.4093 89.2757L97.4293 89.4757C99.9441 94.251 97.9751 111.986 99.7231 123.002C101.499 134.194 116.666 143.721 103.679 145.413C103.707 145.456 103.723 145.506 103.724 145.557C103.726 145.608 103.713 145.659 103.688 145.704C102.903 147.166 66.9005 154.933 64.2049 154.933Z" fill="#13A34C"/>
<path d="M122.914 100.358L115.705 103.925C101.816 109.247 94.5566 107.951 90.9095 105.927C87.0181 103.768 86.3434 100.458 86.317 100.318L86.3146 100.251L87.2038 93.224C87.3167 92.3315 87.6186 91.4732 88.0893 90.7059C88.56 89.9386 89.1888 89.2798 89.9341 88.7734C90.6793 88.2669 91.524 87.9243 92.412 87.7682C93.3 87.6121 94.2112 87.6461 95.0851 87.8679L111.669 92.0781L111.366 84.0472L112.022 81.1556L110.812 77.6406L111.308 70.5813L117.256 69.1289L123.496 80.2786L122.375 83.3557L123.431 84.8876L123.429 84.9586L122.914 100.358Z" fill="#0E7939"/>
<path d="M324.485 294.868L0.515161 295C0.378784 295 0.24813 294.946 0.151836 294.849C0.0555423 294.753 0.00146484 294.623 0.00146484 294.486C0.00146484 294.35 0.0555423 294.22 0.151836 294.124C0.24813 294.027 0.378784 293.973 0.515161 293.973L324.485 293.84C324.621 293.84 324.752 293.895 324.848 293.991C324.944 294.087 324.999 294.218 324.999 294.354C324.999 294.49 324.944 294.62 324.848 294.717C324.752 294.813 324.621 294.867 324.485 294.868Z" fill="#CACACA"/>
<path d="M223.905 45.7444C227.89 37.2908 224.665 27.4085 218.906 24.7064C213.148 22.0042 203.461 25.828 199.475 34.2816C195.786 42.1065 198.534 51.2715 203.264 54.6104C203.185 54.6337 203.11 54.6721 203.045 54.7233L201.909 55.6571C201.822 55.7283 201.755 55.8204 201.714 55.9247C201.673 56.029 201.66 56.1419 201.675 56.2529C201.69 56.3638 201.733 56.4691 201.801 56.5586C201.868 56.6481 201.957 56.719 202.06 56.7645L204.926 58.0353C205.029 58.0808 205.141 58.0993 205.253 58.0892C205.365 58.0791 205.472 58.0407 205.565 57.9775C205.658 57.9144 205.733 57.8287 205.783 57.7285C205.833 57.6283 205.857 57.517 205.852 57.4052L205.785 55.9378C205.781 55.8867 205.772 55.8363 205.756 55.7874C211.356 57.3226 220.208 53.5863 223.905 45.7444Z" fill="#CCCCCC"/>
<path d="M220.641 33.6199C221.545 36.2385 221.407 39.1036 220.256 41.6239C219.105 44.1441 217.027 46.1271 214.452 47.1636C213.866 47.4071 214.334 48.2752 214.917 48.0332C217.676 46.8865 219.899 44.7416 221.139 42.0285C222.379 39.3154 222.546 36.2348 221.605 33.4044C221.406 32.8074 220.44 33.0185 220.641 33.6199Z" fill="white"/>
<path d="M293.829 74.0704C301.893 69.322 304.804 59.3432 301.569 53.8756C298.335 48.408 288.171 46.1279 280.107 50.8763C272.642 55.2716 269.742 64.3895 271.767 69.8055C271.688 69.7802 271.605 69.7701 271.522 69.7759L270.056 69.9094C269.944 69.9196 269.837 69.9581 269.744 70.0213C269.651 70.0845 269.576 70.1703 269.526 70.2705C269.476 70.3707 269.453 70.482 269.458 70.5938C269.463 70.7057 269.497 70.8144 269.556 70.9096L271.208 73.5697C271.267 73.6649 271.349 73.7435 271.448 73.7979C271.546 73.8523 271.656 73.8808 271.768 73.8807C271.881 73.8806 271.991 73.8519 272.089 73.7972C272.187 73.7426 272.269 73.6639 272.328 73.5686L273.101 72.3182C273.127 72.2741 273.147 72.2271 273.162 72.1781C276.924 76.592 286.348 78.4752 293.829 74.0704Z" fill="#13A34C"/>
<path d="M297.972 62.2172C297.243 64.8895 295.512 67.1801 293.138 68.6164C290.764 70.0526 287.928 70.5248 285.216 69.9354C284.593 69.8073 284.491 70.7877 285.109 70.915C288.036 71.5169 291.083 70.9923 293.64 69.4466C296.196 67.9009 298.071 65.4482 298.891 62.5805C299.063 61.9754 298.146 61.6076 297.972 62.2172Z" fill="white"/>
<path d="M242.498 35.2428C241.483 33.0125 241.011 30.5738 241.122 28.1265C241.234 25.6793 241.925 23.2932 243.139 21.1639C243.485 20.564 243.83 19.8378 244.588 19.7225C244.875 19.6705 245.171 19.717 245.428 19.8545C245.685 19.992 245.887 20.2123 246.002 20.4795C246.104 20.8349 246.085 21.2137 245.949 21.5576C245.814 21.9014 245.568 22.1911 245.251 22.3821C244.934 22.573 244.563 22.6545 244.195 22.6141C243.826 22.5736 243.482 22.4135 243.214 22.1583C241.775 21.0017 241.958 18.9662 242.096 17.3277C242.411 13.5942 242.406 9.67466 240.814 6.1998C239.341 2.98479 236.334 0.295632 232.702 0.00194064C232.067 -0.0494266 232.031 0.935554 232.663 0.986675C236.265 1.27796 239.084 4.23847 240.281 7.47861C240.957 9.42934 241.293 11.4812 241.275 13.5451C241.287 14.6046 241.238 15.6638 241.156 16.7199C241.032 17.7493 240.999 18.7877 241.059 19.8229C241.228 21.5123 242.253 23.3235 244.084 23.5935C245.792 23.8453 247.46 22.0627 246.998 20.3688C246.887 20.0025 246.686 19.6696 246.414 19.3999C246.142 19.1302 245.807 18.932 245.439 18.8232C245.071 18.7144 244.682 18.6984 244.306 18.7765C243.931 18.8547 243.581 19.0246 243.287 19.271C242.646 19.8053 242.229 20.7231 241.863 21.4564C240.758 23.6628 240.163 26.0883 240.122 28.5545C240.081 31.0206 240.595 33.4645 241.627 35.706C241.898 36.2802 242.769 35.8155 242.498 35.2428L242.498 35.2428Z" fill="#CCCCCC"/>
<path d="M93.3883 81.1767C93.0162 80.499 92.3759 78.5609 91.6576 78.5868C90.9229 78.6189 90.187 78.5565 89.4683 78.4011C89.3904 78.3882 89.3125 78.3709 89.2389 78.3536C86.2047 77.5982 83.0935 77.1927 79.9666 77.145C77.4441 77.1105 74.6749 77.4126 72.9139 79.2126C71.1529 81.0126 71.4125 84.7249 73.8398 85.4112C65.728 86.8125 57.3894 84.9685 50.6308 80.2788C46.3343 77.2659 42.8902 73.2299 39.247 69.4572C35.6038 65.6802 31.5886 62.0499 26.6776 60.2024C21.7624 58.3506 15.7525 58.6096 11.7934 62.0586C6.96471 66.2629 6.5926 73.4975 6.58828 79.8903C6.58395 82.2817 7.33249 81.7767 9.44829 82.9033C11.4127 83.9479 13.4766 86.0976 14.6751 84.2285C15.8736 82.3594 16.0856 80.05 16.3322 77.8443C16.5745 75.6385 16.9337 73.3162 18.3356 71.5939C20.7456 68.6327 25.4921 68.6025 28.8194 70.4802C32.1467 72.3579 34.3837 75.6428 36.4995 78.8198C38.6153 81.9925 40.8479 85.286 44.1709 87.1767C48.5367 89.6587 54.0187 89.2918 58.5749 91.407C61.4695 92.7537 63.8103 95.0113 66.2117 97.1048C68.6174 99.1984 71.2524 101.214 74.372 101.892C77.4873 102.574 81.1868 101.547 82.7184 98.7538C84.0987 96.2286 83.4237 92.9954 84.6525 90.3882C85.6001 88.3767 87.5342 87.0429 89.2779 85.653C89.9961 85.0789 90.1822 87.0558 90.7923 86.3566C92.5533 86.0069 94.2061 82.6659 93.3883 81.1767Z" fill="black"/>
<path d="M81.2562 77.6052C88.8069 77.6052 94.928 71.4986 94.928 63.9657C94.928 56.4328 88.8069 50.3262 81.2562 50.3262C73.7054 50.3262 67.5843 56.4328 67.5843 63.9657C67.5843 71.4986 73.7054 77.6052 81.2562 77.6052Z" fill="#2F2E41"/>
<path d="M82.3568 78.7327C87.781 78.5794 92.0536 74.0683 91.8999 68.657C91.7462 63.2456 87.2244 58.9831 81.8002 59.1364C76.3761 59.2898 72.1035 63.8008 72.2572 69.2122C72.4108 74.6236 76.9326 78.886 82.3568 78.7327Z" fill="#9E616A"/>
<path d="M82.1735 53.986L78.1906 54.0986C75.6806 54.1716 73.3021 55.235 71.5772 57.0556C69.8523 58.8761 68.9218 61.305 68.99 63.8092L68.9925 63.8972L69.0651 63.9426C71.23 65.3716 73.7852 66.0969 76.3799 66.0189L76.6038 66.0126L78.8045 65.9131C79.1747 64.9621 79.2984 63.9334 79.1644 62.9221C79.4968 63.8808 79.7562 64.8631 79.9405 65.8606L89.815 65.4122C90.3895 65.3838 90.9302 65.1325 91.3217 64.712C91.7132 64.2915 91.9244 63.7351 91.9105 63.1613C91.8364 60.6573 90.7696 58.2848 88.9441 56.5646C87.1186 54.8445 84.6836 53.9171 82.1735 53.986Z" fill="#2F2E41"/>
<path d="M74.2367 51.5249C73.3378 52.6308 71.8942 53.0916 70.5973 53.6906C68.3089 54.7702 66.319 56.3905 64.8002 58.4108C63.2814 60.4311 62.2795 62.7905 61.8814 65.2845C61.5758 67.3153 61.6827 69.4056 61.1653 71.3917C60.6512 73.3776 59.2948 75.3501 57.2791 75.7492C55.9152 76.0215 54.5261 75.5324 53.2222 75.0476C52.505 74.7833 51.7878 74.5179 51.0707 74.2514C51.7577 72.3791 52.4435 70.5069 53.1283 68.6347C51.9929 70.4154 50.6605 72.0631 49.1561 73.5468C46.586 72.5965 44.0136 71.6462 41.439 70.696C47.7024 70.5427 46.4615 64.5077 47.6898 58.3826C48.3649 55.0169 54.8585 52.5672 56.054 49.3493C56.6997 47.6041 57.8332 46.0799 59.3201 44.9572C60.8071 43.8345 62.5854 43.1603 64.4444 43.0144C66.3035 42.8685 68.1655 43.2569 69.8102 44.1338C71.4548 45.0107 72.8133 46.3393 73.7247 47.9623C75.025 48.4371 75.119 50.4329 74.2367 51.5249Z" fill="#2F2E41"/>
<path d="M74.8629 55.5817C77.6746 55.5817 79.9539 53.3078 79.9539 50.5027C79.9539 47.6977 77.6746 45.4238 74.8629 45.4238C72.0513 45.4238 69.772 47.6977 69.772 50.5027C69.772 53.3078 72.0513 55.5817 74.8629 55.5817Z" fill="#2F2E41"/>
</g>
<defs>
<clipPath id="clip0_3693_1190">
<rect width="325" height="295" fill="white"/>
</clipPath>
</defs>
</svg>
