<svg xmlns="http://www.w3.org/2000/svg" width="30.047" height="30.658" viewBox="0 0 30.047 30.658">
  <g id="Group_16089" data-name="Group 16089" transform="translate(-0.003 0.005)">
    <path id="Path_4248" data-name="Path 4248" d="M86.719,62.117A18.263,18.263,0,0,0,86.455,59H72v5.9h8.279a7.1,7.1,0,0,1-3.061,4.658v3.832h4.941A14.99,14.99,0,0,0,86.719,62.117Z" transform="translate(-56.669 -46.443)" fill="#4285f4"/>
    <path id="Path_4249" data-name="Path 4249" d="M21.365,98.175a14.67,14.67,0,0,0,10.159-3.7l-4.941-3.832A9.3,9.3,0,0,1,12.76,85.78H7.67v3.949a15.328,15.328,0,0,0,13.7,8.445Z" transform="translate(-6.035 -67.522)" fill="#34a853"/>
    <path id="Path_4250" data-name="Path 4250" d="M6.726,49.486a9.184,9.184,0,0,1,0-5.867V39.67H1.635a15.328,15.328,0,0,0,0,13.766Z" transform="translate(0 -31.228)" fill="#fbbc04"/>
    <path id="Path_4251" data-name="Path 4251" d="M21.367,6.064a8.322,8.322,0,0,1,5.88,2.3h0l4.375-4.375A14.728,14.728,0,0,0,21.367,0a15.328,15.328,0,0,0-13.7,8.445l5.09,3.95A9.168,9.168,0,0,1,21.367,6.064Z" transform="translate(-6.036)" fill="#ea4335"/>
  </g>
</svg>
