<svg width="221" height="277" viewBox="0 0 221 277" fill="none" xmlns="http://www.w3.org/2000/svg">
<path d="M217.502 115.827C223.28 106.785 221.077 95.0518 214.934 91.1239C208.792 87.196 197.222 90.1225 191.444 99.1644C186.097 107.534 187.863 118.38 192.743 122.881C192.649 122.896 192.559 122.929 192.477 122.977L191.048 123.873C190.939 123.942 190.85 124.037 190.788 124.149C190.726 124.262 190.694 124.389 190.695 124.518C190.695 124.646 190.729 124.772 190.792 124.884C190.856 124.996 190.947 125.09 191.056 125.157L194.125 127.028C194.235 127.095 194.36 127.132 194.488 127.137C194.617 127.142 194.744 127.114 194.859 127.056C194.974 126.998 195.072 126.911 195.143 126.805C195.215 126.698 195.258 126.575 195.269 126.446L195.41 124.765C195.414 124.706 195.41 124.647 195.4 124.59C201.535 127.165 212.143 124.215 217.502 115.827Z" fill="#13A34C"/>
<path d="M214.566 97.9898C215.504 101.001 215.262 104.257 213.887 107.097C212.513 109.936 210.11 112.146 207.167 113.277C206.495 113.536 206.787 114.631 207.468 114.368C210.695 113.149 213.338 110.746 214.859 107.648C216.38 104.55 216.665 100.99 215.657 97.6889C215.446 96.9937 214.354 97.29 214.566 97.9898Z" fill="white"/>
<path d="M8.29548 82.9431C14.2601 74.958 25.1767 73.0309 30.6014 77.086C36.0262 81.1412 37.2723 92.1604 31.3077 100.145C25.7867 107.537 15.784 109.552 10.2746 106.783C10.2924 106.87 10.2935 106.959 10.2779 107.046L9.96725 108.582C9.94357 108.699 9.89036 108.808 9.81268 108.899C9.73499 108.99 9.63541 109.059 9.52338 109.1C9.41135 109.142 9.2906 109.154 9.1726 109.135C9.05459 109.117 8.94324 109.069 8.84913 108.995L6.21882 106.94C6.12469 106.866 6.05092 106.77 6.00452 106.66C5.95811 106.549 5.94062 106.429 5.95368 106.311C5.96674 106.192 6.00993 106.078 6.07914 105.981C6.14836 105.884 6.24131 105.806 6.34916 105.754L7.76405 105.081C7.81384 105.059 7.8661 105.042 7.91974 105.032C3.67305 100.541 2.7625 90.3503 8.29548 82.9431Z" fill="#E6E6E6"/>
<path d="M21.3421 79.9268C18.4244 80.3905 15.796 81.957 13.9995 84.3031C12.2029 86.6493 11.3754 89.5958 11.6876 92.5347C11.7517 93.2079 10.7003 93.2035 10.6366 92.5347C10.3358 89.3671 11.2433 86.2029 13.1769 83.6766C15.1106 81.1502 17.9275 79.4486 21.0627 78.913C21.7243 78.8005 22.0086 79.8135 21.3421 79.9268Z" fill="white"/>
<path d="M93.4023 76.1492L97.7373 77.0721L97.5027 75.7968L94.4855 75.1543L93.4023 76.1492Z" fill="#E6E6E6"/>
<path d="M92.5012 76.9785L97.9336 78.1349L98.1686 79.4102L91.418 77.9731L92.5012 76.9785Z" fill="#E6E6E6"/>
<path d="M91.6899 67.8213L93.0731 72.1014C93.1157 72.2444 93.2119 72.3654 93.3416 72.439C93.4713 72.5127 93.6244 72.5334 93.769 72.4967C93.9128 72.4555 94.0347 72.3595 94.1086 72.2293C94.1825 72.0992 94.2024 71.9452 94.1641 71.8005L92.781 67.5204C92.7384 67.3774 92.6421 67.2565 92.5125 67.1828C92.3828 67.1092 92.2296 67.0885 92.0851 67.1251C91.9412 67.1664 91.8193 67.2624 91.7455 67.3925C91.6716 67.5227 91.6516 67.6766 91.6899 67.8213Z" fill="#CCCCCC"/>
<path d="M98.4081 66.3701L97.0902 70.8517C96.8843 71.5519 97.9759 71.851 98.1812 71.1526L99.4991 66.671C99.7051 65.9708 98.6135 65.6717 98.4081 66.3701Z" fill="#CCCCCC"/>
<path d="M103.284 70.4737L100.025 73.8194C99.5159 74.3422 100.341 75.117 100.849 74.5956L104.108 71.2499C104.617 70.7271 103.792 69.9523 103.284 70.4737Z" fill="#CCCCCC"/>
<path d="M188.085 26.409C193.863 17.3671 191.66 5.63386 185.517 1.70595C179.375 -2.22195 167.805 0.704563 162.027 9.74645C156.68 18.1158 158.446 28.9616 163.326 33.463C163.232 33.4779 163.142 33.5106 163.06 33.5593L161.631 34.4554C161.522 34.5237 161.433 34.6188 161.371 34.7315C161.309 34.8442 161.277 34.9709 161.278 35.0996C161.278 35.2282 161.312 35.3545 161.375 35.4664C161.439 35.5783 161.53 35.6722 161.639 35.7392L164.708 37.6098C164.818 37.6767 164.943 37.7145 165.071 37.7194C165.2 37.7244 165.327 37.6965 165.442 37.6382C165.557 37.58 165.655 37.4934 165.726 37.3867C165.798 37.28 165.841 37.1567 165.852 37.0285L165.993 35.3471C165.997 35.2884 165.993 35.2295 165.983 35.1716C172.118 37.7467 182.726 34.7966 188.085 26.409Z" fill="#E6E6E6"/>
<path d="M185.148 8.57186C186.086 11.5835 185.844 14.8395 184.47 17.6787C183.095 20.5179 180.693 22.7276 177.749 23.8589C177.077 24.1182 177.369 25.213 178.05 24.9504C181.277 23.7308 183.92 21.3282 185.441 18.2303C186.962 15.1325 187.247 11.5717 186.239 8.27097C186.028 7.57577 184.936 7.87207 185.148 8.57186Z" fill="white"/>
<path d="M29.0251 22.0783C22.6039 13.482 10.8516 11.4073 5.01161 15.7729C-0.828375 20.1385 -2.16987 32.0012 4.25132 40.5975C10.1949 48.5545 20.9633 50.7245 26.8944 47.7435C26.8753 47.8365 26.8741 47.9324 26.891 48.0259L27.2254 49.6797C27.2508 49.8058 27.3081 49.9233 27.3918 50.021C27.4754 50.1187 27.5826 50.1933 27.7032 50.2379C27.8238 50.2825 27.9538 50.2955 28.0808 50.2757C28.2079 50.2559 28.3277 50.204 28.4291 50.1248L31.2607 47.9117C31.362 47.8326 31.4415 47.7288 31.4914 47.6103C31.5414 47.4917 31.5602 47.3624 31.5462 47.2345C31.5321 47.1067 31.4856 46.9846 31.4111 46.8797C31.3366 46.7749 31.2365 46.6909 31.1204 46.6356L29.5972 45.9109C29.5436 45.8868 29.4873 45.8692 29.4296 45.8583C34.0014 41.0232 34.9816 30.0526 29.0251 22.0783Z" fill="#13A34C"/>
<path d="M14.9795 18.8332C18.1205 19.3324 20.9501 21.0188 22.8842 23.5446C24.8183 26.0703 25.7092 29.2424 25.3731 32.4062C25.3041 33.1309 26.436 33.1262 26.5046 32.4062C26.8284 28.9961 25.8515 25.5897 23.7698 22.87C21.6881 20.1503 18.6555 18.3184 15.2803 17.7418C14.5681 17.6207 14.262 18.7112 14.9795 18.8332Z" fill="white"/>
<path d="M121.625 66C126.715 67.7516 130.279 72.9129 130.581 78.2271C130.735 80.9244 130.096 84.0426 128.084 85.9836C127.639 86.455 127.084 86.808 126.468 87.0105C125.853 87.2129 125.196 87.2585 124.558 87.1431C123.448 86.9016 122.289 86.144 122.099 84.9406C121.916 83.7782 122.71 82.8176 123.673 82.2879C124.219 81.9913 124.82 81.8081 125.439 81.7494C126.058 81.6906 126.683 81.7574 127.275 81.9458C128.846 82.434 130.176 83.4819 131.444 84.493C132.681 85.5197 133.997 86.4477 135.379 87.2688C140.832 90.4104 147.296 91.2967 153.392 89.7384C159.489 88.1802 164.735 84.3008 168.013 78.9276C168.411 78.2827 168.776 77.6193 169.108 76.9374C169.427 76.2858 168.452 75.7114 168.131 76.3661C166.693 79.338 164.632 81.9656 162.089 84.0708C159.546 86.176 156.58 87.7094 153.393 88.5672C150.205 89.425 146.871 89.587 143.615 89.0423C140.36 88.4976 137.26 87.2588 134.525 85.4101C131.891 83.6447 129.366 80.6116 125.94 80.5899C123.418 80.574 120.384 82.4813 121.031 85.3521C121.325 86.658 122.428 87.5987 123.637 88.0511C124.287 88.2921 124.983 88.3876 125.674 88.3309C126.365 88.2741 127.035 88.0665 127.637 87.7227C130.308 86.2222 131.475 82.8913 131.696 79.9968C132.132 74.3096 128.918 68.4107 123.868 65.7443C123.243 65.4161 122.594 65.1367 121.926 64.9085C121.236 64.6711 120.939 65.764 121.625 66V66Z" fill="#E6E6E6"/>
<g clip-path="url(#clip0_3637_3225)">
<path d="M45.177 166.833C44.7231 166.878 44.2664 166.889 43.8109 166.865C43.7332 166.856 43.6553 166.878 43.594 166.927C43.5327 166.975 43.4928 167.046 43.4829 167.123L42.6115 173.652C42.5445 174.126 42.3502 174.573 42.0493 174.946C41.8012 175.242 41.6168 175.587 41.5076 175.957C41.3983 176.328 41.3664 176.717 41.414 177.101V188.192C41.414 188.192 41.3578 189.671 42.4953 189.671C43.8567 189.842 45.2342 189.842 46.5956 189.671C46.5956 189.671 47.5064 189.499 47.5064 188.134V177.213C47.5759 176.832 47.5616 176.44 47.4645 176.065C47.3674 175.69 47.1899 175.341 46.9442 175.041C46.6534 174.668 46.4654 174.224 46.3989 173.755L45.4937 167.089C45.4834 167.014 45.445 166.946 45.3862 166.898C45.3273 166.851 45.2525 166.827 45.177 166.833Z" fill="white"/>
<path d="M44.5419 189.986C43.8538 189.986 43.1664 189.943 42.4837 189.858C42.3311 189.861 42.1795 189.833 42.0382 189.776C41.897 189.718 41.7693 189.632 41.663 189.522C41.2001 189.042 41.2258 188.219 41.2272 188.185L41.227 177.112C41.1787 176.705 41.214 176.292 41.3307 175.899C41.4475 175.506 41.6432 175.141 41.9059 174.826C42.1845 174.48 42.3643 174.065 42.4263 173.626L43.2976 167.098C43.3146 166.972 43.3798 166.858 43.4795 166.78C43.5792 166.702 43.7055 166.665 43.8317 166.678C44.2742 166.702 44.7178 166.691 45.1587 166.646L45.1639 166.646C45.2869 166.637 45.4088 166.675 45.5046 166.753C45.6004 166.83 45.6631 166.941 45.6798 167.064L46.585 173.73C46.6472 174.166 46.8222 174.578 47.0926 174.926C47.353 175.244 47.5416 175.615 47.6455 176.012C47.7493 176.41 47.766 176.825 47.6942 177.229V188.134C47.6942 189.636 46.6416 189.853 46.6309 189.855C45.938 189.942 45.2403 189.986 44.5419 189.986ZM43.7858 167.05C43.7579 167.049 43.7306 167.058 43.709 167.076C43.6875 167.094 43.6733 167.119 43.6692 167.146L42.7977 173.677C42.726 174.185 42.5179 174.664 42.1956 175.063C41.9639 175.34 41.7915 175.662 41.6891 176.009C41.5868 176.355 41.5566 176.719 41.6004 177.077L41.6018 177.1V188.192C41.6015 188.206 41.5816 188.899 41.9339 189.263C42.0068 189.338 42.0945 189.395 42.1913 189.433C42.2881 189.471 42.3919 189.488 42.4958 189.483L42.5191 189.485C43.865 189.654 45.2268 189.654 46.5727 189.485C46.5905 189.481 47.3194 189.314 47.3194 188.134L47.3225 177.179C47.3873 176.825 47.3742 176.461 47.2839 176.112C47.1936 175.763 47.0284 175.438 46.7997 175.16C46.4875 174.759 46.2855 174.284 46.2138 173.781L45.3085 167.114C45.3045 167.087 45.2904 167.062 45.2691 167.044C45.2477 167.027 45.2206 167.018 45.1929 167.019C44.7306 167.065 44.2653 167.076 43.8013 167.051C43.7961 167.051 43.791 167.05 43.7858 167.05H43.7858Z" fill="#3F3D56"/>
<path d="M43.8022 177.299H45.1834C45.7326 177.299 46.2593 177.517 46.6476 177.905C47.036 178.293 47.2541 178.819 47.2541 179.367V184.558C47.2541 185.107 47.036 185.633 46.6476 186.021C46.2593 186.409 45.7326 186.627 45.1834 186.627H43.8022C43.253 186.627 42.7263 186.409 42.338 186.021C41.9496 185.633 41.7314 185.107 41.7314 184.558V179.367C41.7314 179.096 41.785 178.827 41.8891 178.576C41.9931 178.325 42.1457 178.097 42.338 177.905C42.5303 177.713 42.7585 177.56 43.0098 177.456C43.261 177.352 43.5303 177.299 43.8022 177.299Z" fill="#13A34C"/>
<path d="M18.41 272.64H22.9128L25.055 255.291L18.4092 255.291L18.41 272.64Z" fill="#9F616A"/>
<path d="M17.2617 271.172L26.1294 271.172H26.1298C27.6285 271.172 29.0659 271.767 30.1257 272.825C31.1855 273.884 31.7809 275.32 31.781 276.817V277L17.262 277.001L17.2617 271.172Z" fill="black"/>
<path d="M15.5792 210.672C15.5792 210.672 13.6277 212.875 16.8591 221.465L16.2899 268.564L26.7618 268.36L29.0636 245.386L33.2545 211.859L15.5792 210.672Z" fill="#2F2E41"/>
<path d="M36.8464 217.183L36.7318 217.166C23.3353 215.125 13.2261 213.168 13.1256 213.149L13 213.124L16.5118 204.592C16.484 203.701 15.7239 178.664 17.1791 171.471C18.5878 164.507 25.2282 163.366 25.9849 163.259L26.7447 160.744L36.3439 165.734L38.0181 171.489L38.3581 187.264L36.8464 217.183Z" fill="#13A34C"/>
<path d="M42.6283 184.715C42.196 184.715 41.7684 184.804 41.3723 184.977C40.9763 185.15 40.6203 185.403 40.3269 185.72H24.1923L18.2822 186.977L19.2526 194.453L40.2763 189.936C40.6243 190.329 41.0653 190.628 41.559 190.807C42.0527 190.986 42.5833 191.038 43.1023 190.959C43.6214 190.88 44.1124 190.673 44.5306 190.355C44.9488 190.038 45.2807 189.621 45.4961 189.143C45.7116 188.665 45.8037 188.14 45.764 187.617C45.7242 187.094 45.554 186.59 45.2688 186.149C44.9836 185.709 44.5926 185.347 44.1313 185.096C43.67 184.846 43.1533 184.715 42.6282 184.715H42.6283Z" fill="#9F616A"/>
<path d="M42.7677 157.919C44.8276 154.155 43.4427 149.435 39.6744 147.378C35.9061 145.32 31.1814 146.703 29.1215 150.467C27.0615 154.232 28.4464 158.951 32.2147 161.009C35.983 163.067 40.7078 161.683 42.7677 157.919Z" fill="#9F616A"/>
<path d="M28.6309 147.984L28.254 147.226L30.1508 146.285C30.1508 146.285 32.2434 142.884 36.0299 143.839C39.8164 144.795 41.52 145.367 41.52 145.367L43.4121 146.318L42.4625 147.262L44.1661 147.834L43.028 148.399L44.3522 149.159L43.6393 153.057C43.6393 153.057 42.4553 150.101 40.1791 151.23C37.9029 152.36 33.7393 150.646 33.7393 150.646L30.1221 157.639C30.1221 157.639 29.3759 155.188 28.0454 155.841C28.0454 155.841 24.6464 150.434 28.6309 147.984Z" fill="#2F2E41"/>
<path d="M19.3559 195.855L17.5108 190.373L17.0645 172.097L17.8506 169.504C18.1336 168.571 18.6023 167.704 19.2286 166.956C19.8549 166.208 20.6259 165.594 21.4955 165.151C22.365 164.708 23.3152 164.444 24.289 164.377C25.2629 164.309 26.2404 164.439 27.1629 164.758C28.0855 165.076 28.9341 165.578 29.6579 166.232C30.3817 166.887 30.9659 167.68 31.3753 168.565C31.7848 169.451 32.0111 170.409 32.0407 171.384C32.0704 172.359 31.9028 173.329 31.5479 174.238L27.334 185.024L27.5482 185.439L36.6775 185.365L39.9204 191.196L19.3559 195.855Z" fill="#047732"/>
<path d="M110.696 193.602C111.036 193.373 111.323 193.072 111.534 192.72C111.746 192.369 111.878 191.975 111.921 191.567C111.963 191.159 111.916 190.746 111.782 190.358C111.648 189.971 111.43 189.617 111.145 189.322L115.645 180.418L110.49 181.015L107.007 189.379C106.543 189.891 106.284 190.556 106.277 191.247C106.271 191.937 106.519 192.607 106.974 193.127C107.428 193.648 108.058 193.984 108.744 194.071C109.43 194.159 110.125 193.992 110.696 193.602Z" fill="#FFB7B7"/>
<path d="M146.785 256.673L142.729 256.673L140.8 241.047L146.785 241.047L146.785 256.673Z" fill="#FFB7B7"/>
<path d="M147.819 260.599L134.742 260.599V260.434C134.742 259.085 135.279 257.792 136.233 256.839C137.188 255.885 138.482 255.35 139.832 255.35H139.832L147.819 255.35L147.819 260.599Z" fill="black"/>
<path d="M124.622 256.673L120.566 256.673L118.637 241.047L124.622 241.047L124.622 256.673Z" fill="#FFB7B7"/>
<path d="M124.663 260.599L111.587 260.599V260.434C111.587 259.085 112.123 257.792 113.078 256.839C114.032 255.885 115.327 255.35 116.677 255.35H116.677L124.664 255.35L124.663 260.599Z" fill="black"/>
<path d="M124.289 190.678L120.319 199.813L117.045 252.319L125.315 251.989L127.573 226.959L134.541 204.665L138.547 229.519L140.201 251.328L147.044 251.624L149.77 190.678H124.289Z" fill="black"/>
<path d="M144.132 145.602L132.627 145.889L125.873 149.353L125.502 174.908L121.289 192.552C121.289 192.552 147.611 194.361 151.249 191.718L146.949 171.561L152.717 149.778L144.132 145.602Z" fill="#13A34C"/>
<path d="M127.649 149.775L126.578 149.053C126.578 149.053 122.141 150.381 120.829 156.291C120.829 156.291 119.826 159.257 119.385 161.295C118.88 163.634 107.728 185.112 107.728 185.112L114.405 187.025L126.647 167.249L127.649 149.775Z" fill="#13A34C"/>
<path d="M152.536 196.88C152.272 196.566 152.08 196.198 151.974 195.801C151.867 195.405 151.849 194.99 151.921 194.586C151.992 194.182 152.152 193.799 152.388 193.463C152.624 193.127 152.93 192.847 153.286 192.642L151.419 182.844L156.208 184.838L157.248 193.837C157.552 194.457 157.618 195.167 157.433 195.833C157.249 196.499 156.826 197.074 156.245 197.449C155.665 197.824 154.966 197.973 154.283 197.868C153.599 197.764 152.978 197.412 152.536 196.88Z" fill="#FFB7B7"/>
<path d="M150.986 150.083L152.215 149.684C152.215 149.684 156.113 152.183 155.742 158.225C155.742 158.225 155.888 161.352 155.749 163.433C155.589 165.819 157.733 189.537 157.733 189.537H150.787L147.81 168.059L150.986 150.083Z" fill="#13A34C"/>
<path d="M146.956 134.879C146.956 136.455 146.488 137.995 145.612 139.305C144.735 140.615 143.49 141.636 142.032 142.239C140.575 142.842 138.972 143 137.424 142.693C135.877 142.385 134.456 141.627 133.341 140.512C132.225 139.398 131.466 137.979 131.158 136.433C130.85 134.888 131.008 133.286 131.612 131.83C132.216 130.374 133.238 129.13 134.549 128.255C135.861 127.379 137.403 126.912 138.98 126.912C141.09 126.907 143.116 127.739 144.612 129.226C146.107 130.712 146.951 132.732 146.956 134.839C146.956 134.853 146.956 134.866 146.956 134.879Z" fill="#FFB7B7"/>
<path d="M131.032 124.179C131.966 122.172 133.774 122.569 135.355 123.249C137.358 122.806 139.262 121.477 141.42 122.263C143.545 125.351 150.68 124.442 149.162 129.469C149.16 130.673 151.431 129.972 151.034 131.945C152.237 135.741 146.692 142.931 143.509 141.417C144.296 139.976 146.095 136.702 143.367 136.377C137.499 141.831 142.761 125.992 135.388 130.598C132.947 132.83 129.605 126.412 131.032 124.179Z" fill="#2F2E41"/>
<path d="M153.933 197.673C154.313 197.75 154.705 197.742 155.081 197.65C155.458 197.559 155.81 197.386 156.112 197.144C156.414 196.902 156.66 196.597 156.832 196.25C157.003 195.903 157.097 195.523 157.105 195.136L177.131 176.307L172.625 172.717L154.323 192.401C153.671 192.43 153.053 192.697 152.585 193.151C152.117 193.604 151.832 194.214 151.784 194.864C151.736 195.514 151.928 196.159 152.324 196.677C152.72 197.194 153.292 197.549 153.933 197.673Z" fill="#9F616A"/>
<path d="M174.293 179.351L170.397 174.79C170.286 174.66 170.204 174.508 170.158 174.344C170.111 174.18 170.1 174.008 170.126 173.839C170.152 173.67 170.214 173.509 170.308 173.367C170.402 173.224 170.525 173.104 170.67 173.013L175.742 169.842C176.41 169.279 177.274 169.003 178.145 169.076C179.016 169.148 179.822 169.563 180.387 170.229C180.953 170.894 181.231 171.757 181.16 172.627C181.09 173.497 180.677 174.304 180.012 174.87L176.092 179.361C175.98 179.489 175.841 179.592 175.686 179.662C175.53 179.733 175.361 179.768 175.19 179.767C175.019 179.766 174.851 179.729 174.696 179.657C174.541 179.585 174.403 179.481 174.293 179.351V179.351Z" fill="#047732"/>
<path d="M163.816 272.26L158.919 272.26L156.59 253.395L163.816 253.395L163.816 272.26Z" fill="#9F616A"/>
<path d="M165.065 277L149.277 277V276.8C149.277 275.172 149.925 273.611 151.077 272.46C152.23 271.309 153.793 270.662 155.422 270.662H155.423L165.065 270.662L165.065 277Z" fill="black"/>
<path d="M202.955 272.26L198.059 272.26L195.729 253.395L202.956 253.395L202.955 272.26Z" fill="#9F616A"/>
<path d="M204.204 277L188.416 277V276.8C188.416 275.172 189.064 273.611 190.216 272.46C191.368 271.309 192.931 270.662 194.561 270.662H194.561L204.204 270.662L204.204 277Z" fill="black"/>
<path d="M189.785 189.351L194.72 171.136L188.317 167.541H179.38L175.904 171.256C175.904 171.256 170.097 175.292 171.502 179.764L173.77 189.95L170.302 206.128L152.828 230.334L148.691 254.112L164.974 258.376L182.582 223.743L191.118 262.09L207 261.293L201.528 214.797C201.528 214.797 199.967 200.632 191.79 191.789L189.785 189.351Z" fill="#13A34C"/>
<path d="M199.977 205.467C200.252 205.195 200.464 204.865 200.598 204.502C200.732 204.139 200.785 203.751 200.753 203.365C200.72 202.98 200.604 202.606 200.411 202.27C200.218 201.934 199.954 201.645 199.637 201.422L195.808 175.615L190.312 177.349L195.814 202.203C195.474 202.76 195.351 203.421 195.467 204.063C195.583 204.704 195.931 205.28 196.444 205.683C196.957 206.085 197.6 206.285 198.251 206.245C198.902 206.206 199.516 205.929 199.977 205.467Z" fill="#9F616A"/>
<path d="M196.755 179.667L190.792 180.353C190.623 180.373 190.451 180.356 190.288 180.303C190.126 180.25 189.977 180.163 189.851 180.048C189.726 179.932 189.626 179.791 189.56 179.633C189.494 179.476 189.463 179.306 189.468 179.136L189.662 173.162C189.566 172.294 189.82 171.424 190.366 170.743C190.911 170.061 191.706 169.624 192.574 169.526C193.442 169.429 194.314 169.68 194.997 170.223C195.681 170.766 196.121 171.558 196.221 172.426L197.767 178.18C197.811 178.345 197.819 178.517 197.79 178.685C197.762 178.854 197.698 179.014 197.602 179.155C197.506 179.296 197.38 179.415 197.234 179.503C197.088 179.591 196.925 179.647 196.755 179.667V179.667Z" fill="#047732"/>
<path d="M173.854 162.361V154.686C173.854 151.959 174.939 149.343 176.87 147.414C178.801 145.486 181.419 144.402 184.15 144.402C186.88 144.402 189.499 145.486 191.429 147.414C193.36 149.343 194.445 151.959 194.445 154.686V162.361C194.444 162.727 194.299 163.078 194.039 163.337C193.78 163.596 193.429 163.742 193.062 163.742H175.237C174.871 163.742 174.519 163.596 174.26 163.337C174.001 163.078 173.855 162.727 173.854 162.361Z" fill="#2F2E41"/>
<path d="M185.654 162.641C189.312 160.643 190.656 156.062 188.657 152.408C186.657 148.754 182.071 147.411 178.413 149.409C174.755 151.406 173.411 155.987 175.411 159.641C177.41 163.295 181.996 164.638 185.654 162.641Z" fill="#9F616A"/>
<path d="M171.419 155.301C171.421 153.144 172.28 151.077 173.807 149.551C175.334 148.026 177.404 147.168 179.563 147.166H181.1C183.259 147.168 185.329 148.026 186.855 149.551C188.382 151.077 189.241 153.144 189.243 155.301V155.455H185.996L184.889 152.357L184.667 155.455H182.989L182.43 153.892L182.318 155.455H171.419V155.301Z" fill="#2F2E41"/>
<path d="M181.291 164.607C181.138 164.4 181.047 164.155 181.028 163.9C181.009 163.644 181.063 163.388 181.183 163.162C182.811 160.068 185.091 154.351 182.065 150.826L181.847 150.572H190.633V163.748L182.652 165.155C182.571 165.169 182.489 165.176 182.407 165.176C182.189 165.176 181.974 165.125 181.78 165.026C181.586 164.927 181.419 164.783 181.291 164.607Z" fill="#2F2E41"/>
<path d="M100.541 171.622C100.43 171.736 100.328 171.859 100.236 171.99L85.9211 171.64L84.2511 168.592L79.3164 170.508L81.7477 176.191C81.9441 176.65 82.2844 177.034 82.7173 177.283C83.1502 177.533 83.6525 177.635 84.1488 177.575L100.322 175.624C100.703 176.106 101.223 176.461 101.811 176.641C102.399 176.822 103.029 176.819 103.616 176.633C104.202 176.447 104.718 176.088 105.096 175.602C105.473 175.116 105.693 174.527 105.726 173.913C105.76 173.299 105.606 172.689 105.284 172.165C104.963 171.641 104.489 171.227 103.926 170.978C103.363 170.73 102.738 170.658 102.133 170.773C101.529 170.888 100.973 171.184 100.541 171.622H100.541Z" fill="#FFB7B7"/>
<path d="M53.8777 258.461H58.5845L60.8236 240.326L53.877 240.326L53.8777 258.461Z" fill="#FFB7B7"/>
<path d="M52.6768 256.926L61.946 256.926H61.9464C63.513 256.926 65.0155 257.548 66.1232 258.654C67.231 259.761 67.8534 261.261 67.8535 262.826V263.018L52.677 263.019L52.6768 256.926Z" fill="black"/>
<path d="M96.6166 258.358L100.945 256.511L95.8723 238.955L89.4844 241.681L96.6166 258.358Z" fill="#FFB7B7"/>
<path d="M94.9082 257.417L103.432 253.779L103.433 253.779C104.873 253.164 106.499 253.146 107.953 253.729C109.407 254.312 110.57 255.448 111.185 256.887L111.261 257.064L97.3044 263.019L94.9082 257.417Z" fill="black"/>
<path d="M76.7558 175.551L77.0961 181.061L67.1474 182.124L56.7373 183.237L59.8012 174.871L76.7558 175.551Z" fill="#FFB7B7"/>
<path d="M77.105 177.528C76.9922 177.484 65.7551 173.117 58.8528 176.688L58.6831 176.775L57.3061 170.005L56.5215 155.449L61.627 153.039L63.0327 149.894L72.6075 149.328L74.5751 152.024L81.2741 154.217L77.2704 177.593L77.105 177.528Z" fill="#E4E4E4"/>
<path d="M77.457 164.389L78.6413 155.093L81.338 154.273L81.3835 154.29C81.4457 154.313 82.9113 154.873 83.3124 156.9C83.6975 158.846 86.5976 170.952 86.6268 171.074L86.6559 171.195L79.8419 173.918L77.457 164.389Z" fill="#E4E4E4"/>
<path d="M93.1108 255.171L102.181 253.312L87.684 213.352L82.7224 199.722C82.7224 199.722 79.5754 188.794 78.1536 184.565L77.2956 178.891L56.9839 181.136C56.9839 181.136 51.3109 189.459 53.0344 203.024L52.2549 254.009L61.3254 254.474L68.9228 203.052L82.2572 231.241C82.2572 231.241 86.4601 243.27 89.4671 245.878L93.1108 255.171Z" fill="#13A34C"/>
<path d="M65.1292 183.029C64.9694 183.025 64.8097 183.034 64.6513 183.056L55.1755 172.332L56.2778 169.036L51.5159 166.725L48.997 172.37C48.7935 172.826 48.7436 173.335 48.8547 173.822C48.9659 174.309 49.2321 174.747 49.6135 175.069L62.0422 185.589C61.9474 186.197 62.04 186.819 62.3077 187.372C62.5754 187.926 63.0055 188.385 63.5407 188.688C64.076 188.992 64.691 189.125 65.3041 189.071C65.9172 189.017 66.4992 188.778 66.9727 188.385C67.4463 187.992 67.7889 187.465 67.9551 186.873C68.1213 186.281 68.1031 185.652 67.9029 185.071C67.7028 184.49 67.3302 183.983 66.8347 183.618C66.3392 183.253 65.7443 183.048 65.1292 183.029Z" fill="#FFB7B7"/>
<path d="M50.6582 168.314L54.3627 157.773C54.779 156.531 55.3007 155.776 55.9133 155.529C56.034 155.475 56.1646 155.447 56.2969 155.445C56.4293 155.444 56.5604 155.47 56.6821 155.522L58.3432 157.619L59.8849 164.088L55.9321 173.376L50.6582 168.314Z" fill="#E4E4E4"/>
<path d="M75.1787 147.145H58.916C58.5815 147.145 58.2608 147.012 58.0243 146.776C57.7877 146.54 57.6547 146.219 57.6543 145.885V138.883C57.6543 136.394 58.6439 134.008 60.4055 132.248C62.167 130.489 64.5562 129.5 67.0474 129.5C69.5386 129.5 71.9277 130.489 73.6893 132.248C75.4508 134.008 76.4404 136.394 76.4404 138.883V145.885C76.4401 146.219 76.307 146.54 76.0705 146.776C75.8339 147.012 75.5132 147.145 75.1787 147.145Z" fill="#2F2E41"/>
<path d="M68.9775 146.983C72.7809 146.983 75.8642 143.903 75.8642 140.104C75.8642 136.305 72.7809 133.225 68.9775 133.225C65.1741 133.225 62.0908 136.305 62.0908 140.104C62.0908 143.903 65.1741 146.983 68.9775 146.983Z" fill="#FFB7B7"/>
<path d="M78.662 139.584H68.7178L68.6158 138.158L68.106 139.584H66.5748L66.3727 136.757L65.3622 139.584H62.3994V139.444C62.4016 137.476 63.1852 135.589 64.5781 134.198C65.9711 132.806 67.8597 132.024 69.8297 132.021H71.2317C73.2017 132.024 75.0903 132.806 76.4833 134.198C77.8763 135.589 78.6598 137.476 78.662 139.444L78.662 139.584Z" fill="#2F2E41"/>
<path d="M68.6367 148.453C68.5618 148.453 68.4871 148.447 68.4134 148.434L61.1318 147.15V135.129H69.1475L68.949 135.36C66.188 138.577 68.2681 143.792 69.7538 146.615C69.8633 146.822 69.9121 147.055 69.8946 147.289C69.8771 147.522 69.7941 147.745 69.655 147.934C69.5385 148.094 69.3855 148.225 69.2085 148.316C69.0314 148.406 68.8355 148.453 68.6367 148.453Z" fill="#2F2E41"/>
<path d="M155.862 177.348C155.408 177.394 154.951 177.405 154.495 177.38C154.418 177.372 154.34 177.394 154.279 177.442C154.217 177.491 154.177 177.561 154.167 177.639L153.296 184.168C153.229 184.642 153.035 185.089 152.734 185.462C152.486 185.758 152.301 186.102 152.192 186.473C152.083 186.844 152.051 187.233 152.099 187.616V198.708C152.099 198.708 152.042 200.187 153.18 200.187C154.541 200.357 155.919 200.357 157.28 200.187C157.28 200.187 158.191 200.014 158.191 198.65V187.729C158.26 187.348 158.246 186.956 158.149 186.581C158.052 186.206 157.874 185.857 157.629 185.557C157.338 185.183 157.15 184.74 157.083 184.271L156.178 177.605C156.168 177.53 156.13 177.462 156.071 177.414C156.012 177.366 155.937 177.343 155.862 177.348Z" fill="white"/>
<path d="M155.226 200.501C154.538 200.501 153.851 200.459 153.168 200.373C153.016 200.377 152.864 200.349 152.723 200.291C152.582 200.234 152.454 200.147 152.348 200.038C151.885 199.558 151.91 198.735 151.912 198.7L151.912 187.627C151.863 187.22 151.899 186.807 152.015 186.414C152.132 186.021 152.328 185.656 152.59 185.341C152.869 184.996 153.049 184.581 153.111 184.142L153.982 177.614C153.999 177.488 154.064 177.374 154.164 177.296C154.264 177.217 154.39 177.181 154.516 177.194C154.959 177.217 155.402 177.206 155.843 177.162L155.848 177.161C155.972 177.153 156.093 177.191 156.189 177.268C156.285 177.346 156.348 177.457 156.364 177.579L157.27 184.246C157.332 184.682 157.507 185.094 157.777 185.442C158.038 185.76 158.226 186.13 158.33 186.528C158.434 186.925 158.451 187.34 158.379 187.745V198.649C158.379 200.152 157.326 200.368 157.315 200.37C156.623 200.457 155.925 200.501 155.226 200.501ZM154.47 177.566C154.443 177.565 154.415 177.574 154.394 177.592C154.372 177.609 154.358 177.634 154.354 177.662L153.482 184.192C153.411 184.7 153.202 185.18 152.88 185.579C152.648 185.856 152.476 186.178 152.374 186.524C152.271 186.871 152.241 187.234 152.285 187.593L152.286 187.616V198.707C152.286 198.721 152.266 199.415 152.618 199.779C152.691 199.853 152.779 199.911 152.876 199.949C152.973 199.987 153.076 200.004 153.18 199.999L153.204 200.001C154.55 200.169 155.911 200.169 157.257 200.001C157.275 199.996 158.004 199.83 158.004 198.649L158.007 187.695C158.072 187.34 158.059 186.976 157.968 186.627C157.878 186.279 157.713 185.954 157.484 185.675C157.172 185.275 156.97 184.8 156.898 184.297L155.993 177.63C155.989 177.602 155.975 177.577 155.954 177.56C155.932 177.542 155.905 177.533 155.877 177.535C155.415 177.581 154.95 177.592 154.486 177.567C154.481 177.566 154.476 177.566 154.47 177.566Z" fill="#3F3D56"/>
<path d="M154.486 187.814H155.867C156.416 187.814 156.943 188.032 157.331 188.42C157.72 188.808 157.938 189.334 157.938 189.883V195.074C157.938 195.623 157.72 196.149 157.331 196.537C156.943 196.925 156.416 197.143 155.867 197.143H154.486C153.937 197.143 153.41 196.925 153.022 196.537C152.633 196.149 152.415 195.623 152.415 195.074V189.883C152.415 189.334 152.633 188.808 153.022 188.42C153.41 188.032 153.937 187.814 154.486 187.814Z" fill="#13A34C"/>
<path d="M108.993 168.356C108.54 168.402 108.083 168.413 107.627 168.388C107.55 168.38 107.472 168.402 107.41 168.45C107.349 168.499 107.309 168.569 107.299 168.646L106.428 175.176C106.361 175.65 106.167 176.097 105.866 176.469C105.618 176.766 105.433 177.11 105.324 177.481C105.215 177.851 105.183 178.241 105.23 178.624V189.716C105.23 189.716 105.174 191.194 106.312 191.194C107.673 191.365 109.051 191.365 110.412 191.194C110.412 191.194 111.323 191.022 111.323 189.657V178.736C111.392 178.355 111.378 177.964 111.281 177.589C111.184 177.214 111.006 176.864 110.761 176.565C110.47 176.191 110.282 175.748 110.215 175.279L109.31 168.613C109.3 168.538 109.261 168.47 109.203 168.422C109.144 168.374 109.069 168.351 108.993 168.356Z" fill="white"/>
<path d="M108.357 191.509C107.669 191.509 106.982 191.466 106.299 191.381C106.147 191.385 105.995 191.357 105.854 191.299C105.712 191.241 105.585 191.155 105.478 191.046C105.016 190.565 105.041 189.743 105.043 189.708L105.042 178.635C104.994 178.228 105.029 177.815 105.146 177.422C105.263 177.029 105.459 176.664 105.721 176.349C106 176.003 106.18 175.589 106.242 175.149L107.113 168.621C107.13 168.496 107.195 168.382 107.295 168.303C107.395 168.225 107.521 168.189 107.647 168.202C108.09 168.225 108.533 168.214 108.974 168.17L108.979 168.169C109.102 168.16 109.224 168.199 109.32 168.276C109.416 168.354 109.479 168.465 109.495 168.587L110.4 175.253C110.463 175.689 110.638 176.102 110.908 176.45C111.168 176.768 111.357 177.138 111.461 177.535C111.565 177.933 111.581 178.348 111.51 178.753V189.657C111.51 191.159 110.457 191.376 110.446 191.378C109.753 191.465 109.056 191.509 108.357 191.509ZM107.601 168.574C107.573 168.573 107.546 168.582 107.524 168.599C107.503 168.617 107.489 168.642 107.485 168.67L106.613 175.2C106.541 175.708 106.333 176.187 106.011 176.587C105.779 176.864 105.607 177.186 105.505 177.532C105.402 177.878 105.372 178.242 105.416 178.601L105.417 178.624V189.715C105.417 189.729 105.397 190.423 105.749 190.787C105.822 190.861 105.91 190.919 106.007 190.957C106.104 190.995 106.207 191.012 106.311 191.007L106.335 191.008C107.68 191.177 109.042 191.177 110.388 191.008C110.406 191.004 111.135 190.838 111.135 189.657L111.138 178.702C111.203 178.348 111.19 177.984 111.099 177.635C111.009 177.287 110.844 176.962 110.615 176.683C110.303 176.283 110.101 175.807 110.029 175.305L109.124 168.638C109.12 168.61 109.106 168.585 109.085 168.568C109.063 168.55 109.036 168.541 109.008 168.543C108.546 168.589 108.081 168.6 107.617 168.575C107.612 168.574 107.606 168.574 107.601 168.574Z" fill="#3F3D56"/>
<path d="M107.618 178.822H108.999C109.548 178.822 110.075 179.04 110.463 179.428C110.851 179.816 111.07 180.342 111.07 180.891V186.082C111.07 186.63 110.851 187.157 110.463 187.544C110.075 187.932 109.548 188.15 108.999 188.15H107.618C107.068 188.15 106.542 187.932 106.153 187.544C105.765 187.157 105.547 186.63 105.547 186.082V180.891C105.547 180.342 105.765 179.816 106.153 179.428C106.542 179.04 107.068 178.822 107.618 178.822Z" fill="#13A34C"/>
<path d="M101.049 158.833C100.595 158.878 100.138 158.889 99.6829 158.865C99.6053 158.856 99.5274 158.878 99.4661 158.927C99.4047 158.975 99.3648 159.046 99.355 159.123L98.4836 165.652C98.4165 166.126 98.2223 166.573 97.9214 166.946C97.6733 167.242 97.4889 167.587 97.3796 167.957C97.2704 168.328 97.2385 168.717 97.2861 169.101V180.192C97.2861 180.192 97.2299 181.671 98.3674 181.671C99.7288 181.842 101.106 181.842 102.468 181.671C102.468 181.671 103.378 181.499 103.378 180.134V169.213C103.448 168.832 103.434 168.44 103.337 168.065C103.24 167.69 103.062 167.341 102.816 167.041C102.525 166.668 102.337 166.224 102.271 165.755L101.366 159.089C101.356 159.014 101.317 158.946 101.258 158.898C101.199 158.851 101.125 158.827 101.049 158.833Z" fill="white"/>
<path d="M100.414 181.986C99.7259 181.986 99.0385 181.943 98.3557 181.858C98.2032 181.861 98.0515 181.833 97.9103 181.776C97.7691 181.718 97.6413 181.632 97.5351 181.522C97.0722 181.042 97.0979 180.219 97.0993 180.185L97.0991 169.112C97.0508 168.705 97.0861 168.292 97.2028 167.899C97.3195 167.506 97.5153 167.141 97.778 166.826C98.0565 166.48 98.2363 166.065 98.2984 165.626L99.1697 159.098C99.1867 158.972 99.2519 158.858 99.3516 158.78C99.4513 158.702 99.5776 158.665 99.7037 158.678C100.146 158.702 100.59 158.691 101.031 158.646L101.036 158.646C101.159 158.637 101.281 158.675 101.377 158.753C101.473 158.83 101.535 158.941 101.552 159.064L102.457 165.73C102.519 166.166 102.694 166.578 102.965 166.926C103.225 167.244 103.414 167.615 103.518 168.012C103.621 168.41 103.638 168.825 103.566 169.229V180.134C103.566 181.636 102.514 181.853 102.503 181.855C101.81 181.942 101.112 181.986 100.414 181.986ZM99.6579 159.05C99.63 159.049 99.6027 159.058 99.5811 159.076C99.5596 159.094 99.5454 159.119 99.5413 159.146L98.6697 165.677C98.5981 166.185 98.39 166.664 98.0676 167.063C97.8359 167.34 97.6636 167.662 97.5612 168.009C97.4589 168.355 97.4287 168.719 97.4725 169.077L97.4739 169.1V180.192C97.4736 180.206 97.4537 180.899 97.8059 181.263C97.8788 181.338 97.9665 181.395 98.0634 181.433C98.1602 181.471 98.2639 181.488 98.3678 181.483L98.3912 181.485C99.7371 181.654 101.099 181.654 102.445 181.485C102.463 181.481 103.192 181.314 103.192 180.134L103.195 169.179C103.259 168.825 103.246 168.461 103.156 168.112C103.066 167.763 102.9 167.438 102.672 167.16C102.36 166.759 102.158 166.284 102.086 165.781L101.181 159.114C101.177 159.087 101.163 159.062 101.141 159.044C101.12 159.027 101.093 159.018 101.065 159.019C100.603 159.065 100.137 159.076 99.6733 159.051C99.6682 159.051 99.6631 159.05 99.6579 159.05Z" fill="#3F3D56"/>
<path d="M99.6733 169.299H101.054C101.604 169.299 102.13 169.517 102.519 169.905C102.907 170.293 103.125 170.819 103.125 171.367V176.558C103.125 177.107 102.907 177.633 102.519 178.021C102.13 178.409 101.604 178.627 101.054 178.627H99.6733C99.1241 178.627 98.5974 178.409 98.2091 178.021C97.8207 177.633 97.6025 177.107 97.6025 176.558V171.367C97.6025 170.819 97.8207 170.293 98.2091 169.905C98.5974 169.517 99.1241 169.299 99.6733 169.299Z" fill="#13A34C"/>
<path d="M27.8777 126.78C31.5337 126.78 34.4976 123.819 34.4976 120.167C34.4976 116.515 31.5337 113.555 27.8777 113.555C24.2216 113.555 21.2578 116.515 21.2578 120.167C21.2578 123.819 24.2216 126.78 27.8777 126.78Z" fill="#F0F0F0"/>
<path d="M180.4 121.225C184.056 121.225 187.02 118.265 187.02 114.613C187.02 110.961 184.056 108 180.4 108C176.744 108 173.78 110.961 173.78 114.613C173.78 118.265 176.744 121.225 180.4 121.225Z" fill="#F0F0F0"/>
<path d="M104.669 137.889C107.301 137.889 109.435 135.758 109.435 133.128C109.435 130.499 107.301 128.367 104.669 128.367C102.036 128.367 99.9023 130.499 99.9023 133.128C99.9023 135.758 102.036 137.889 104.669 137.889Z" fill="#F0F0F0"/>
</g>
<defs>
<clipPath id="clip0_3637_3225">
<rect width="194" height="169" fill="white" transform="translate(13 108)"/>
</clipPath>
</defs>
</svg>
