<svg width="84" height="84" viewBox="0 0 84 84" fill="none" xmlns="http://www.w3.org/2000/svg">
<path d="M42 0C18.8418 0 0 18.8402 0 42C0 65.1598 18.8418 84 42 84C65.1581 84 84 65.1598 84 42C84 18.8402 65.1581 0 42 0ZM62.1923 45.2308H45.2308V63C45.2308 64.7834 43.7834 66.2308 42 66.2308C40.2166 66.2308 38.7692 64.7834 38.7692 63V45.2308H21.8077C20.0243 45.2308 18.5769 43.7834 18.5769 42C18.5769 40.2166 20.0243 38.7692 21.8077 38.7692H38.7692V22.6154C38.7692 20.832 40.2166 19.3846 42 19.3846C43.7834 19.3846 45.2308 20.832 45.2308 22.6154V38.7692H62.1923C63.9757 38.7692 65.4231 40.2166 65.4231 42C65.4231 43.7834 63.9757 45.2308 62.1923 45.2308Z" fill="black" fill-opacity="0.3"/>
</svg>
