<svg xmlns="http://www.w3.org/2000/svg" width="24" height="24" viewBox="0 0 24 24">
  <g id="Group_1024" data-name="Group 1024" transform="translate(-10981 -181)">
    <rect id="Rectangle_442" data-name="Rectangle 442" width="24" height="24" transform="translate(10981 181)" fill="none"/>
    <g id="noun-upload-4893691" transform="translate(10897.258 167.335)">
      <path id="Path_904" data-name="Path 904" d="M102.336,305.193H89.148a1.648,1.648,0,0,1-1.648-1.648V298.6a1.1,1.1,0,1,1,2.2,0V303h12.088v-4.4a1.1,1.1,0,1,1,2.2,0v4.945a1.648,1.648,0,0,1-1.648,1.648Z" transform="translate(0 -271.285)" fill="#10e509"/>
      <path id="Path_905" data-name="Path 905" d="M185.84,22.463l-3.984-4.489a1.648,1.648,0,0,0-2.462,0l-3.984,4.489a1.1,1.1,0,0,0,1.648,1.456l2.467-2.786v9.2a1.1,1.1,0,1,0,2.2,0v-9.2l2.478,2.786a1.1,1.1,0,0,0,1.637-1.456Z" transform="translate(-84.884)" fill="#10e509"/>
    </g>
  </g>
</svg>
