<svg width="66" height="66" viewBox="0 0 66 66" fill="none" xmlns="http://www.w3.org/2000/svg">
<path d="M43.8857 31.7062L30.1811 21.744C29.6782 21.3795 29.0106 21.3246 28.4593 21.6079C27.9036 21.889 27.5566 22.46 27.5566 23.0772V42.9949C27.5566 43.6186 27.9036 44.1874 28.4593 44.4685C28.6943 44.5871 28.9513 44.6464 29.2104 44.6464C29.5486 44.6464 29.8912 44.5388 30.1811 44.3258L43.8857 34.3724C44.3183 34.054 44.5709 33.562 44.5709 33.0393C44.5731 32.5078 44.3139 32.0181 43.8857 31.7062Z" fill="#F3F3F3"/>
<path d="M33.0007 0C14.7719 0 0 14.7719 0 33.0007C0 51.2229 14.7719 65.9904 33.0007 65.9904C51.2251 65.9904 65.9992 51.2207 65.9992 33.0007C66.0014 14.7719 51.2251 0 33.0007 0ZM33.0007 60.4844C17.8203 60.4844 5.51256 48.1833 5.51256 33.0007C5.51256 17.8247 17.8203 5.50817 33.0007 5.50817C48.1789 5.50817 60.4844 17.8225 60.4844 33.0007C60.4866 48.1833 48.1789 60.4844 33.0007 60.4844Z" fill="#F3F3F3"/>
</svg>
