<svg width="65" height="65" viewBox="0 0 65 65" fill="none" xmlns="http://www.w3.org/2000/svg">
<path d="M32.7061 64.7676C50.2119 64.7676 64.7061 50.2735 64.7061 32.7676C64.7061 15.2931 50.1806 0.767578 32.6747 0.767578C15.2002 0.767578 0.706055 15.2931 0.706055 32.7676C0.706055 50.2735 15.2315 64.7676 32.7061 64.7676ZM32.7061 59.4342C17.8982 59.4342 6.07076 47.5754 6.07076 32.7676C6.07076 17.9911 17.8668 6.10091 32.6747 6.10091C47.4825 6.10091 59.3414 17.9911 59.3727 32.7676C59.4041 47.5754 47.5139 59.4342 32.7061 59.4342ZM32.6433 47.6695C34.3061 47.6695 35.31 46.5088 35.31 44.6891V35.4029H45.1296C46.8864 35.4029 48.11 34.4931 48.11 32.8303C48.11 31.1362 46.9492 30.1637 45.1296 30.1637H35.31V20.3127C35.31 18.4617 34.3061 17.3323 32.6433 17.3323C30.9806 17.3323 30.0394 18.5244 30.0394 20.3127V30.1637H20.2512C18.4315 30.1637 17.2394 31.1362 17.2394 32.8303C17.2394 34.4931 18.4943 35.4029 20.2512 35.4029H30.0394V44.6891C30.0394 46.446 30.9806 47.6695 32.6433 47.6695Z" fill="#393434"/>
</svg>
