<svg width="65" height="62" viewBox="0 0 65 62" fill="none" xmlns="http://www.w3.org/2000/svg">
<path d="M12.9854 61.4013C14.167 62.3235 15.6655 62.0065 17.4523 60.7097L32.6972 49.4994L47.9709 60.7097C49.7576 62.0065 51.2273 62.3235 52.4377 61.4013C53.6193 60.508 53.8786 59.0382 53.1582 56.9633L47.1351 39.0095L62.5241 27.9721C64.3109 26.7041 65.0313 25.3496 64.5702 23.9375C64.1091 22.5254 62.7547 21.8338 60.5357 21.8626L41.6597 22.0067L35.9248 3.96641C35.2332 1.86267 34.1957 0.767578 32.6972 0.767578C31.2274 0.767578 30.19 1.86267 29.4983 3.96641L23.7635 22.0067L4.88748 21.8626C2.66847 21.8338 1.31401 22.5254 0.852916 23.9375C0.363005 25.3496 1.11228 26.7041 2.89902 27.9721L18.288 39.0095L12.265 56.9633C11.5445 59.0382 11.8039 60.508 12.9854 61.4013ZM17.1353 55.7241C17.0776 55.6377 17.1065 55.6088 17.1353 55.4359L22.8701 38.9807C23.2736 37.8568 23.043 36.9346 22.0344 36.2429L7.68286 26.3294C7.53877 26.243 7.50995 26.1853 7.53877 26.1277C7.56759 26.0412 7.62522 26.0412 7.79813 26.0412L25.2332 26.3294C26.4148 26.3582 27.164 25.8972 27.5387 24.7156L32.5531 8.0298C32.5819 7.85689 32.6395 7.79925 32.6972 7.79925C32.7836 7.79925 32.8413 7.85689 32.8701 8.0298L37.8845 24.7156C38.2591 25.8972 39.0084 26.3582 40.1899 26.3294L57.625 26.0412C57.7979 26.0412 57.8556 26.0412 57.8844 26.1277C57.9132 26.1853 57.8556 26.243 57.7403 26.3294L43.3888 36.2429C42.3801 36.9346 42.1496 37.8568 42.553 38.9807L48.2879 55.4359C48.3167 55.6088 48.3455 55.6377 48.2879 55.7241C48.2302 55.7818 48.1438 55.7529 48.0285 55.6665L34.1669 45.0902C33.2447 44.3697 32.1784 44.3697 31.2562 45.0902L17.3946 55.6665C17.2794 55.7529 17.1929 55.7818 17.1353 55.7241Z" fill="#393434"/>
</svg>
