<svg width="65" height="62" viewBox="0 0 65 62" fill="none" xmlns="http://www.w3.org/2000/svg">
<path d="M64.1152 28.3206L33.9973 1.38823C33.9447 1.33557 33.892 1.29608 33.8262 1.25659C33.168 0.624751 32.1149 0.598424 31.4173 1.2171L1.29941 28.1494C0.562256 28.8076 0.509602 29.9265 1.15461 30.6637C1.51002 31.0586 1.99707 31.256 2.48411 31.256C2.90534 31.256 3.32657 31.1112 3.66882 30.8085L9.09214 25.9512V26.8989V40.9574V57.3591C9.09214 59.8206 11.093 61.8346 13.5677 61.8346C13.6072 61.8346 13.6335 61.8346 13.673 61.8346C13.7125 61.8346 13.7388 61.8346 13.7783 61.8346H23.0717C25.3884 61.8346 27.2708 59.9522 27.2708 57.6355V41.6683C27.2708 41.3129 27.5604 41.0233 27.9158 41.0233H37.5119C37.8673 41.0233 38.1569 41.3129 38.1569 41.6683V57.6355C38.1569 59.9522 40.0393 61.8346 42.3561 61.8346H51.86C54.3611 61.8346 56.3356 59.3731 56.3356 56.227V41.5893V37.1137V26.1223L61.7589 30.9796C62.1012 31.2823 62.5224 31.4271 62.9436 31.4271C63.4307 31.4271 63.9177 31.2297 64.2731 30.8348C64.905 30.0976 64.8392 28.9787 64.1152 28.3206ZM52.7683 37.1006V41.5761V56.2007C52.7683 57.4775 52.1365 58.2542 51.8469 58.2542H42.3429C41.9875 58.2542 41.6979 57.9646 41.6979 57.6092V41.6683C41.6979 39.3515 39.8155 37.4691 37.4988 37.4691H27.9026C25.5859 37.4691 23.7035 39.3515 23.7035 41.6683V57.6355C23.7035 57.9909 23.4139 58.2805 23.0585 58.2805H13.7652C13.7257 58.2805 13.6993 58.2805 13.6598 58.2805C13.6204 58.2805 13.594 58.2805 13.5545 58.2805C13.0543 58.2805 12.6331 57.8724 12.6331 57.3591V40.9443V26.8858V22.7656L32.6151 4.91602L52.7683 22.9367V37.1006Z" fill="#393434"/>
</svg>
