<svg width="65" height="60" viewBox="0 0 65 60" fill="none" xmlns="http://www.w3.org/2000/svg">
<path d="M12.953 59.8857C16.7625 59.8857 24.5509 56.048 30.2792 51.9845C49.9477 52.5207 64.7061 41.205 64.7061 26.4184C64.7061 12.2244 50.4838 0.767578 32.7061 0.767578C14.9283 0.767578 0.706055 12.2244 0.706055 26.4184C0.706055 35.6741 6.63198 43.8857 15.5491 48.0057C14.2792 50.4889 11.9089 53.8187 10.639 55.4836C9.14344 57.4307 10.0464 59.8857 12.953 59.8857ZM15.9159 55.2014C15.6902 55.2861 15.6055 55.1168 15.7466 54.9475C17.3269 53.0004 19.5844 50.0656 20.5438 48.2314C21.3339 46.7923 21.1364 45.4942 19.3304 44.6476C10.4697 40.5277 5.39036 33.9528 5.39036 26.4184C5.39036 14.8769 17.4962 5.45188 32.7061 5.45188C47.9441 5.45188 60.05 14.8769 60.05 26.4184C60.05 37.988 47.9441 47.4131 32.7061 47.4131C32.1417 47.4131 31.2669 47.3849 30.1382 47.3566C28.953 47.3284 28.05 47.7235 26.9777 48.57C23.5068 51.0815 18.4838 54.1573 15.9159 55.2014Z" fill="#393434"/>
</svg>
