<svg width="65" height="65" viewBox="0 0 65 65" fill="none" xmlns="http://www.w3.org/2000/svg">
<path d="M32.5001 5.41666C27.1435 5.41666 21.9072 7.00507 17.4534 9.98102C12.9996 12.957 9.52823 17.1868 7.47836 22.1356C5.42848 27.0845 4.89214 32.53 5.93716 37.7837C6.98218 43.0373 9.56161 47.8631 13.3493 51.6508C17.137 55.4385 21.9627 58.0179 27.2164 59.0629C32.4701 60.1079 37.9156 59.5716 42.8644 57.5217C47.8133 55.4719 52.0431 52.0005 55.0191 47.5467C57.995 43.0929 59.5834 37.8566 59.5834 32.5C59.5834 28.9434 58.8829 25.4215 57.5218 22.1356C56.1608 18.8497 54.1658 15.8641 51.6509 13.3492C49.136 10.8343 46.1503 8.83932 42.8644 7.47825C39.5785 6.11719 36.0567 5.41666 32.5001 5.41666V5.41666ZM32.5001 54.1667C28.2148 54.1667 24.0258 52.8959 20.4627 50.5152C16.8997 48.1344 14.1226 44.7505 12.4827 40.7915C10.8428 36.8324 10.4137 32.476 11.2497 28.273C12.0858 24.0701 14.1493 20.2095 17.1794 17.1793C20.2096 14.1492 24.0702 12.0857 28.2731 11.2496C32.4761 10.4136 36.8325 10.8427 40.7916 12.4826C44.7506 14.1225 48.1345 16.8996 50.5153 20.4626C52.896 24.0257 54.1668 28.2147 54.1668 32.5C54.1668 38.2463 51.884 43.7574 47.8207 47.8206C43.7575 51.8839 38.2465 54.1667 32.5001 54.1667V54.1667Z" fill="#393434"/>
<path d="M40.6251 29.7917H35.2084V24.375C35.2084 23.6567 34.9231 22.9678 34.4152 22.4599C33.9073 21.952 33.2184 21.6667 32.5001 21.6667C31.7818 21.6667 31.0929 21.952 30.585 22.4599C30.0771 22.9678 29.7917 23.6567 29.7917 24.375V29.7917H24.3751C23.6568 29.7917 22.9679 30.077 22.46 30.5849C21.9521 31.0928 21.6667 31.7817 21.6667 32.5C21.6667 33.2183 21.9521 33.9072 22.46 34.4151C22.9679 34.923 23.6568 35.2083 24.3751 35.2083H29.7917V40.625C29.7917 41.3433 30.0771 42.0322 30.585 42.5401C31.0929 43.048 31.7818 43.3333 32.5001 43.3333C33.2184 43.3333 33.9073 43.048 34.4152 42.5401C34.9231 42.0322 35.2084 41.3433 35.2084 40.625V35.2083H40.6251C41.3434 35.2083 42.0323 34.923 42.5402 34.4151C43.0481 33.9072 43.3334 33.2183 43.3334 32.5C43.3334 31.7817 43.0481 31.0928 42.5402 30.5849C42.0323 30.077 41.3434 29.7917 40.6251 29.7917Z" fill="#393434"/>
</svg>
