<svg xmlns="http://www.w3.org/2000/svg" width="14" height="18" viewBox="0 0 14 18">
  <g id="Path_347" data-name="Path 347" fill="none">
    <path d="M7,18C3.236,14.406,1.262,11.136.453,8.4-1.716,1.067,4.478-2.44,7,1.889,9.522-2.44,15.716,1.067,13.547,8.4,12.738,11.136,10.764,14.406,7,18Z" stroke="none"/>
    <path d="M 7.000000953674316 16.60012435913086 C 9.871397018432617 13.71167945861816 11.79671859741211 10.79259967803955 12.58847141265869 8.116373062133789 C 13.28582096099854 5.758432865142822 13.08752059936523 3.605302810668945 12.04443073272705 2.209062814712524 C 11.47041130065918 1.440692782402039 10.69844055175781 1.000012874603271 9.926470756530762 1.000012874603271 C 9.11937141418457 1.000012874603271 8.386940956115723 1.4943528175354 7.864110946655273 2.391982793807983 L 7.000000953674316 3.875512838363647 L 6.135900974273682 2.391982793807983 C 5.613050937652588 1.494362831115723 4.880630970001221 1.000012874603271 4.073531150817871 1.000012874603271 C 3.301710844039917 1.000012874603271 2.529820919036865 1.440702795982361 1.955790996551514 2.209082841873169 C 0.9126009345054626 3.605442762374878 0.7142309546470642 5.758573055267334 1.411510944366455 8.11628246307373 C 2.20328164100647 10.79259300231934 4.128604888916016 13.71167945861816 7.000000953674316 16.60012435913086 M 7.000000953674316 18.00001335144043 C 3.236140966415405 14.40599250793457 1.262151002883911 11.13641262054443 0.4525909423828125 8.399972915649414 C -1.716179251670837 1.066671967506409 4.478490352630615 -2.440336465835571 7.000000953674316 1.888672828674316 C 9.521511077880859 -2.440337181091309 15.71619033813477 1.066672921180725 13.54741096496582 8.399972915649414 C 12.7378511428833 11.13641262054443 10.76386070251465 14.40599250793457 7.000000953674316 18.00001335144043 Z" stroke="none" fill="#000"/>
  </g>
</svg>
