<svg width="64" height="64" viewBox="0 0 64 64" fill="none" xmlns="http://www.w3.org/2000/svg">
<path opacity="0.9" fill-rule="evenodd" clip-rule="evenodd" d="M32 64C49.6731 64 64 49.6731 64 32C64 14.3269 49.6731 0 32 0C14.3269 0 0 14.3269 0 32C0 49.6731 14.3269 64 32 64Z" fill="white"/>
<path d="M34.8933 47.0532C35.3754 47.5174 35.9468 47.7674 36.6254 47.7674C38.0004 47.7674 39.1254 46.6603 39.1254 45.2853C39.1254 44.6067 38.8397 43.9639 38.3397 43.4817L26.1968 31.6603L38.3397 19.8746C38.8397 19.3746 39.1254 18.7317 39.1254 18.071C39.1254 16.696 38.0004 15.5889 36.6254 15.5889C35.929 15.5889 35.3576 15.821 34.8933 16.2853L21.1968 29.6782C20.5897 30.2674 20.2861 30.9103 20.2861 31.6782C20.2861 32.4282 20.5718 33.071 21.1968 33.6782L34.8933 47.0532Z" fill="#13A34C"/>
</svg>
