<svg width="10" height="10" viewBox="0 0 10 10" fill="none" xmlns="http://www.w3.org/2000/svg">
<path d="M3.64343 5.51777C3.64343 5.3925 3.54182 5.29102 3.41645 5.29102H2.62438C2.49915 5.29102 2.39752 5.3925 2.39752 5.51777V6.30974C2.39752 6.43517 2.49915 6.53669 2.62438 6.53669H3.41645C3.54182 6.53669 3.64343 6.43517 3.64343 6.30974V5.51777Z" fill="#13A34C"/>
<path d="M5.62291 5.51777C5.62291 5.3925 5.52128 5.29102 5.39616 5.29102H4.60399C4.47876 5.29102 4.37714 5.3925 4.37714 5.51777V6.30974C4.37714 6.43517 4.47876 6.53669 4.60399 6.53669H5.39616C5.52128 6.53669 5.62291 6.43517 5.62291 6.30974V5.51777Z" fill="#13A34C"/>
<path d="M7.60247 5.51777C7.60247 5.3925 7.50084 5.29102 7.37561 5.29102H6.58355C6.45817 5.29102 6.35657 5.3925 6.35657 5.51777V6.30974C6.35657 6.43517 6.45817 6.53669 6.58355 6.53669H7.37561C7.50084 6.53669 7.60247 6.43517 7.60247 6.30974V5.51777Z" fill="#13A34C"/>
<path d="M3.64343 7.49641C3.64343 7.37093 3.54182 7.26953 3.41645 7.26953H2.62438C2.49915 7.26953 2.39752 7.37093 2.39752 7.49641V8.28823C2.39752 8.41358 2.49915 8.51509 2.62438 8.51509H3.41645C3.54182 8.51509 3.64343 8.41356 3.64343 8.28823V7.49641Z" fill="#13A34C"/>
<path d="M5.62291 7.49641C5.62291 7.37093 5.52128 7.26953 5.39616 7.26953H4.60399C4.47876 7.26953 4.37714 7.37093 4.37714 7.49641V8.28823C4.37714 8.41358 4.47876 8.51509 4.60399 8.51509H5.39616C5.52128 8.51509 5.62291 8.41356 5.62291 8.28823V7.49641Z" fill="#13A34C"/>
<path d="M7.60247 7.49641C7.60247 7.37093 7.50084 7.26953 7.37572 7.26953H6.58355C6.45817 7.26953 6.35657 7.37093 6.35657 7.49641V8.28823C6.35657 8.41358 6.45817 8.51509 6.58355 8.51509H7.37572C7.50084 8.51509 7.60247 8.41356 7.60247 8.28823V7.49641Z" fill="#13A34C"/>
<path d="M9.01878 1.11372V2.32338C9.01878 2.87014 8.57523 3.31074 8.02855 3.31074H7.40389C6.85718 3.31074 6.40775 2.87014 6.40775 2.32338V1.10938H3.59223V2.32338C3.59223 2.87014 3.14282 3.31074 2.59619 3.31074H1.97141C1.42475 3.31074 0.981224 2.87014 0.981224 2.32338V1.11372C0.503443 1.12812 0.11084 1.52347 0.11084 2.0094V9.09861C0.11084 9.59368 0.512108 10.0003 1.00718 10.0003H8.9928C9.48714 10.0003 9.88914 9.59284 9.88914 9.09861V2.0094C9.88914 1.52347 9.49656 1.12812 9.01878 1.11372ZM8.72864 8.65715C8.72864 8.8711 8.55517 9.04467 8.34114 9.04467H1.64178C1.42774 9.04467 1.25427 8.8711 1.25427 8.65715V4.99532C1.25427 4.78128 1.42772 4.60771 1.64178 4.60771H8.34112C8.55515 4.60771 8.72862 4.78128 8.72862 4.99532L8.72864 8.65715Z" fill="#13A34C"/>
<path d="M1.96918 2.66198H2.58707C2.77461 2.66198 2.92667 2.51014 2.92667 2.3226V0.339505C2.92667 0.15194 2.77461 0 2.58707 0H1.96918C1.78162 0 1.62958 0.15194 1.62958 0.339505V2.3226C1.62958 2.51014 1.78162 2.66198 1.96918 2.66198Z" fill="#13A34C"/>
<path d="M7.39592 2.66198H8.0138C8.20122 2.66198 8.35329 2.51014 8.35329 2.3226V0.339505C8.35331 0.15194 8.20124 0 8.0138 0H7.39592C7.2084 0 7.05634 0.15194 7.05634 0.339505V2.3226C7.05634 2.51014 7.2084 2.66198 7.39592 2.66198Z" fill="#13A34C"/>
</svg>
