<svg width="38" height="33" viewBox="0 0 38 33" fill="none" xmlns="http://www.w3.org/2000/svg">
<path d="M34.453 5H28.4764L27.0526 1.00977C26.9542 0.736725 26.774 0.500711 26.5364 0.333964C26.2989 0.167217 26.0157 0.077869 25.7255 0.0781256H12.243C11.6498 0.0781256 11.118 0.451661 10.9203 1.00977L9.49207 5H3.5155C1.57312 5 -0.00012207 6.57324 -0.00012207 8.51563V28.5547C-0.00012207 30.4971 1.57312 32.0703 3.5155 32.0703H34.453C36.3954 32.0703 37.9686 30.4971 37.9686 28.5547V8.51563C37.9686 6.57324 36.3954 5 34.453 5ZM18.9843 25.0391C15.0995 25.0391 11.953 21.8926 11.953 18.0078C11.953 14.123 15.0995 10.9766 18.9843 10.9766C22.869 10.9766 26.0155 14.123 26.0155 18.0078C26.0155 21.8926 22.869 25.0391 18.9843 25.0391ZM14.7655 18.0078C14.7655 19.1267 15.21 20.1998 16.0011 20.9909C16.7923 21.7821 17.8654 22.2266 18.9843 22.2266C20.1031 22.2266 21.1762 21.7821 21.9674 20.9909C22.7585 20.1998 23.203 19.1267 23.203 18.0078C23.203 16.8889 22.7585 15.8159 21.9674 15.0247C21.1762 14.2335 20.1031 13.7891 18.9843 13.7891C17.8654 13.7891 16.7923 14.2335 16.0011 15.0247C15.21 15.8159 14.7655 16.8889 14.7655 18.0078Z" fill="#13A34C"/>
</svg>
