<svg width="17" height="18" viewBox="0 0 17 18" fill="none" xmlns="http://www.w3.org/2000/svg">
<path d="M12.3635 11.7362C12.3635 12.1651 12.0168 12.5135 11.5908 12.5135H5.409C4.98302 12.5135 4.63627 12.1651 4.63627 11.7362C4.63627 11.3066 4.29028 10.959 3.86355 10.959C3.43681 10.959 3.09082 11.3066 3.09082 11.7362C3.09082 13.022 4.13068 14.0679 5.409 14.0679H11.5908C12.8691 14.0679 13.909 13.022 13.909 11.7362C13.909 11.3066 13.563 10.959 13.1363 10.959C12.7095 10.959 12.3635 11.3066 12.3635 11.7362Z" fill="white"/>
<path d="M11.5908 3.1875H5.409C4.13068 3.1875 3.09082 4.23341 3.09082 5.51918C3.09082 5.94878 3.43681 6.2964 3.86355 6.2964C4.29028 6.2964 4.63627 5.94878 4.63627 5.51918C4.63627 5.09034 4.98302 4.74195 5.409 4.74195H11.5908C12.0168 4.74195 12.3635 5.09034 12.3635 5.51918C12.3635 5.94878 12.7095 6.2964 13.1363 6.2964C13.563 6.2964 13.909 5.94878 13.909 5.51918C13.909 4.23341 12.8691 3.1875 11.5908 3.1875Z" fill="white"/>
<path d="M0.77273 3.96423C1.19947 3.96423 1.54546 3.61661 1.54546 3.18701V2.40979C1.54546 1.98095 1.89221 1.63257 2.31819 1.63257H3.09092C3.51765 1.63257 3.86365 1.28494 3.86365 0.855347C3.86365 0.42575 3.51765 0.078125 3.09092 0.078125H2.31819C1.03986 0.078125 0 1.12403 0 2.40979V3.18701C0 3.61661 0.345993 3.96423 0.77273 3.96423Z" fill="white"/>
<path d="M14.6817 0.078125H13.909C13.4822 0.078125 13.1362 0.42575 13.1362 0.855347C13.1362 1.28494 13.4822 1.63257 13.909 1.63257H14.6817C15.1077 1.63257 15.4544 1.98095 15.4544 2.40979V3.18701C15.4544 3.61661 15.8004 3.96423 16.2271 3.96423C16.6539 3.96423 16.9999 3.61661 16.9999 3.18701V2.40979C16.9999 1.12403 15.96 0.078125 14.6817 0.078125Z" fill="white"/>
<path d="M2.31819 17.1771H3.09092C3.51765 17.1771 3.86365 16.8295 3.86365 16.3999C3.86365 15.9703 3.51765 15.6227 3.09092 15.6227H2.31819C1.89221 15.6227 1.54546 15.2743 1.54546 14.8455V14.0682C1.54546 13.6386 1.19947 13.291 0.77273 13.291C0.345993 13.291 0 13.6386 0 14.0682V14.8455C0 16.1312 1.03986 17.1771 2.31819 17.1771Z" fill="white"/>
<path d="M16.2271 13.291C15.8004 13.291 15.4544 13.6386 15.4544 14.0682V14.8455C15.4544 15.2743 15.1077 15.6227 14.6817 15.6227H13.909C13.4822 15.6227 13.1362 15.9703 13.1362 16.3999C13.1362 16.8295 13.4822 17.1771 13.909 17.1771H14.6817C15.96 17.1771 16.9999 16.1312 16.9999 14.8455V14.0682C16.9999 13.6386 16.6539 13.291 16.2271 13.291Z" fill="white"/>
<path d="M15.4545 8.62683C15.4545 8.19723 15.1085 7.84961 14.6817 7.84961H2.31814C1.8914 7.84961 1.54541 8.19723 1.54541 8.62683C1.54541 9.05643 1.8914 9.40405 2.31814 9.40405H14.6817C15.1085 9.40405 15.4545 9.05643 15.4545 8.62683Z" fill="white"/>
</svg>
