<svg width="18" height="17" viewBox="0 0 18 17" fill="none" xmlns="http://www.w3.org/2000/svg">
<path d="M10.8889 16.8331L8.71116 14.1109H4.66672C4.46044 14.1109 4.26261 14.029 4.11675 13.8831C3.97089 13.7372 3.88894 13.5394 3.88894 13.3331V4.85767C3.88894 4.65139 3.97089 4.45356 4.11675 4.3077C4.26261 4.16184 4.46044 4.07989 4.66672 4.07989H17.1112C17.3174 4.07989 17.5153 4.16184 17.6611 4.3077C17.807 4.45356 17.8889 4.65139 17.8889 4.85767V13.3331C17.8889 13.5394 17.807 13.7372 17.6611 13.8831C17.5153 14.029 17.3174 14.1109 17.1112 14.1109H13.0667L10.8889 16.8331ZM12.3193 12.5553H16.3334V5.63545H5.4445V12.5553H9.45861L10.8889 14.3427L12.3193 12.5553ZM1.55561 0.888672H14.7778V2.44423H2.33339V10.9998H0.777832V1.66645C0.777832 1.46017 0.859776 1.26234 1.00564 1.11648C1.1515 0.970616 1.34933 0.888672 1.55561 0.888672Z" fill="#F3960B"/>
</svg>
