<svg xmlns="http://www.w3.org/2000/svg" width="64" height="43" viewBox="0 0 64 43">
  <g id="noun_Cross_1707162" transform="translate(-30.737 -30.736)">
    <g id="Group_46" data-name="Group 46" transform="translate(30.737 30.736)">
      <path id="Path_154" data-name="Path 154" d="M32.2,984.079a6.822,6.822,0,0,1,7.048,0l23.493,15.784,23.493-15.784a6.822,6.822,0,0,1,7.048,0c1.946,1.308,1.946,3.428,0,4.735L69.784,1004.6l23.493,15.784c1.946,1.308,1.946,3.428,0,4.735a6.822,6.822,0,0,1-7.048,0l-23.493-15.784-23.493,15.784a6.822,6.822,0,0,1-7.048,0c-1.946-1.308-1.946-3.428,0-4.735L55.689,1004.6,32.2,988.814C30.25,987.507,30.25,985.387,32.2,984.079Z" transform="translate(-30.737 -983.098)" fill="red"/>
    </g>
  </g>
</svg>
