<svg width="18" height="19" viewBox="0 0 18 19" fill="none" xmlns="http://www.w3.org/2000/svg">
<path d="M7.86762 1.75055L4.12512 3.16055C3.26262 3.48305 2.55762 4.50305 2.55762 5.41805V10.9905C2.55762 11.8755 3.14262 13.038 3.85512 13.5705L7.08012 15.978C8.13762 16.773 9.87762 16.773 10.9351 15.978L14.1601 13.5705C14.8726 13.038 15.4576 11.8755 15.4576 10.9905V5.41805C15.4576 4.49555 14.7526 3.47555 13.8901 3.15305L10.1476 1.75055C9.51012 1.51805 8.49012 1.51805 7.86762 1.75055Z" stroke="#F3960B" stroke-width="1.5" stroke-linecap="round" stroke-linejoin="round"/>
<path d="M9 9.45312C9.82843 9.45312 10.5 8.78155 10.5 7.95312C10.5 7.1247 9.82843 6.45312 9 6.45312C8.17157 6.45312 7.5 7.1247 7.5 7.95312C7.5 8.78155 8.17157 9.45312 9 9.45312Z" stroke="#F3960B" stroke-width="1.5" stroke-miterlimit="10" stroke-linecap="round" stroke-linejoin="round"/>
<path d="M9 9.45312V11.7031" stroke="#F3960B" stroke-width="1.5" stroke-miterlimit="10" stroke-linecap="round" stroke-linejoin="round"/>
</svg>
