<svg width="24" height="20" viewBox="0 0 24 20" fill="none" xmlns="http://www.w3.org/2000/svg">
<path d="M0.75 12.8066C0.948912 12.8066 1.13968 12.8824 1.28033 13.0173C1.42098 13.1523 1.5 13.3352 1.5 13.526V17.123C1.5 17.5046 1.65804 17.8705 1.93934 18.1403C2.22064 18.4102 2.60218 18.5617 3 18.5617H21C21.3978 18.5617 21.7794 18.4102 22.0607 18.1403C22.342 17.8705 22.5 17.5046 22.5 17.123V13.526C22.5 13.3352 22.579 13.1523 22.7197 13.0173C22.8603 12.8824 23.0511 12.8066 23.25 12.8066C23.4489 12.8066 23.6397 12.8824 23.7803 13.0173C23.921 13.1523 24 13.3352 24 13.526V17.123C24 17.8861 23.6839 18.6181 23.1213 19.1577C22.5587 19.6973 21.7956 20.0005 21 20.0005H3C2.20435 20.0005 1.44129 19.6973 0.87868 19.1577C0.316071 18.6181 0 17.8861 0 17.123V13.526C0 13.3352 0.0790176 13.1523 0.21967 13.0173C0.360322 12.8824 0.551088 12.8066 0.75 12.8066Z" fill="white"/>
<path d="M11.4691 15.6165C11.5388 15.6834 11.6215 15.7366 11.7126 15.7729C11.8038 15.8091 11.9014 15.8278 12.0001 15.8278C12.0987 15.8278 12.1964 15.8091 12.2875 15.7729C12.3787 15.7366 12.4614 15.6834 12.5311 15.6165L17.0311 11.3001C17.1719 11.1651 17.251 10.9818 17.251 10.7908C17.251 10.5998 17.1719 10.4166 17.0311 10.2815C16.8903 10.1464 16.6993 10.0705 16.5001 10.0705C16.3009 10.0705 16.1099 10.1464 15.9691 10.2815L12.7501 13.3705V0.719387C12.7501 0.528594 12.6711 0.345615 12.5304 0.210704C12.3898 0.0757923 12.199 0 12.0001 0C11.8012 0 11.6104 0.0757923 11.4698 0.210704C11.3291 0.345615 11.2501 0.528594 11.2501 0.719387V13.3705L8.03109 10.2815C7.89026 10.1464 7.69926 10.0705 7.50009 10.0705C7.30093 10.0705 7.10992 10.1464 6.96909 10.2815C6.82826 10.4166 6.74915 10.5998 6.74915 10.7908C6.74915 10.9818 6.82826 11.1651 6.96909 11.3001L11.4691 15.6165Z" fill="white"/>
</svg>
