<svg width="11" height="11" viewBox="0 0 11 11" fill="none" xmlns="http://www.w3.org/2000/svg">
<circle cx="5.9458" cy="5.07812" r="5" fill="#13A34C"/>
<path d="M8.9458 8.41211H2.9458C2.80913 8.41211 2.6958 8.29878 2.6958 8.16211C2.6958 8.02544 2.80913 7.91211 2.9458 7.91211H8.9458C9.08247 7.91211 9.1958 8.02544 9.1958 8.16211C9.1958 8.29878 9.08247 8.41211 8.9458 8.41211Z" fill="white"/>
<path d="M8.28599 2.23736C7.63932 1.5907 7.00599 1.57403 6.34265 2.23736L5.93932 2.6407C5.90599 2.67403 5.89265 2.72736 5.90599 2.77403C6.15932 3.65736 6.86599 4.36403 7.74932 4.61736C7.76266 4.6207 7.77599 4.62403 7.78932 4.62403C7.82599 4.62403 7.85932 4.6107 7.88599 4.58403L8.28599 4.1807C8.61599 3.85403 8.77599 3.53736 8.77599 3.21736C8.77932 2.88736 8.61932 2.56736 8.28599 2.23736Z" fill="white"/>
<path d="M7.14908 4.92042C7.05241 4.87375 6.95908 4.82708 6.86908 4.77375C6.79574 4.73042 6.72574 4.68375 6.65574 4.63375C6.59908 4.59708 6.53241 4.54375 6.46908 4.49042C6.46241 4.48708 6.43908 4.46708 6.41241 4.44042C6.30241 4.34708 6.17908 4.22708 6.06908 4.09375C6.05908 4.08708 6.04241 4.06375 6.01908 4.03375C5.98574 3.99375 5.92908 3.92708 5.87908 3.85042C5.83908 3.80042 5.79241 3.72708 5.74908 3.65375C5.69574 3.56375 5.64908 3.47375 5.60241 3.38042C5.54122 3.2493 5.36914 3.21035 5.26683 3.31266L3.39241 5.18708C3.34908 5.23042 3.30908 5.31375 3.29908 5.37042L3.11908 6.64708C3.08574 6.87375 3.14908 7.08708 3.28908 7.23042C3.40908 7.34708 3.57574 7.41042 3.75574 7.41042C3.79574 7.41042 3.83574 7.40708 3.87574 7.40042L5.15574 7.22042C5.21574 7.21042 5.29908 7.17042 5.33908 7.12708L7.21659 5.24957C7.31685 5.14931 7.27918 4.9768 7.14908 4.92042Z" fill="white"/>
</svg>
