<svg width="20" height="22" viewBox="0 0 20 22" fill="none" xmlns="http://www.w3.org/2000/svg">
<g opacity="0.8">
<path d="M0.807195 5.53246C0.0688982 5.8647 -0.189506 6.75065 0.142728 7.48895L4.794 17.1976L7.37804 15.9794L2.72677 6.23384C2.39453 5.49555 1.54549 5.16331 0.807195 5.53246Z" fill="#13A34C"/>
<path d="M13.0259 13.2507L15.7576 11.9587L10.4419 0.884235C10.0727 0.145938 9.18679 -0.186296 8.41158 0.182853C7.67328 0.552001 7.34105 1.43796 7.7102 2.21317L13.0259 13.2507Z" fill="#13A34C"/>
<path d="M8.44878 0.150806C8.37495 0.187721 8.30112 0.224635 8.22729 0.298465C8.92868 0.113891 9.66698 0.446125 9.99921 1.11059L15.3149 12.1851L15.7948 11.9636L10.4791 0.889103C10.11 0.113891 9.224 -0.218343 8.44878 0.150806Z" fill="#09662E"/>
<path d="M7.37832 15.9503L10.2208 14.5844L4.79428 3.28847C4.42513 2.51326 3.46534 2.14411 2.69013 2.51326C1.91492 2.88241 1.58268 3.84219 1.95183 4.6174L7.37832 15.9503Z" fill="#13A34C"/>
<path d="M2.68951 2.55042C2.61568 2.58733 2.54185 2.62425 2.46802 2.69808C3.1694 2.5135 3.98153 2.84574 4.31376 3.54712L7.67301 10.5979L8.48514 11.0778L4.79365 3.32563C4.42451 2.5135 3.50163 2.18127 2.68951 2.55042Z" fill="#09662E"/>
<path d="M9.77724 13.6978L12.6197 12.332L7.1932 1.03602C6.82405 0.260812 5.86427 -0.108336 5.08905 0.297727C4.31384 0.666876 3.98161 1.62666 4.35076 2.40187L9.77724 13.6978Z" fill="#13A34C"/>
<path d="M5.08892 0.259403C5.01509 0.296318 4.94126 0.370147 4.86743 0.407062C5.56881 0.222488 6.38094 0.554722 6.71317 1.2561L10.5154 9.22971L11.3275 9.70961L7.19307 1.03461C6.82392 0.222488 5.86413 -0.109746 5.08892 0.259403Z" fill="#09662E"/>
<path d="M0.806939 5.53752C0.733109 5.57444 0.659279 5.61135 0.585449 5.68518C1.24992 5.50061 1.9513 5.83284 2.24662 6.49731L5.01523 12.2929L5.82736 12.7728L2.72651 6.27582C2.39428 5.50061 1.54524 5.16838 0.806939 5.53752Z" fill="#09662E"/>
<path d="M19.5598 4.43128C18.5631 3.65607 16.9389 4.50511 16.1268 7.16298C15.573 9.00873 15.4992 9.56245 14.3179 10.1162L13.6535 8.75032C13.6535 8.75032 3.16964 13.8077 3.57571 14.6198C3.57571 14.6198 4.83081 18.5328 6.97188 20.3416C10.1466 23.0733 17.5664 20.157 17.8987 13.1063C18.0832 9.00873 20.6304 5.28032 19.5598 4.43128Z" fill="#13A34C"/>
<path d="M19.5598 4.43223C19.3752 4.28457 19.1537 4.21074 18.9322 4.17383C18.9691 4.21074 19.043 4.21074 19.0799 4.24766C20.1873 5.0967 19.043 7.05319 18.4154 8.8251C17.8986 10.2279 17.4556 11.6675 17.5295 13.0703C17.8248 19.1982 11.66 22.1145 7.96851 21.007C11.5862 22.5205 18.3047 19.6412 18.0094 13.2549C17.9355 11.8521 18.3416 10.4863 18.8953 9.00968C19.4859 7.23776 20.6303 5.28127 19.5598 4.43223Z" fill="#09662E"/>
<path d="M14.65 9.9668C12.3613 10.2252 9.00201 13.5106 11.3646 17.0914C9.62957 13.4737 12.472 11.0373 14.2808 10.1883C14.4654 10.0406 14.65 9.9668 14.65 9.9668Z" fill="#09662E"/>
</g>
</svg>
