<svg width="49" height="31" viewBox="0 0 49 31" fill="none" xmlns="http://www.w3.org/2000/svg">
<path d="M30.567 27.4509H17.5844V3.86523H30.567V27.4509Z" fill="#FF5F00"/>
<path d="M18.416 15.6562C18.416 10.8718 20.6321 6.6099 24.083 3.86338C21.5594 1.85499 18.3745 0.65625 14.9132 0.65625C6.71886 0.65625 0.076416 7.37187 0.076416 15.6562C0.076416 23.9406 6.71886 30.6562 14.9132 30.6562C18.3745 30.6562 21.5594 29.4575 24.083 27.4491C20.6321 24.7026 18.416 20.4407 18.416 15.6562Z" fill="#EB001B"/>
<path d="M48.0764 15.6562C48.0764 23.9406 41.4339 30.6562 33.2396 30.6562C29.7783 30.6562 26.5934 29.4575 24.0688 27.4491C27.5207 24.7026 29.7368 20.4407 29.7368 15.6562C29.7368 10.8718 27.5207 6.6099 24.0688 3.86338C26.5934 1.85499 29.7783 0.65625 33.2396 0.65625C41.4339 0.65625 48.0764 7.37187 48.0764 15.6562Z" fill="#F79E1B"/>
</svg>
