<svg width="32" height="32" viewBox="0 0 32 32" fill="none" xmlns="http://www.w3.org/2000/svg">
<path opacity="0.4" d="M25.7334 10.56V17.4267C25.7334 21.5333 23.3867 23.2933 19.8667 23.2933H8.14669C7.54669 23.2933 6.97336 23.24 6.44002 23.12C6.10669 23.0667 5.7867 22.9734 5.49337 22.8667C3.49337 22.12 2.28003 20.3867 2.28003 17.4267V10.56C2.28003 6.45331 4.62669 4.69336 8.14669 4.69336H19.8667C22.8534 4.69336 25 5.96002 25.5734 8.85335C25.6667 9.38669 25.7334 9.93331 25.7334 10.56Z" fill="#13A34C"/>
<path d="M29.7333 14.5601V21.4268C29.7333 25.5335 27.3866 27.2935 23.8666 27.2935H12.1466C11.1599 27.2935 10.2666 27.1602 9.49329 26.8669C7.90662 26.2802 6.82661 25.0669 6.43994 23.1202C6.97327 23.2402 7.54661 23.2935 8.14661 23.2935H19.8666C23.3866 23.2935 25.7333 21.5335 25.7333 17.4268V10.5601C25.7333 9.93347 25.68 9.37352 25.5733 8.85352C28.1066 9.38685 29.7333 11.1735 29.7333 14.5601Z" fill="#13A34C"/>
<path d="M14 17.5205C15.944 17.5205 17.52 15.9445 17.52 14.0005C17.52 12.0564 15.944 10.4805 14 10.4805C12.056 10.4805 10.48 12.0564 10.48 14.0005C10.48 15.9445 12.056 17.5205 14 17.5205Z" fill="#13A34C"/>
<path d="M6.37329 11C5.82662 11 5.37329 11.4533 5.37329 12V16C5.37329 16.5467 5.82662 17 6.37329 17C6.91996 17 7.37329 16.5467 7.37329 16V12C7.37329 11.4533 6.93329 11 6.37329 11Z" fill="#13A34C"/>
<path d="M21.6133 11C21.0666 11 20.6133 11.4533 20.6133 12V16C20.6133 16.5467 21.0666 17 21.6133 17C22.1599 17 22.6133 16.5467 22.6133 16V12C22.6133 11.4533 22.1733 11 21.6133 11Z" fill="#13A34C"/>
</svg>
