<svg width="15" height="15" viewBox="0 0 15 15" fill="none" xmlns="http://www.w3.org/2000/svg">
<path fill-rule="evenodd" clip-rule="evenodd" d="M7.5 15C11.6421 15 15 11.6421 15 7.5C15 3.35786 11.6421 0 7.5 0C3.35786 0 0 3.35786 0 7.5C0 11.6421 3.35786 15 7.5 15ZM7.57791 13.8737C11.0849 13.8737 13.9279 11.0307 13.9279 7.52371C13.9279 4.0167 11.0849 1.17371 7.57791 1.17371C4.0709 1.17371 1.22791 4.0167 1.22791 7.52371C1.22791 11.0307 4.0709 13.8737 7.57791 13.8737ZM6.54964 9.41671L4.24186 7.48025C3.98801 7.26725 3.60956 7.30036 3.39656 7.5542C3.18356 7.80805 3.21667 8.1865 3.47051 8.3995L6.23294 10.7175C6.45341 10.9025 6.76787 10.9018 6.9863 10.7321C7.02788 10.7028 7.0664 10.6677 7.10064 10.6269L11.4672 5.4231C11.6802 5.16926 11.6471 4.7908 11.3932 4.5778C11.1394 4.3648 10.7609 4.39791 10.5479 4.65176L6.54964 9.41671Z" fill="#B2B2B2"/>
</svg>
