<svg width="24" height="24" viewBox="0 0 24 24" fill="none" xmlns="http://www.w3.org/2000/svg">
<path d="M21.2704 9.18029C20.9804 8.72029 20.6704 8.29029 20.3504 7.89029C19.9804 7.42029 19.2804 7.38029 18.8604 7.80029L15.8604 10.8003C16.0804 11.4603 16.1204 12.2203 15.9204 13.0103C15.5704 14.4203 14.4304 15.5603 13.0204 15.9103C12.2304 16.1103 11.4704 16.0703 10.8104 15.8503C10.8104 15.8503 9.38044 17.2803 8.35044 18.3103C7.85044 18.8103 8.01044 19.6903 8.68044 19.9503C9.75044 20.3603 10.8604 20.5703 12.0004 20.5703C13.7804 20.5703 15.5104 20.0503 17.0904 19.0803C18.7004 18.0803 20.1504 16.6103 21.3204 14.7403C22.2704 13.2303 22.2204 10.6903 21.2704 9.18029Z" fill="#F3960B"/>
<path d="M14.0196 9.97965L9.97965 14.0196C9.46965 13.4996 9.13965 12.7796 9.13965 11.9996C9.13965 10.4296 10.4196 9.13965 11.9996 9.13965C12.7796 9.13965 13.4996 9.46965 14.0196 9.97965Z" fill="#F3960B"/>
<path d="M18.25 5.74969L14.86 9.13969C14.13 8.39969 13.12 7.95969 12 7.95969C9.76 7.95969 7.96 9.76969 7.96 11.9997C7.96 13.1197 8.41 14.1297 9.14 14.8597L5.76 18.2497H5.75C4.64 17.3497 3.62 16.1997 2.75 14.8397C1.75 13.2697 1.75 10.7197 2.75 9.14969C3.91 7.32969 5.33 5.89969 6.91 4.91969C8.49 3.95969 10.22 3.42969 12 3.42969C14.23 3.42969 16.39 4.24969 18.25 5.74969Z" fill="#F3960B"/>
<path d="M14.8601 12.0001C14.8601 13.5701 13.5801 14.8601 12.0001 14.8601C11.9401 14.8601 11.8901 14.8601 11.8301 14.8401L14.8401 11.8301C14.8601 11.8901 14.8601 11.9401 14.8601 12.0001Z" fill="#F3960B"/>
<path d="M21.7699 2.22988C21.4699 1.92988 20.9799 1.92988 20.6799 2.22988L2.22988 20.6899C1.92988 20.9899 1.92988 21.4799 2.22988 21.7799C2.37988 21.9199 2.56988 21.9999 2.76988 21.9999C2.96988 21.9999 3.15988 21.9199 3.30988 21.7699L21.7699 3.30988C22.0799 3.00988 22.0799 2.52988 21.7699 2.22988Z" fill="#F3960B"/>
</svg>
