<svg width="126" height="126" viewBox="0 0 126 126" fill="none" xmlns="http://www.w3.org/2000/svg">
<g clip-path="url(#clip0_860_1614)">
<path d="M60.8055 6.58591e-07C35.0233 -0.00384456 12.2625 16.8305 4.71723 41.4831C-2.82804 66.1358 6.61196 92.8254 27.9798 107.252H28.0019L45.5986 119.482V121.655C45.6053 124.051 47.5462 125.993 49.9427 126H86.8741C89.2706 125.993 91.2124 124.051 91.2192 121.655V108.816C91.4143 108.686 91.6104 108.577 91.8056 108.447C92.7611 107.839 93.7176 107.208 94.6299 106.557C94.6328 106.58 94.6395 106.602 94.651 106.622C94.9202 107.188 95.3057 107.691 95.7815 108.1C95.9334 108.251 96.1074 108.425 96.2804 108.577C96.6015 108.856 96.9428 109.111 97.3013 109.338C97.4763 109.481 97.6657 109.604 97.8666 109.707C98.0704 109.821 98.2809 109.923 98.4962 110.011C98.6722 110.096 98.8539 110.169 99.0394 110.228C99.322 110.337 99.6046 110.424 99.8873 110.511C100.602 110.702 101.341 110.797 102.081 110.793C104.552 110.797 106.908 109.745 108.555 107.903C119.606 95.5382 125.796 79.5835 125.978 63C126.239 43.448 112.943 6.58591e-07 60.8055 6.58591e-07Z" fill="#F0C419"/>
<path d="M17.661 98.3876C16.8574 99.4085 16.0095 100.408 15.1405 101.386C11.9317 104.936 6.45609 105.224 2.89158 102.031C-0.672938 98.8375 -0.984401 93.3628 2.19367 89.7849C4.11532 87.6325 5.85239 85.3215 7.38567 82.877L17.661 98.3876Z" fill="#263238"/>
<path d="M125.978 63C125.796 79.5835 119.606 95.5382 108.555 107.903C106.908 109.745 104.552 110.797 102.081 110.793C101.341 110.797 100.602 110.702 99.8873 110.511C99.6046 110.424 99.322 110.337 99.0394 110.228C98.8539 110.169 98.6722 110.096 98.4962 110.011C98.2809 109.923 98.0704 109.821 97.8666 109.707C97.6657 109.604 97.4763 109.481 97.3013 109.338C96.9428 109.111 96.6015 108.856 96.2804 108.577C96.1074 108.425 95.9334 108.251 95.7815 108.1C95.3057 107.691 94.9202 107.188 94.651 106.622C94.6395 106.602 94.6328 106.58 94.6299 106.557C93.7176 107.208 92.7611 107.839 91.8056 108.447C91.6104 108.577 91.4143 108.686 91.2192 108.816C85.8887 112.056 80.0719 114.418 73.9917 115.811H73.9263L73.8398 115.138C71.647 109.87 66.5108 106.429 60.8055 106.405H58.6329C53.4515 106.412 48.7642 109.48 46.6849 114.226C46.5099 114.637 46.358 115.057 46.2282 115.485C45.8082 116.769 45.5957 118.111 45.5986 119.461V119.482L28.0019 107.252H27.9798C6.61196 92.8254 -2.82804 66.1358 4.71723 41.4831C12.2625 16.8305 35.0233 -0.00384456 60.8055 6.58591e-07C112.943 6.58591e-07 126.239 43.448 125.978 63Z" fill="#13A34C"/>
<path d="M94.6298 106.556C93.7175 107.208 92.761 107.838 91.8054 108.446C88.3621 105.215 88.1217 99.8277 91.2623 96.3026C97.9607 88.8294 102.246 79.5077 103.556 69.5582C103.863 67.1866 105.882 65.4121 108.273 65.4102C107.729 76.8583 103.256 87.7682 95.6074 96.3026C93.0753 99.1394 92.6793 103.292 94.6298 106.556Z" fill="#263238"/>
<path d="M46.6847 114.227C44.6092 109.478 39.9181 106.41 34.7357 106.412H32.5641C25.3601 106.424 19.5278 112.267 19.5288 119.471V121.648C19.5336 124.046 21.4754 125.991 23.8739 126.001H60.8053L46.6847 114.227Z" fill="#2C3E50"/>
<path d="M91.219 108.815V121.654C91.2123 124.051 89.2704 125.993 86.8739 126H49.9425C47.546 125.993 45.6051 124.051 45.5984 121.654V119.461C45.5955 118.11 45.808 116.768 46.2281 115.485C46.3578 115.057 46.5097 114.637 46.6847 114.225C48.764 109.48 53.4513 106.412 58.6327 106.404H60.8053C66.5106 106.428 71.6469 109.87 73.8396 115.138L73.9915 115.811C80.0717 114.418 85.8886 112.056 91.219 108.815Z" fill="#35495E"/>
<path d="M94.6509 106.621C94.9825 107.147 95.3603 107.641 95.7814 108.099C95.3055 107.69 94.92 107.187 94.6509 106.621Z" fill="#F0C419"/>
<path d="M91.219 108.816V113.161C87.1604 115.628 82.8153 117.589 78.2808 119C77.2714 119.306 76.1784 119.115 75.3334 118.486C74.4875 117.857 73.9895 116.865 73.9915 115.812C80.0717 114.419 85.8886 112.057 91.219 108.816Z" fill="#2C3E50"/>
<path d="M41.809 26.2406C41.5216 28.6294 40.5372 30.8789 38.977 32.7102C37.4264 34.6049 35.4346 36.0901 33.1774 37.037C30.9491 37.9579 28.5536 38.4078 26.1436 38.3578C24.9775 38.328 23.8153 38.204 22.6694 37.9858C21.5553 37.7109 20.4594 37.3638 19.3895 36.9486C19.0424 36.814 18.83 36.4621 18.8732 36.093C18.9165 35.7229 19.203 35.4287 19.5711 35.3768L19.6702 35.3634C20.7689 35.2115 21.8244 35.1836 22.8636 35.1154C23.8961 34.9529 24.9227 34.9231 25.9071 34.7308C27.8336 34.4261 29.7206 33.9051 31.5317 33.1793C33.289 32.4006 34.9386 31.3999 36.4411 30.2031C38.0339 28.9159 39.4913 27.4711 40.7919 25.8897L40.841 25.8311C40.9957 25.6465 41.2534 25.584 41.4764 25.6782C41.6984 25.7724 41.834 26.0003 41.8099 26.2406H41.809Z" fill="#0D7235"/>
<path d="M59.1423 25.8899C60.443 27.4712 61.9013 28.9161 63.4932 30.2023C64.9957 31.4001 66.6453 32.4008 68.4016 33.1785C70.2127 33.9052 72.0998 34.4263 74.0272 34.731C75.0116 34.9233 76.0373 34.9531 77.0697 35.1155C78.1089 35.1838 79.1634 35.2117 80.2632 35.3635L80.3612 35.377C80.7294 35.4289 81.0168 35.7221 81.0601 36.0922C81.1033 36.4614 80.8918 36.8141 80.5448 36.9487C79.4749 37.364 78.379 37.711 77.2639 37.986C76.118 38.2042 74.9568 38.3282 73.7897 38.358C71.3797 38.408 68.9851 37.9581 66.7568 37.0372C64.4987 36.0903 62.5079 34.6051 60.9563 32.7103C59.3971 30.8791 58.4118 28.6286 58.1253 26.2408C58.1003 26.0014 58.2349 25.7736 58.4569 25.6794C58.678 25.5842 58.9357 25.6448 59.0914 25.8284L59.1423 25.8899Z" fill="#0D7235"/>
<path d="M32.5641 60.8227C27.9604 60.7381 23.548 58.9655 20.1661 55.8412C19.3163 54.9943 19.3135 53.6187 20.1613 52.7689C21.0082 51.9191 22.3839 51.9172 23.2336 52.7641C25.8051 55.0674 29.112 56.3834 32.5641 56.4776C36.0171 56.4036 39.3288 55.0876 41.8897 52.7689C42.4357 52.2065 43.2422 51.9816 44.0007 52.1806C44.7592 52.3796 45.3513 52.9717 45.5503 53.7302C45.7493 54.4887 45.5244 55.2952 44.962 55.8412C41.5792 58.9655 37.1668 60.7381 32.5641 60.8227Z" fill="#263238"/>
<path d="M67.322 60.8227C62.7193 60.7381 58.3069 58.9655 54.9241 55.8412C54.0743 54.9943 54.0724 53.6187 54.9193 52.7689C55.7671 51.9191 57.1428 51.9172 57.9916 52.7641C60.564 55.0674 63.8709 56.3834 67.322 56.4776C70.776 56.4036 74.0877 55.0876 76.6486 52.7689C77.1946 52.2065 78.0011 51.9816 78.7596 52.1806C79.5181 52.3796 80.1102 52.9717 80.3092 53.7302C80.5082 54.4887 80.2832 55.2952 79.7199 55.8412C76.3381 58.9655 71.9257 60.7381 67.322 60.8227Z" fill="#263238"/>
<path d="M65.1495 86.893C63.9498 86.893 62.9779 85.9202 62.9779 84.7205V82.5479C62.976 81.3492 62.0041 80.3773 60.8054 80.3754H34.7358C33.5361 80.3754 32.5642 79.4035 32.5642 78.2038C32.5642 77.0031 33.5361 76.0312 34.7358 76.0312H60.8054C64.4026 76.0351 67.3182 78.9507 67.3221 82.5479V84.7205C67.3221 85.9202 66.3502 86.893 65.1495 86.893Z" fill="#263238"/>
<path d="M45.5985 89.0638H43.426C42.2263 89.0638 41.2534 88.091 41.2534 86.8913C41.2534 85.6916 42.2263 84.7188 43.426 84.7188H45.5985C46.7982 84.7188 47.7711 85.6916 47.7711 86.8913C47.7711 88.091 46.7982 89.0638 45.5985 89.0638Z" fill="#263238"/>
</g>
<defs>
<clipPath id="clip0_860_1614">
<rect width="126" height="126" fill="white"/>
</clipPath>
</defs>
</svg>
