<svg width="191" height="191" viewBox="0 0 191 191" fill="none" xmlns="http://www.w3.org/2000/svg">
<path d="M0 0V63.418H63.418V0H0ZM48.4961 48.4961H14.9219V14.9219H48.4961V48.4961Z" fill="black"/>
<path d="M39.1699 24.248H24.248V39.1699H39.1699V24.248Z" fill="black"/>
<path d="M127.582 0V63.418H191V0H127.582ZM176.078 48.4961H142.504V14.9219H176.078V48.4961Z" fill="black"/>
<path d="M166.752 24.248H151.83V39.1699H166.752V24.248Z" fill="black"/>
<path d="M0 127.582V191H63.418V127.582H0ZM48.4961 176.078H14.9219V142.504H48.4961V176.078Z" fill="black"/>
<path d="M39.1699 151.83H24.248V166.752H39.1699V151.83Z" fill="black"/>
<path d="M29.8438 73.4902H14.9219V88.4121H29.8438V73.4902Z" fill="black"/>
<path d="M44.7656 103.334V88.4121H29.8438V103.334H44.3926V118.256H59.3145V103.334H44.7656Z" fill="black"/>
<path d="M119.375 28.7246H104.453V43.6465H119.375V28.7246Z" fill="black"/>
<path d="M89.5312 14.9219H74.6094V43.6465H89.5312V14.9219Z" fill="black"/>
<path d="M104.453 0H89.5312V14.9219H104.453V0Z" fill="black"/>
<path d="M89.5312 43.6465V58.5684H74.6094V73.4902H104.453V43.6465H89.5312Z" fill="black"/>
<path d="M104.453 132.432V117.883H89.5312V88.4121H74.6094V118.256H89.5312V132.805H104.453V147.354H134.297V132.432H104.453Z" fill="black"/>
<path d="M119.375 73.4902H104.453V103.334H119.375V73.4902Z" fill="black"/>
<path d="M176.078 88.0391V73.4902H148.846V88.4121H134.297V103.334H149.219V117.883H191V88.0391H176.078ZM176.078 102.961H149.219V88.4121H176.078V102.961Z" fill="black"/>
<path d="M191 132.432H176.078V162.275H191V132.432Z" fill="black"/>
<path d="M134.297 103.334H119.375V118.256H134.297V103.334Z" fill="black"/>
<path d="M149.219 147.354H134.297V162.275H149.219V147.354Z" fill="black"/>
<path d="M164.141 132.432H149.219V147.354H164.141V132.432Z" fill="black"/>
<path d="M149.219 162.275V191H164.141V177.197H176.078V162.275H149.219Z" fill="black"/>
<path d="M89.5312 132.805H74.6094V161.156H89.5312V132.805Z" fill="black"/>
<path d="M119.375 176.078V161.156H89.5312V191H104.453V176.078H119.002V191H133.924V176.078H119.375Z" fill="black"/>
<path d="M74.6094 73.4902H44.7656V88.4121H74.6094V73.4902Z" fill="black"/>
<path d="M14.9219 88.4121H0V118.256H14.9219V88.4121Z" fill="black"/>
</svg>
