<svg width="17" height="16" viewBox="0 0 17 16" fill="none" xmlns="http://www.w3.org/2000/svg">
<path d="M7.06396 12.8877C8.4502 12.8877 9.72852 12.4395 10.7744 11.6924L14.709 15.627C14.8916 15.8096 15.1323 15.9009 15.3896 15.9009C15.9292 15.9009 16.311 15.4858 16.311 14.9546C16.311 14.7056 16.228 14.4648 16.0454 14.2905L12.1357 10.3726C12.9575 9.29346 13.4473 7.95703 13.4473 6.50439C13.4473 2.99316 10.5752 0.121094 7.06396 0.121094C3.56104 0.121094 0.680664 2.98486 0.680664 6.50439C0.680664 10.0156 3.55273 12.8877 7.06396 12.8877ZM7.06396 11.5098C4.32471 11.5098 2.05859 9.24365 2.05859 6.50439C2.05859 3.76514 4.32471 1.49902 7.06396 1.49902C9.80322 1.49902 12.0693 3.76514 12.0693 6.50439C12.0693 9.24365 9.80322 11.5098 7.06396 11.5098Z" fill="#13A34C"/>
</svg>
