<svg width="73" height="67" viewBox="0 0 73 67" fill="none" xmlns="http://www.w3.org/2000/svg">
<path d="M53.8462 66.3409C53.2715 66.3409 52.6844 66.2686 52.103 66.1178L5.06552 53.6304C1.43693 52.6382 -0.725745 48.9173 0.223314 45.3228L5.39412 25.6651C5.71048 24.4587 6.95472 23.726 8.17725 24.049C9.39421 24.3626 10.1272 25.5989 9.80803 26.8081L4.63666 46.469C4.31752 47.681 5.04435 48.9322 6.26131 49.264L53.2715 61.7454C54.4789 62.0618 55.726 61.35 56.0423 60.159L57.648 53.7359C57.9527 52.5239 59.1875 51.7879 60.41 52.0839C61.6331 52.3853 62.3783 53.6094 62.077 54.8214L60.4651 61.2749C59.6525 64.3294 56.8789 66.3409 53.8462 66.3409Z" fill="#F3F3F3"/>
<path d="M66.1561 48.248H19.009C15.2344 48.248 12.165 45.2051 12.165 41.4631V6.78482C12.165 3.0429 15.2344 0 19.009 0H66.1561C69.9306 0 73 3.0429 73 6.78482V41.4631C73 45.2051 69.9306 48.248 66.1561 48.248ZM19.009 4.52321C17.7497 4.52321 16.7276 5.53641 16.7276 6.78482V41.4631C16.7276 42.7116 17.7497 43.7247 19.009 43.7247H66.1561C67.4154 43.7247 68.4374 42.7116 68.4374 41.4631V6.78482C68.4374 5.53641 67.4154 4.52321 66.1561 4.52321H19.009Z" fill="#F3F3F3"/>
<path d="M27.3742 21.1091C24.0191 21.1091 21.2905 18.4041 21.2905 15.078C21.2905 11.7519 24.0191 9.04688 27.3742 9.04688C30.7293 9.04688 33.4573 11.7519 33.4573 15.078C33.4573 18.4041 30.7293 21.1091 27.3742 21.1091ZM27.3742 13.5701C26.5343 13.5701 25.8531 14.2459 25.8531 15.078C25.8531 15.9101 26.5343 16.5859 27.3742 16.5859C28.2135 16.5859 28.8947 15.9101 28.8947 15.078C28.8947 14.2459 28.2135 13.5701 27.3742 13.5701Z" fill="#F3F3F3"/>
<path d="M14.5072 45.171C13.9235 45.171 13.3393 44.9507 12.8954 44.5079C12.0043 43.6244 12.0043 42.1916 12.8954 41.3082L26.6439 27.6784C28.7247 25.6156 32.1099 25.6156 34.1874 27.6784L37.865 31.3242L49.1618 17.8811C50.1716 16.6807 51.6531 15.9872 53.2259 15.9784C54.9169 15.8851 56.2859 16.6476 57.3046 17.8331L72.4466 35.3466C73.2676 36.2936 73.1551 37.7231 72.1999 38.537C71.2419 39.3514 69.8033 39.2398 68.9818 38.2929L53.8341 20.7733C53.6331 20.5347 53.3869 20.5469 53.2499 20.5044C53.1196 20.5044 52.8667 20.5436 52.6662 20.7788L39.7692 36.1279C39.3582 36.616 38.7595 36.912 38.1206 36.939C37.4696 36.9749 36.8552 36.7276 36.4047 36.2787L30.9604 30.8809C30.5738 30.4977 30.2547 30.4977 29.8682 30.8809L16.1196 44.5079C15.6752 44.9507 15.0915 45.171 14.5072 45.171Z" fill="#F3F3F3"/>
</svg>
