<svg width="18" height="13" viewBox="0 0 18 13" fill="none" xmlns="http://www.w3.org/2000/svg">
<path d="M13.8885 5.23414L8.48813 0.149743C8.33368 0.00534578 8.10254 -0.0373632 7.89949 0.0399197C7.69751 0.118219 7.56574 0.304308 7.56574 0.509718V3.0692C3.83839 3.30919 0.754768 6.01612 0.286014 9.55181L0.00951398 11.6323C-0.0218083 11.8693 0.125082 12.095 0.36486 12.1743C0.424264 12.1937 0.484748 12.2038 0.545233 12.2038C0.726686 12.2038 0.902739 12.1164 1.00319 11.9649L1.54647 11.1453C2.7972 9.26099 4.95411 8.13632 7.31408 8.13632H7.56574L7.56574 10.6785C7.56574 10.8839 7.69751 11.07 7.89949 11.1483C8.10254 11.2256 8.3326 11.1829 8.48813 11.0385L13.8885 5.95409C14.0991 5.75478 14.0991 5.43345 13.8885 5.23414ZM8.64582 9.45114V7.62788C8.64582 7.34722 8.40388 7.11944 8.10578 7.11944H7.31408C4.99299 7.11944 2.84148 8.05903 1.35745 9.67892C1.78192 6.47982 4.68301 4.0688 8.10578 4.0688C8.40388 4.0688 8.64582 3.84102 8.64582 3.56036V1.73709L12.7426 5.59412L8.64582 9.45114Z" fill="#F3960B"/>
<path d="M17.1288 5.23412L11.7284 0.148718C11.5178 -0.0495728 11.1754 -0.0495728 10.9648 0.148718C10.7541 0.347009 10.7541 0.66936 10.9648 0.867651L15.9828 5.59308L10.9648 10.3175C10.7541 10.5158 10.7541 10.8381 10.9648 11.0364C11.0695 11.1361 11.2078 11.1859 11.346 11.1859C11.4843 11.1859 11.6225 11.1361 11.7284 11.0374L17.1288 5.95306C17.3394 5.75477 17.3394 5.43242 17.1288 5.23412Z" fill="#F3960B"/>
</svg>
