<svg xmlns="http://www.w3.org/2000/svg" width="35" height="34" viewBox="0 0 37.021 38.018">
  <g id="noun_Star_3516168" transform="translate(-4.496 -6.598)">
    <path id="Path_1269"  d="M23.763,7.6l4.909,10.733a.851.851,0,0,0,.636.5L40.29,20.559a.861.861,0,0,1,.676.617.956.956,0,0,1-.212.927l-7.945,8.352a.951.951,0,0,0-.244.8l1.876,11.795a.94.94,0,0,1-.332.87.79.79,0,0,1-.868.084L23.407,38.44a.772.772,0,0,0-.8,0l-9.814,5.565a.79.79,0,0,1-.868-.084.94.94,0,0,1-.332-.87L13.45,31.257a.951.951,0,0,0-.244-.8L5.26,22.1a.956.956,0,0,1-.212-.927.861.861,0,0,1,.676-.617l10.982-1.726a.851.851,0,0,0,.636-.5L22.251,7.6a.818.818,0,0,1,1.512,0Z" transform="translate(0)" fill="#fff" stroke="#000" stroke-width="1"/>
  </g>
</svg>
