<svg width="10" height="11" viewBox="0 0 10 11" fill="none" xmlns="http://www.w3.org/2000/svg">
<path d="M9.99653 2.81267C9.99653 4.33193 9.33419 5.4357 9.30634 5.48173C9.25024 5.57342 9.15313 5.62372 9.05293 5.62372C9.00032 5.62372 8.94732 5.60979 8.89934 5.58077C8.75929 5.49566 8.71442 5.31344 8.79914 5.17339C8.80533 5.16333 9.40306 4.15861 9.40306 2.81267C9.40306 2.0451 8.90399 1.488 8.21612 1.488C7.56152 1.488 7.02918 2.02034 7.02918 2.67533C7.02918 2.95427 7.1642 3.66302 7.21604 3.91256C7.2497 4.07311 7.1464 4.23019 6.98585 4.26384C6.82529 4.29673 6.66822 4.19421 6.63495 4.03404C6.61445 3.93616 6.43494 3.06607 6.43494 2.67533C6.43494 1.69343 7.23384 0.894531 8.21612 0.894531C9.2309 0.894531 9.99653 1.71897 9.99653 2.81267ZM8.26641 3.27963C8.38441 4.26578 8.55541 6.1874 8.35888 6.38316L4.04674 10.6957C3.78173 10.9611 3.35114 10.9611 3.08574 10.6953L0.202344 7.81228C-0.0630535 7.54727 -0.0630535 7.11668 0.202344 6.85128L4.51486 2.53915C4.58334 2.47067 5.32924 2.46757 6.16799 2.51129C6.16335 2.56661 6.15135 2.61884 6.15135 2.67533C6.15135 2.89043 6.19894 3.22392 6.24885 3.51717C6.16103 3.64755 6.10957 3.80423 6.10957 3.9733C6.10957 4.42362 6.47478 4.78884 6.92511 4.78884C7.37543 4.78884 7.74065 4.42362 7.74065 3.9733C7.74065 3.69591 7.60176 3.4514 7.39013 3.30439C7.3468 3.04634 7.31199 2.79719 7.31199 2.67533C7.31199 2.64902 7.3174 2.62465 7.31972 2.59873C7.42302 2.60956 7.52477 2.62078 7.6211 2.63277C8.19097 2.70279 8.19677 2.70163 8.26641 3.27963ZM5.96797 6.50696C5.90104 6.32087 5.78962 6.09764 5.54783 5.84075L5.87512 5.51307L5.51069 5.14902L5.15747 5.50262C4.6847 5.17881 4.19724 5.20512 3.86646 5.5359C3.50589 5.89647 3.591 6.35414 3.85562 6.8861C4.03746 7.2544 4.07073 7.46641 3.92952 7.60762C3.78444 7.7527 3.55038 7.68964 3.33798 7.47763C3.09657 7.23622 2.95498 6.93794 2.88456 6.69614L2.33752 7.02034C2.40097 7.23932 2.57197 7.55153 2.81338 7.80841L2.45668 8.1655L2.82073 8.52994L3.20412 8.14693C3.70977 8.50363 4.21968 8.45566 4.55046 8.12488C4.88897 7.78559 4.91876 7.40645 4.62861 6.80408C4.42743 6.37232 4.37907 6.16032 4.49823 6.04154C4.60268 5.93709 4.78839 5.9073 5.03018 6.1491C5.29829 6.4172 5.38727 6.67757 5.43563 6.8153L5.96797 6.50696Z" fill="#13A34C"/>
</svg>
