<svg width="86" height="86" viewBox="0 0 86 86" fill="none" xmlns="http://www.w3.org/2000/svg">
<circle cx="43" cy="43" r="43" fill="#5ABE82"/>
<path d="M61.4967 27.963L60.4257 27.0429C58.6478 25.5151 55.9762 25.6854 54.4066 27.426L36.4893 47.2928L31.0808 42.6347C29.3049 41.1052 26.6328 41.2721 25.0613 43.0108L24.1143 44.0587C23.3464 44.908 22.9476 46.0283 23.0055 47.1727C23.064 48.3164 23.5743 49.3901 24.4248 50.1578L34.3388 59.2364C35.1971 60.0424 36.3474 60.4628 37.5232 60.4004C38.699 60.3382 39.7983 59.798 40.5663 58.9055L61.9551 34.0532C62.7024 33.1849 63.0739 32.0554 62.9878 30.9134C62.9017 29.7706 62.3655 28.7095 61.4967 27.963Z" fill="white"/>
</svg>
