<svg width="29" height="7" viewBox="0 0 29 7" fill="none" xmlns="http://www.w3.org/2000/svg">
<path opacity="0.7" fill-rule="evenodd" clip-rule="evenodd" d="M14.5881 6.83042C16.4074 6.83042 17.8822 5.3556 17.8822 3.53631C17.8822 1.71701 16.4074 0.242188 14.5881 0.242188C12.7688 0.242188 11.2939 1.71701 11.2939 3.53631C11.2939 5.3556 12.7688 6.83042 14.5881 6.83042Z" fill="#2AAB5E"/>
<path fill-rule="evenodd" clip-rule="evenodd" d="M3.95208 6.64097C5.77137 6.64097 7.24619 5.16614 7.24619 3.34685C7.24619 1.52756 5.77137 0.0527344 3.95208 0.0527344C2.13279 0.0527344 0.657959 1.52756 0.657959 3.34685C0.657959 5.16614 2.13279 6.64097 3.95208 6.64097Z" fill="#2AAB5E"/>
<path opacity="0.5" fill-rule="evenodd" clip-rule="evenodd" d="M25.2309 6.90269C27.0502 6.90269 28.525 5.42786 28.525 3.60857C28.525 1.78928 27.0502 0.314453 25.2309 0.314453C23.4116 0.314453 21.9368 1.78928 21.9368 3.60857C21.9368 5.42786 23.4116 6.90269 25.2309 6.90269Z" fill="#2AAB5E"/>
</svg>
