<svg width="26" height="16" viewBox="0 0 26 16" fill="none" xmlns="http://www.w3.org/2000/svg">
<path d="M14.7068 0H2.84464C1.28009 0 0 1.28009 0 2.84464V12.4311C0 13.9956 1.28009 15.2757 2.84464 15.2757H14.7068C16.2713 15.2757 17.5514 13.9956 17.5514 12.4311V2.84464C17.5514 1.25164 16.2713 0 14.7068 0Z" fill="#F3960B"/>
<path d="M23.8949 1.56535C23.7242 1.5938 23.5535 1.67914 23.4113 1.76447L18.9736 4.32465V10.9242L23.4397 13.4844C24.2647 13.968 25.2887 13.6835 25.7723 12.8586C25.9146 12.6025 25.9999 12.3181 25.9999 12.0052V3.21524C25.9999 2.16272 25.0043 1.30933 23.8949 1.56535Z" fill="#F3960B"/>
</svg>
