<svg xmlns="http://www.w3.org/2000/svg" width="18" height="14" viewBox="0 0 18 14">
  <g id="Path_347" data-name="Path 347" fill="none">
    <path d="M9,14C4.161,11.2,1.623,8.662.582,6.533-2.207.83,5.758-1.9,9,1.469,12.242-1.9,20.207.83,17.418,6.533,16.377,8.662,13.839,11.2,9,14Z" stroke="none"/>
    <path d="M 9 12.84112453460693 C 13.8996000289917 9.930636405944824 15.7953577041626 7.575244426727295 16.51971054077148 6.094102382659912 C 17.13751983642578 4.830392360687256 17.16253089904785 3.727862358093262 16.59403991699219 2.817142486572266 C 15.9155797958374 1.730262517929077 14.37584972381592 1.000012516975403 12.76261043548584 1.000012516975403 C 11.522629737854 1.000012516975403 10.44219970703125 1.412882447242737 9.720359802246094 2.162572383880615 L 9 2.910722494125366 L 8.279640197753906 2.162572383880615 C 7.557799816131592 1.412882447242737 6.477369785308838 1.000012516975403 5.237390041351318 1.000012516975403 C 3.62431001663208 1.000012516975403 2.084640026092529 1.730332493782043 1.4061199426651 2.817312479019165 C 0.8375999927520752 3.72807240486145 0.8625500202178955 4.83054256439209 1.48022997379303 6.093982696533203 C 2.20464015007019 7.575240612030029 4.100399494171143 9.930636405944824 9 12.84112453460693 M 9 14.00001239776611 C 4.160759925842285 11.20466232299805 1.622769951820374 8.661652565002441 0.5819000005722046 6.533312320709229 C -2.206519603729248 0.8296331763267517 5.758058071136475 -1.898038387298584 9 1.468972444534302 C 12.24195194244385 -1.898038506507874 20.20652770996094 0.8296332359313965 17.41810035705566 6.533312320709229 C 16.37722969055176 8.661652565002441 13.83924007415771 11.20466232299805 9 14.00001239776611 Z" stroke="none" fill="#000"/>
  </g>
</svg>
